<?xml version="1.0" encoding="UTF-8" standalone="no"?>
<svg
   width="774mm"
   height="515mm"
   viewBox="0 0 774 515"
   version="1.1"
   preserveAspectRatio="xMidYMid meet"
   id="svg2599"
   xml:space="preserve"
   sodipodi:docname="Glas.svg"
   inkscape:version="1.2.2 (1:1.2.2+202212051552+b0a8486541)"
   xmlns:inkscape="http://www.inkscape.org/namespaces/inkscape"
   xmlns:sodipodi="http://sodipodi.sourceforge.net/DTD/sodipodi-0.dtd"
   xmlns="http://www.w3.org/2000/svg"
   xmlns:svg="http://www.w3.org/2000/svg"><sodipodi:namedview
     id="namedview1147"
     pagecolor="#ffffff"
     bordercolor="#000000"
     borderopacity="0.25"
     inkscape:showpageshadow="2"
     inkscape:pageopacity="0.0"
     inkscape:pagecheckerboard="0"
     inkscape:deskcolor="#d1d1d1"
     inkscape:document-units="mm"
     showgrid="false"
     inkscape:zoom="0.57398078"
     inkscape:cx="-210.80845"
     inkscape:cy="550.54108"
     inkscape:window-width="1920"
     inkscape:window-height="999"
     inkscape:window-x="0"
     inkscape:window-y="0"
     inkscape:window-maximized="1"
     inkscape:current-layer="svg2599" /><defs
     id="defs2603" /><g
     id="layer3"
     style="stroke-width:0.01411111;stroke-dasharray:none"><path
       d="m 10.280141,10.901854 v 13.8263 H 7.5792707 v 8.73108 h 2.7008703 v 8.73108 H 7.5792707 v 8.73108 h 2.7008703 v 8.73108 H 7.5792707 v 8.73109 h 2.7008703 v 8.73106 H 7.5792707 v 8.7311 h 2.7008703 v 8.73107 H 7.5792707 v 8.731066 h 2.7008703 v 8.73109 H 7.5792707 v 8.73108 h 2.7008703 v 8.7311 H 7.5792707 v 8.73106 h 2.7008703 v 8.73109 H 7.5792707 v 8.73108 h 2.7008703 v 8.73108 H 7.5792707 v 8.73108 h 2.7008703 v 8.73109 H 7.5792707 v 8.73106 h 2.7008703 v 8.7311 H 7.5792707 v 8.73107 h 2.7008703 v 8.73109 H 7.5792707 v 8.73108 h 2.7008703 v 8.73107 H 7.5792707 v 8.73109 h 2.7008703 v 8.73108 H 7.5792707 v 8.73109 h 2.7008703 v 8.73107 H 7.5792707 v 8.73108 h 2.7008703 v 8.73109 H 7.5792707 v 8.73107 h 2.7008703 v 8.73109 5.09401 h 10.43167 v 3.57978 h 6.58742 v -3.57978 h 6.58745 v 3.57978 h 6.58741 v -3.57978 h 6.58744 v 3.57978 h 6.58743 v -3.57978 h 6.58742 v 3.57978 h 6.58743 v -3.57978 h 6.58743 v 3.57978 h 6.58742 v -3.57978 h 6.58744 v 3.57978 h 6.58743 v -3.57978 h 6.58742 v 3.57978 h 6.587429 v -3.57978 h 6.58743 v 3.57978 h 6.58743 v -3.57978 h 6.58743 v 3.57978 h 6.58742 v -3.57978 h 6.58744 v 3.57978 h 6.58742 v -3.57978 h 6.58743 v 3.57978 h 6.58743 v -3.57978 h 6.58743 v 3.57978 h 6.58743 v -3.57978 h 6.58742 v 3.57978 h 6.58743 v -3.57978 h 6.58743 v 3.57978 h 6.58743 v -3.57978 h 6.58744 v 3.57978 h 6.58741 v -3.57978 h 6.58744 v 3.57978 h 6.58743 v -3.57978 h 6.58741 3.84336 v -13.8251 h 2.70087 v -8.73107 h -2.70087 v -8.73109 h 2.70087 v -8.73108 h -2.70087 v -8.73228 h 2.70087 v -8.73107 h -2.70087 v -8.73108 h 2.70087 v -8.73109 h -2.70087 v -8.73107 h 2.70087 v -8.73108 h -2.70087 v -8.73109 h 2.70087 v -8.73107 h -2.70087 v -8.7311 h 2.70087 v -8.73107 h -2.70087 v -8.73108 h 2.70087 v -8.73108 h -2.70087 v -8.73109 h 2.70087 v -8.72988 h -2.70087 v -8.73109 h 2.70087 v -8.73106 h -2.70087 v -8.73229 h 2.70087 v -8.73108 h -2.70087 v -8.73109 h 2.70087 v -8.731066 h -2.70087 v -8.73108 h 2.70087 v -8.73109 h -2.70087 v -8.73107 h 2.70087 v -8.73109 h -2.70087 v -8.73107 h 2.70087 v -8.73108 h -2.70087 v -8.73108 h 2.70087 v -8.73109 h -2.70087 v -8.73107 -5.09403 H 224.9221 V 7.3220742 h -6.58743 v 3.5797798 h -6.58744 V 7.3220742 h -6.58741 v 3.5797798 h -6.58744 V 7.3220742 h -6.58743 v 3.5797798 h -6.58743 V 7.3220742 h -6.58743 v 3.5797798 h -6.58832 V 7.3220742 h -6.58743 v 3.5797798 h -6.58743 V 7.3220742 h -6.58744 v 3.5797798 h -6.58742 V 7.3220742 h -6.58742 v 3.5797798 h -6.58654 V 7.3220742 h -6.58742 v 3.5797798 h -6.58743 V 7.3220742 h -6.58743 v 3.5797798 h -6.58743 V 7.3220742 h -6.587429 v 3.5797798 h -6.58742 V 7.3220742 h -6.58743 v 3.5797798 h -6.58744 V 7.3220742 h -6.58742 v 3.5797798 h -6.58833 V 7.3220742 h -6.58743 v 3.5797798 h -6.58742 V 7.3220742 h -6.58744 v 3.5797798 h -6.58743 V 7.3220742 h -6.58741 v 3.5797798 h -6.58745 V 7.3220742 h -6.58742 v 3.5797798 h -6.58742 z"
       id="top_outsideCutPath"
       stroke="#FF0000"
       stroke-width="0.1"
       style="fill:none;stroke:#000000;stroke-width:0.01411111;stroke-dasharray:none;stroke-opacity:1"
       vector-effect="non-scaling-stroke" /><path
       id="path10638-3"
       style="fill:none;stroke:#000000;stroke-width:0.01411111;stroke-dasharray:none;stroke-opacity:1"
       d="m 125.29087,239.49613 a 2.4745612,2.4745581 0 0 1 -2.47452,2.47455 2.4745612,2.4745581 0 0 1 -2.47458,-2.47455 2.4745612,2.4745581 0 0 1 2.47458,-2.47456 2.4745612,2.4745581 0 0 1 2.47452,2.47456 z" /><path
       id="path10638-67"
       style="fill:none;stroke:#000000;stroke-width:0.01411111;stroke-dasharray:none;stroke-opacity:1"
       d="m 125.29087,109.26313 a 2.4745612,2.4745581 0 0 1 -2.47452,2.47455 2.4745612,2.4745581 0 0 1 -2.47458,-2.47455 2.4745612,2.4745581 0 0 1 2.47458,-2.47456 2.4745612,2.4745581 0 0 1 2.47452,2.47456 z" /></g><path
     style="fill:#4d4d4d;stroke-width:0.021;stroke-dasharray:none"
     d="m 18.888983,93.767657 c -0.09742,-0.118211 -0.433029,-0.958154 -1.172966,-2.935598 -0.254389,-0.679829 -0.631595,-1.673069 -0.838237,-2.20722 -0.492895,-1.274037 -0.832994,-2.253597 -0.832994,-2.399182 0,-0.161251 1.614054,-0.167425 1.74744,-0.0068 0.05035,0.06066 0.2773,0.58712 0.5043,1.169821 0.227009,0.582701 0.465525,1.178652 0.530046,1.324328 0.305655,0.690125 0.749991,1.862017 0.75204,1.983409 9.03e-4,0.07453 0.09424,-0.122724 0.206633,-0.438356 0.502713,-1.411743 0.787755,-2.182499 0.897922,-2.427939 0.06534,-0.145677 0.243279,-0.592633 0.395325,-0.993247 l 0.276445,-0.728378 h 0.650003 c 0.357498,0 0.745072,0.03619 0.861284,0.08033 0.21794,0.08286 0.358408,0.401319 1.482114,3.360126 0.41526,1.093401 0.418662,1.098748 0.506321,0.794596 0.09917,-0.344141 1.140878,-2.999711 1.422934,-3.627444 0.100755,-0.224242 0.234427,-0.450233 0.297055,-0.502199 0.151974,-0.126141 1.401671,-0.22433 1.551507,-0.121917 0.09631,0.06584 0.07337,0.218405 -0.123385,0.821194 -0.415802,1.273941 -1.059922,3.017593 -1.659599,4.492629 -0.128322,0.315624 -0.38336,0.971167 -0.566757,1.456755 l -0.33344,0.882886 -0.704039,0.05737 c -0.387222,0.03153 -0.767939,0.0232 -0.846052,-0.01849 -0.08492,-0.04541 -0.256382,-0.476698 -0.426451,-1.072707 -0.414564,-1.452943 -1.155342,-3.680555 -1.241683,-3.733913 -0.103904,-0.06422 -0.821209,1.852002 -1.239402,3.310971 -0.208068,0.725876 -0.425792,1.307367 -0.553708,1.478829 -0.05351,0.07172 -0.322043,0.110358 -0.767019,0.110358 -0.440393,0 -0.717142,-0.03934 -0.775637,-0.110358 z m 1.470202,-0.397305 c 0.122708,-0.304078 0.629762,-1.960946 0.629762,-2.057824 0,-0.03941 0.04504,-0.183519 0.100074,-0.320219 0.05505,-0.136698 0.229284,-0.606111 0.387204,-1.043136 0.402546,-1.113993 0.657503,-1.649046 0.76821,-1.612144 0.113264,0.03773 0.841143,2.10242 1.221994,3.466205 0.149168,0.534143 0.331356,1.159888 0.404866,1.390545 l 0.133654,0.41937 h 0.564746 c 0.640067,0 0.703561,-0.05467 0.960459,-0.82685 0.0786,-0.23626 0.317051,-0.871936 0.529911,-1.412618 0.976918,-2.481572 1.196348,-3.06278 1.421147,-3.764155 0.132292,-0.412754 0.293164,-0.869645 0.357488,-1.015321 l 0.116947,-0.264871 -0.493734,-0.02683 c -0.271544,-0.01473 -0.548889,-0.0053 -0.616307,0.02017 -0.06741,0.02583 -0.2038,0.236523 -0.303065,0.468109 -0.09927,0.231592 -0.23589,0.540347 -0.303588,0.686116 -0.198349,0.427059 -0.920752,2.336192 -1.109662,2.932538 -0.280262,0.884756 -0.42943,0.841821 -0.832336,-0.239561 -0.762976,-2.047803 -1.400084,-3.589165 -1.523597,-3.68605 -0.07814,-0.06126 -0.384092,-0.110359 -0.688239,-0.110359 -0.440482,0 -0.558923,0.0302 -0.605668,0.154508 -0.206804,0.549789 -1.581892,4.165336 -1.647741,4.332425 -0.156369,0.396808 -0.361884,0.18597 -0.716212,-0.734786 -0.186845,-0.485521 -0.413204,-1.041684 -0.503021,-1.235924 -0.08979,-0.194235 -0.351379,-0.839845 -0.58124,-1.434691 L 17.613323,86.37347 h -0.607698 c -0.334234,0 -0.607518,0.0298 -0.607302,0.06625 6.67e-4,0.142172 1.174781,3.331268 2.331882,6.334704 0.112255,0.291353 0.22811,0.599259 0.257457,0.684239 0.04395,0.127088 0.16163,0.1545 0.663458,0.1545 0.582937,0 0.61444,-0.01082 0.708056,-0.242789 z m 9.197006,0.357719 c -0.72742,-0.246454 -1.206825,-1.271372 -0.977614,-2.090051 0.134937,-0.481929 0.3904,-0.7363 0.898716,-0.894877 0.211561,-0.06597 0.328811,-0.122657 0.26056,-0.125898 -0.198564,-0.0094 -0.703028,-0.433668 -0.847168,-0.712399 -0.07283,-0.140753 -0.132339,-0.455619 -0.132339,-0.699707 0,-0.740483 -0.07011,-0.726079 3.384107,-0.695115 2.843385,0.0255 2.969875,0.03383 3.209157,0.211222 0.137005,0.101581 0.338494,0.316042 0.447757,0.476575 0.192303,0.282565 0.198637,0.359118 0.198637,2.400512 0,1.607053 -0.02626,2.11801 -0.110358,2.148025 -0.06065,0.02165 -1.439854,0.05023 -3.064782,0.06342 -2.120105,0.01721 -3.042599,-0.0061 -3.266676,-0.08173 z m 5.492716,-0.180278 0.684241,-0.04573 V 91.51323 89.524396 l -0.222407,-0.291589 c -0.134883,-0.176836 -0.352038,-0.327584 -0.551803,-0.383069 -0.407176,-0.113081 -5.663155,-0.122582 -5.840144,-0.01058 -0.181294,0.114759 -0.132987,0.765349 0.07896,1.062948 0.350035,0.491587 0.573191,0.532626 2.89604,0.532626 1.717867,0 2.136404,0.02353 2.220572,0.124984 0.06118,0.07372 0.09278,0.336284 0.07706,0.640093 l -0.02671,0.515113 H 32.208993 30.053287 L 29.928205,91.33969 c -0.139151,-0.417467 -0.165322,-0.428409 -0.595057,-0.248851 -0.92707,0.387352 -0.605578,2.16925 0.444237,2.462211 0.216776,0.06047 4.349376,0.05636 5.271564,-0.0053 z m -0.90496,-2.450872 V 90.699624 H 32.07452 30.005102 l 0.13537,0.397297 0.135371,0.397299 h 1.934057 1.934047 z m 18.95262,2.722231 c -0.03231,-0.03235 -0.05937,-1.293794 -0.06002,-2.803163 -6.67e-4,-1.509362 -0.02518,-2.833696 -0.0545,-2.942956 -0.05243,-0.195498 -0.07653,-0.198766 -1.521772,-0.206379 -0.807691,-0.0041 -1.667189,-0.03403 -1.909982,-0.06625 l -0.441448,-0.05852 -0.02571,-0.683138 c -0.04341,-1.149362 -0.535433,-1.038488 4.609071,-1.038488 3.451381,0 4.463719,0.02468 4.529948,0.110358 0.04945,0.06396 0.06326,0.425422 0.03285,0.859629 l -0.05242,0.749279 -0.353165,0.06227 c -0.194234,0.03429 -0.978895,0.06456 -1.743694,0.0674 l -1.390546,0.0053 v 2.895873 c 0,2.13462 -0.02789,2.923714 -0.105945,3.001808 -0.112061,0.11206 -1.407386,0.152389 -1.512679,0.04708 z m 1.353754,-3.201066 v -2.995063 l 1.714456,-0.02886 c 0.942953,-0.01586 1.734291,-0.04876 1.758539,-0.07309 0.02428,-0.02435 0.06362,-0.312391 0.08753,-0.640095 l 0.04341,-0.595829 h -4.362359 -4.36237 v 0.662168 0.662167 h 1.94235 1.94235 v 3.001809 3.001807 h 0.618013 0.618023 z M 71.1014,93.803752 c -0.03348,-0.05422 -0.08338,-6.920817 -0.05631,-7.761352 0.0027,-0.08021 0.230159,-0.110358 0.83284,-0.110358 0.674774,0 0.839283,0.02603 0.882887,0.139651 0.02952,0.07682 0.0536,0.652893 0.0536,1.28019 v 1.140532 h 1.547892 c 1.667295,0 1.909581,0.04909 2.355452,0.477248 0.38448,0.369198 0.434093,0.716165 0.405181,2.833575 l -0.02653,1.942343 h -0.838731 -0.83874 l -0.02391,-1.733879 c -0.02807,-2.04046 0.136128,-1.838781 -1.49907,-1.840602 l -1.081535,-0.0015 v 1.748115 c 0,1.241924 -0.03068,1.778793 -0.105945,1.854061 -0.121543,0.121531 -1.534264,0.14939 -1.607007,0.03167 z m 1.468369,-2.022591 0.02391,-1.831988 h 1.438022 c 1.182244,0 1.452904,0.02354 1.52163,0.132435 0.04603,0.07283 0.0842,0.877364 0.08492,1.787842 l 9.03e-4,1.65541 h 0.622634 0.622632 l -0.02671,-2.023713 c -0.02662,-2.020231 -0.02707,-2.024118 -0.247414,-2.259462 -0.389154,-0.415664 -0.496314,-0.438276 -2.295507,-0.484412 l -1.72162,-0.04412 -0.02446,-1.250963 -0.02446,-1.25096 -0.62433,-0.02925 c -0.343375,-0.01607 -0.63034,-0.0094 -0.637704,0.01493 -0.0072,0.02426 -0.0027,1.702862 0.01058,3.730194 l 0.024,3.686049 h 0.614323 0.614322 z m -33.196934,1.949358 c -0.0619,-0.02487 -0.271092,-0.270075 -0.464829,-0.54483 -0.372136,-0.527735 -0.481679,-0.669996 -1.673956,-2.17393 -0.952202,-1.2011 -1.259003,-1.639348 -1.460582,-2.08638 -0.202933,-0.450024 -0.120996,-0.518399 0.62184,-0.518932 1.019222,-6.72e-4 1.102786,0.03713 1.681372,0.761549 0.289214,0.36211 0.764222,0.938623 1.055574,1.281144 0.291342,0.342519 0.612011,0.736085 0.712585,0.874599 l 0.182846,0.25183 0.346885,-0.411758 c 0.975511,-1.157984 1.661809,-2.043364 1.814054,-2.34032 l 0.169753,-0.33108 3.684256,1.74e-4 c 4.208988,1.75e-4 4.137211,-0.01106 4.507234,0.706172 0.176755,0.342634 0.199079,0.488404 0.162225,1.059465 -0.09177,1.4221 -0.352859,1.671999 -1.750516,1.675542 -1.299042,0.0033 -1.161153,0.131838 0.191437,0.178477 l 1.280182,0.04412 v 0.794595 0.794596 h -2.884427 -2.884416 l -0.235863,-0.22072 c -0.412743,-0.386256 -0.438426,-0.50257 -0.484502,-2.194819 l -0.04413,-1.620941 -0.644247,0.797379 c -0.35434,0.438551 -0.731772,0.917535 -0.838752,1.064388 -0.106967,0.146854 -0.473627,0.596919 -0.814801,1.000141 -0.341164,0.403223 -0.689719,0.842386 -0.774563,0.975923 -0.144168,0.226927 -0.193052,0.242341 -0.748159,0.235824 -0.326652,-0.0041 -0.64457,-0.0273 -0.706485,-0.05225 z m 10.83964,-0.735391 v -0.618023 l -1.169826,-0.0152 c -0.643399,-0.0084 -1.661585,-0.0183 -2.262614,-0.02206 -0.904158,-0.0053 -1.108508,-0.03147 -1.183867,-0.149362 -0.05009,-0.07837 -0.06614,-0.207502 -0.03564,-0.286935 0.04756,-0.123833 0.225096,-0.14444 1.24488,-0.14444 0.774228,0 1.210533,-0.0341 1.249842,-0.0977 0.04214,-0.06811 0.08338,-0.0614 0.136291,0.02206 0.06047,0.09542 0.07616,0.09628 0.07724,0.0041 6.67e-4,-0.06409 0.04629,-0.08778 0.102262,-0.0532 0.174308,0.107732 1.338431,0.03194 1.629259,-0.106055 0.238722,-0.113276 0.292055,-0.201927 0.377523,-0.627504 0.20832,-1.037313 0.04855,-1.791509 -0.430206,-2.030728 -0.159771,-0.07983 -0.872645,-0.11065 -2.581433,-0.111598 -2.107374,-0.0015 -2.379765,0.015 -2.5383,0.150755 -0.09767,0.08363 -0.177585,0.242547 -0.177585,0.353151 0,0.155652 -0.0499,0.201107 -0.220719,0.201107 h -0.220718 v 1.637722 c 0,1.695733 0.04638,1.955739 0.401489,2.250456 0.23339,0.193697 0.802718,0.236954 3.284554,0.249584 l 2.317578,0.01179 z m -4.556614,-2.774669 c -0.02661,-0.0693 -0.03529,-0.218297 -0.01931,-0.331081 l 0.02905,-0.205075 h 1.633338 1.63334 l 0.02735,0.331086 0.02735,0.331082 h -1.641442 c -1.340443,0 -1.650314,-0.02315 -1.689802,-0.126012 z m 3.143995,-0.227149 c 0,-0.05528 -0.544449,-0.08828 -1.456765,-0.08828 -0.912315,0 -1.456764,0.03302 -1.456764,0.08828 0,0.05528 0.544449,0.08831 1.456764,0.08831 0.912316,0 1.456765,-0.03302 1.456765,-0.08831 z m -8.210839,3.454794 c 0,-0.09841 0.612392,-0.8845 1.186855,-1.523499 0.245563,-0.273154 0.690369,-0.809505 0.988443,-1.191892 0.298075,-0.382389 0.745036,-0.946199 0.993243,-1.252906 0.248208,-0.306708 0.451285,-0.594746 0.451285,-0.640088 0,-0.04532 -0.371485,-0.08245 -0.825541,-0.08245 h -0.825547 l -0.26149,0.419371 c -0.143827,0.230658 -0.597764,0.816667 -1.008739,1.302255 -0.410983,0.485594 -0.838299,1.012012 -0.949602,1.169827 -0.250157,0.35468 -0.411336,0.36304 -0.583417,0.03027 -0.073,-0.14117 -0.421648,-0.59094 -0.774788,-0.999496 -0.353138,-0.408555 -0.86057,-1.027123 -1.127647,-1.374585 l -0.485595,-0.63177 -0.684231,-0.0019 c -0.398683,-0.0013 -0.684242,0.03477 -0.684242,0.08621 0,0.04857 0.05919,0.08829 0.131454,0.08829 0.08338,0 0.125264,0.07464 0.114552,0.204059 -0.01849,0.223819 0.176808,0.532733 0.853279,1.349441 0.245175,0.296 0.66428,0.827185 0.931357,1.18042 0.267076,0.353239 0.58624,0.766597 0.709265,0.918582 0.123007,0.151985 0.332158,0.44519 0.464767,0.651569 l 0.241096,0.375225 h 0.572613 c 0.314949,0 0.57263,-0.03457 0.57263,-0.07676 z m 6.290562,-1.400506 c -0.20638,-0.01856 -0.544078,-0.01856 -0.75045,0 -0.206381,0.01856 -0.03754,0.03383 0.375221,0.03383 0.412742,0 0.5816,-0.0152 0.375229,-0.03383 z M 44.52732,89.245417 c -0.01046,-0.07143 -0.04376,-0.154535 -0.07382,-0.184664 -0.04241,-0.04244 -0.0342,0.136713 0.01344,0.29247 0.02608,0.08521 0.07571,-0.0033 0.06037,-0.107806 z m 0.03466,-0.365213 c 0,-0.07307 -0.171431,-0.114394 -0.21073,-0.05078 -0.02544,0.0413 0.01155,0.07502 0.0822,0.07502 0.07075,0 0.128548,-0.01094 0.128548,-0.02422 z m 12.791754,4.733779 c -0.573579,-0.304387 -0.652071,-0.602063 -0.652071,-2.472916 0,-1.747163 0.05956,-2.042464 0.490792,-2.432599 0.179651,-0.162531 0.33852,-0.171913 2.911218,-0.171913 2.62846,0 2.72971,0.0061 2.970427,0.185801 0.472049,0.351948 0.602817,0.699607 0.598151,1.59028 -0.0045,0.940844 -0.109094,1.16442 -0.681308,1.462198 -0.343845,0.178925 -0.537392,0.198563 -2.404581,0.243926 l -2.030641,0.04936 2.427944,0.04412 2.427936,0.04412 -0.008,0.353152 c -0.0036,0.194235 -0.103635,0.551805 -0.220719,0.794602 l -0.212888,0.441436 -2.648654,0.01889 c -2.46211,0.01754 -2.671143,0.0071 -2.967773,-0.150479 z m 5.669388,-0.574711 c 0.09218,-0.242798 0.16765,-0.490471 0.167685,-0.550386 5.5e-5,-0.08315 -0.569318,-0.114504 -2.405789,-0.132428 l -2.405862,-0.02347 v -0.264869 -0.264863 l 1.721621,-0.02267 c 0.946896,-0.01251 1.781225,-0.04802 1.854058,-0.07907 0.07283,-0.03101 0.251627,-0.05528 0.397303,-0.054 0.403782,0.0033 0.913138,-0.291467 0.990257,-0.573709 0.133664,-0.489152 0.07951,-1.558059 -0.09216,-1.820104 -0.301682,-0.460428 -0.533339,-0.496402 -3.196559,-0.496402 -1.57683,0 -2.499487,0.0337 -2.61486,0.0954 -0.09806,0.05246 -0.253485,0.261064 -0.345414,0.463515 -0.140712,0.30991 -0.167361,0.58445 -0.168578,1.736577 -9.03e-4,1.56494 0.07112,1.928226 0.449912,2.246987 l 0.270605,0.227698 2.605077,-0.02334 2.605086,-0.0234 z m -4.624597,-2.753423 c -0.09094,-0.475776 -0.09516,-0.474706 1.778618,-0.448873 l 1.733541,0.02387 0.02735,0.33108 0.02735,0.33108 H 60.204572 58.44376 Z m 3.29145,-0.160102 c 0,-0.112669 -0.23054,-0.132437 -1.545057,-0.132437 -1.411148,0 -1.657983,0.03423 -1.486192,0.20601 0.03231,0.03235 0.727647,0.05885 1.545056,0.05885 1.262197,0 1.486193,-0.01996 1.486193,-0.132434 z m 2.851586,3.490973 c -0.546506,-0.333225 -0.602428,-0.561556 -0.581708,-2.375278 0.01009,-0.891689 0.06055,-1.748744 0.112024,-1.904568 0.05143,-0.155826 0.224374,-0.410169 0.384344,-0.565214 l 0.290837,-0.281892 2.687232,0.0234 2.687233,0.02341 v 0.794594 0.794596 l -2.143777,0.02367 -2.143785,0.02367 -0.08546,0.224896 c -0.09426,0.247947 -0.113373,1.204011 -0.03023,1.514107 0.05261,0.196185 0.06272,0.197207 2.183941,0.22072 l 2.131107,0.02361 0.02544,0.816668 0.02544,0.816675 -2.629902,-3.36e-4 c -2.452643,-2.7e-4 -2.648944,-0.01204 -2.912546,-0.172673 z m 5.27096,-0.621592 v -0.618023 h -2.121694 c -1.93764,0 -2.127207,-0.01338 -2.185151,-0.1545 -0.03493,-0.08499 -0.06345,-0.565177 -0.06345,-1.067106 0,-1.310716 -0.117433,-1.25047 2.437717,-1.25047 h 2.020859 v -0.573877 -0.573879 h -2.546691 c -2.502483,0 -2.549607,0.0033 -2.714874,0.191551 -0.138789,0.158071 -0.142931,0.18237 -0.02365,0.13904 0.109447,-0.03975 0.133729,-0.01131 0.100062,0.117457 -0.02446,0.09349 -0.08185,0.16997 -0.127654,0.16997 -0.04576,0 -0.06272,-0.03309 -0.03772,-0.07357 0.02499,-0.04049 -0.0107,-0.07357 -0.07922,-0.07357 -0.06859,0 -0.104195,0.03309 -0.07923,0.07357 0.02499,0.04049 0.01191,0.07357 -0.02915,0.07357 -0.112571,0 -0.133384,0.265293 -0.145475,1.85406 -0.01498,1.970611 0.07869,2.176284 1.048379,2.301792 0.242793,0.0314 1.365162,0.06274 2.494154,0.06956 l 2.052705,0.01245 z M 59.070972,85.576987 C 58.534445,85.468124 58.070364,85.138995 57.578003,84.518169 57.33881,84.216566 56.836467,83.598181 56.46168,83.143986 56.086902,82.689799 55.649875,82.141653 55.49051,81.925891 54.608064,80.73116 51.954655,77.345746 51.059141,76.27203 50.772158,75.927943 50.461188,75.518748 50.368087,75.3627 L 50.198814,75.078993 49.781703,75.3627 c -0.22941,0.156048 -0.919219,0.539922 -1.532919,0.853066 -0.95943,0.489563 -1.196023,0.574463 -1.68805,0.605797 l -0.572235,0.03645 0.508316,0.630248 c 1.02378,1.269363 3.257364,4.178309 3.657429,4.763323 0.399423,0.584074 0.411361,0.620707 0.411361,1.262496 0,0.689619 -0.115488,1.038959 -0.473844,1.433318 -0.575122,0.632899 -1.775946,0.79588 -2.542739,0.345116 -0.437911,-0.257425 -0.961957,-0.824066 -1.588245,-1.717327 -0.21092,-0.300824 -0.76054,-1.035827 -1.221381,-1.633345 -0.885116,-1.147613 -1.56462,-2.039664 -2.64824,-3.476647 -0.363498,-0.48203 -1.158401,-1.512093 -1.766452,-2.289035 -0.60805,-0.776941 -1.21446,-1.571536 -1.347573,-1.765769 -0.133105,-0.194234 -0.430773,-0.559016 -0.661473,-0.810617 -0.23071,-0.251599 -0.637975,-0.764754 -0.905051,-1.140343 -0.851719,-1.197764 -1.334281,-1.820439 -2.217097,-2.860772 -0.959819,-1.131076 -1.697662,-2.03338 -2.418586,-2.957669 -0.265126,-0.339911 -0.898932,-1.114643 -1.408441,-1.721628 -2.18192,-2.599306 -2.387191,-3.019422 -2.037833,-4.170712 0.183297,-0.604062 0.53455,-0.994962 1.13697,-1.265311 0.614268,-0.275669 0.989082,-0.251517 1.710782,0.110237 0.341931,0.171396 0.603196,0.410699 1.015316,0.929966 0.305194,0.38455 0.872746,1.085807 1.261214,1.558348 1.090486,1.326483 1.929905,2.375663 2.49039,3.112718 0.281281,0.3699 0.826244,1.062987 1.211012,1.540195 0.384777,0.477207 0.758933,0.989024 0.831451,1.137377 0.173497,0.354901 1.096975,1.638193 1.178877,1.638193 0.03511,0 0.452874,0.482021 0.928324,1.071158 0.47547,0.589138 1.144072,1.417286 1.485787,1.840335 l 0.621324,0.769174 0.349855,-0.935377 c 0.31743,-0.848666 0.349863,-1.01312 0.349863,-1.774117 0,-0.750874 -0.03574,-0.938375 -0.341372,-1.789766 -0.187755,-0.523061 -0.525463,-1.245924 -0.75046,-1.606363 -0.379434,-0.607846 -2.223972,-2.929066 -2.808669,-3.534525 -0.140694,-0.145677 -0.562985,-0.65038 -0.93844,-1.121564 -0.375455,-0.471183 -0.7242,-0.882382 -0.774996,-0.91377 -0.0508,-0.0314 -0.211767,-0.221965 -0.357733,-0.423489 -0.145972,-0.201529 -0.422866,-0.53443 -0.615314,-0.739783 -0.395931,-0.422474 -1.205462,-1.417409 -1.949966,-2.396559 -0.574933,-0.756146 -0.743881,-1.271419 -0.649679,-1.981508 0.07481,-0.564061 0.297713,-0.934259 0.82036,-1.362526 0.393919,-0.322791 0.422227,-0.331106 1.127385,-0.331106 0.702299,0 0.735769,0.0097 1.151129,0.333299 0.390706,0.304391 1.148232,1.181116 2.953505,3.418192 3.51261,4.352807 3.961071,4.768359 5.145949,4.768359 1.079639,0 1.842554,-0.608576 1.998344,-1.594097 0.09697,-0.613537 -0.01203,-1.455882 -0.248577,-1.919414 -0.196355,-0.384885 -0.606229,-0.926148 -1.844889,-2.436311 -0.402645,-0.490897 -0.796816,-0.972004 -0.875939,-1.069121 -0.317522,-0.389733 -2.151176,-2.510542 -2.294813,-2.654181 -0.396724,-0.396713 -1.041278,-1.273634 -1.228933,-1.671959 -0.258522,-0.548743 -0.264243,-0.982886 -0.02067,-1.572828 0.498669,-1.208059 1.91876,-1.578737 2.865078,-0.747865 0.171755,0.150807 0.529713,0.555871 0.795473,0.900143 0.265748,0.344275 0.650561,0.827981 0.855119,1.074904 0.204567,0.246923 0.610316,0.739464 0.901676,1.094538 0.291342,0.355072 0.668783,0.814912 0.838735,1.021869 0.704572,0.857952 1.622427,1.955456 2.913528,3.483757 0.752662,0.890935 1.780746,2.119232 2.284641,2.729546 2.15022,2.60432 2.964777,3.584415 3.013489,3.625885 0.02852,0.02429 0.386501,0.441444 0.795518,0.927032 1.238553,1.470429 2.450856,2.879665 3.027665,3.519506 0.300456,0.333289 0.586022,0.674611 0.634581,0.758491 0.115768,0.199991 0.646574,0.831987 1.412619,1.681946 0.339909,0.377149 0.765891,0.878965 0.946624,1.115158 0.180735,0.236186 0.49915,0.608216 0.707569,0.826729 0.208429,0.218511 0.774391,0.854195 1.257703,1.412617 0.483311,0.558429 0.965412,1.114647 1.071328,1.236039 1.614072,1.849944 1.820706,2.342431 1.408468,3.356959 -0.360449,0.887055 -0.80918,1.233798 -1.595294,1.232695 -0.280575,-3.63e-4 -1.190599,-0.383263 -1.193748,-0.50224 -6.68e-4,-0.03867 -0.245835,-0.328524 -0.544016,-0.644157 -0.298192,-0.315633 -1.01454,-1.149961 -1.5919,-1.85406 -0.57736,-0.704099 -1.236407,-1.494781 -1.464544,-1.757074 -1.144189,-1.315418 -1.871357,-2.1658 -2.553053,-2.985676 l -0.750162,-0.902193 -0.277427,0.207536 c -0.451014,0.337389 -0.802403,0.484941 -1.613793,0.677649 -1.047992,0.248897 -2.483541,0.233247 -2.989782,-0.03262 -0.150042,-0.07879 -0.142003,-0.04741 0.05343,0.208814 0.126508,0.165846 0.33509,0.353375 0.463512,0.41672 0.150595,0.07429 0.233517,0.186701 0.233517,0.316594 0,0.234317 0.292108,0.643807 1.717433,2.407533 0.386158,0.477848 0.916936,1.127062 1.179492,1.442695 0.796797,0.957865 1.027715,1.242682 1.789526,2.207212 0.402708,0.509866 0.814151,1.010418 0.91432,1.112339 0.100171,0.101922 0.420512,0.496281 0.711862,0.876363 0.291352,0.380081 0.696893,0.875097 0.901207,1.100025 0.523594,0.576434 0.979293,1.368117 1.046864,1.818679 0.211976,1.413547 -1.075904,2.617753 -2.492285,2.330366 z m 1.162985,-0.339339 c 0.379923,-0.172583 0.886416,-0.690157 1.020478,-1.042791 0.265317,-0.697832 -0.01904,-1.587295 -0.780735,-2.442304 -0.229392,-0.257479 -0.655455,-0.77871 -0.946796,-1.158286 -0.29136,-0.379578 -0.631161,-0.793931 -0.755134,-0.920791 -0.123964,-0.12686 -0.640457,-0.759272 -1.147745,-1.40536 -0.507305,-0.646095 -1.081282,-1.366556 -1.275516,-1.601028 -2.388292,-2.88302 -3.310822,-4.086635 -3.310822,-4.319586 0,-0.04392 -0.09406,-0.141527 -0.209043,-0.216859 -0.263494,-0.17265 -0.703877,-0.913773 -0.640736,-1.078308 0.02608,-0.06804 0.0036,-0.150984 -0.05054,-0.18432 -0.06452,-0.03989 -0.07346,-0.01816 -0.02608,0.06342 0.03952,0.0682 0.049,0.104135 0.02093,0.07984 -0.02807,-0.02426 -0.05035,-0.07767 -0.04973,-0.118612 6.59e-4,-0.04096 -0.10524,-0.185617 -0.235401,-0.321483 -0.130164,-0.135857 -0.362479,-0.425577 -0.516268,-0.643827 -0.875597,-1.242581 -1.767417,-2.357284 -1.926314,-2.407712 -0.100268,-0.03183 -0.406471,-0.03021 -0.680433,0.0035 -0.444273,0.05479 -0.539918,0.105861 -0.884864,0.472492 -0.711945,0.756705 -0.850122,1.033041 -0.842504,1.68488 0.008,0.713123 0.239371,1.20412 1.031531,2.192127 0.302984,0.377896 0.715078,0.906874 0.915763,1.175518 0.200686,0.268635 0.588044,0.744323 0.860815,1.057078 0.272762,0.31276 0.495935,0.620718 0.495935,0.68436 0,0.138802 1.427663,2.023612 2.253952,2.975687 0.260759,0.300447 0.658278,0.80929 1.869976,2.393586 0.806166,1.054077 1.728444,2.219547 2.227944,2.815443 0.325634,0.388474 0.664831,0.818115 0.75378,0.95476 0.291776,0.448229 0.965946,1.101753 1.325906,1.2853 0.440745,0.22474 1.037751,0.233974 1.50167,0.0232 z m -10.856596,-0.08957 c 0.865915,-0.393337 1.253398,-1.475601 0.841467,-2.350275 -0.165988,-0.35244 -1.137068,-1.650935 -3.140628,-4.199547 -0.582703,-0.741223 -1.122612,-1.450366 -1.199804,-1.57588 -0.07716,-0.125508 -0.387926,-0.486443 -0.690548,-0.802075 -0.302623,-0.315632 -0.736085,-0.847321 -0.963274,-1.181529 -0.227173,-0.334201 -0.557635,-0.82038 -0.734361,-1.080388 -0.17672,-0.260007 -0.673341,-0.900591 -1.103608,-1.423532 -0.430268,-0.522933 -0.950623,-1.172048 -1.156354,-1.442479 -0.20574,-0.270425 -0.603909,-0.737007 -0.884828,-1.036848 -0.498823,-0.532408 -0.521491,-0.545159 -0.969076,-0.545159 -0.871473,0 -1.818378,0.545018 -2.097853,1.207468 -0.256824,0.608761 -0.20416,0.916525 0.269052,1.572439 0.240311,0.333085 0.531464,0.705006 0.647018,0.826494 0.115537,0.121494 0.691613,0.839136 1.280172,1.594765 0.588568,0.755623 1.169438,1.499785 1.290829,1.65368 0.396861,0.503107 1.538081,1.996658 1.854059,2.426472 0.169959,0.231176 0.726176,0.960421 1.236045,1.620538 0.950117,1.230106 1.465581,1.908791 2.135032,2.811059 0.827706,1.11556 1.425054,1.759024 1.784509,1.922268 0.461284,0.209479 1.144171,0.210555 1.602151,0.0027 z m 17.081887,-6.589756 c 0.296567,-0.284124 0.616741,-1.05428 0.615495,-1.480517 -3.24e-4,-0.155993 -0.116497,-0.482279 -0.257881,-0.725068 -0.330271,-0.567186 -2.11793,-2.695323 -3.693506,-4.396961 -0.305835,-0.3303 -0.676868,-0.767332 -0.824521,-0.971175 -0.14766,-0.203846 -0.494039,-0.613571 -0.769753,-0.9105 -0.275702,-0.296928 -0.728269,-0.835364 -1.005722,-1.196513 -0.277436,-0.361157 -0.67473,-0.838378 -0.882879,-1.060502 -0.483717,-0.516189 -2.212577,-2.530697 -2.67395,-3.115743 -0.194233,-0.246298 -0.432623,-0.52659 -0.529739,-0.622868 -0.09712,-0.09628 -1.25542,-1.466138 -2.573998,-3.044125 -1.31858,-1.577989 -2.947505,-3.520948 -3.619834,-4.31769 -1.269958,-1.504976 -1.817855,-2.161842 -3.272399,-3.92322 -1.343475,-1.626888 -1.542131,-1.870171 -1.967139,-2.409106 -0.752445,-0.954133 -1.047171,-1.237002 -1.398532,-1.342272 -0.456437,-0.136752 -0.726094,-0.129785 -1.084838,0.02802 -0.631431,0.277771 -0.947807,0.741795 -1.016056,1.490233 -0.03591,0.393856 -0.0027,0.520279 0.250194,0.960111 0.160357,0.27859 0.728593,1.010993 1.262737,1.627553 0.534143,0.616568 1.269154,1.464564 1.633339,1.884442 0.364193,0.419882 0.77052,0.899239 0.902956,1.06525 1.143494,1.433356 1.619902,2.023636 1.846886,2.288324 0.42154,0.491574 0.692956,1.105566 0.773983,1.750878 0.156082,1.243009 -0.191941,2.115379 -1.051745,2.636408 -0.462997,0.280567 -0.520498,0.293072 -1.236045,0.26882 -0.501919,-0.01702 -0.858496,-0.07843 -1.076707,-0.18547 -0.383911,-0.188318 -1.575981,-1.382085 -2.427141,-2.43061 -1.276932,-1.57303 -3.100634,-3.811445 -3.691665,-4.53115 -0.33991,-0.413911 -0.816669,-0.9006 -1.059471,-1.08153 -0.421667,-0.314228 -0.46741,-0.327509 -1.021389,-0.296448 -0.498201,0.02792 -0.632353,0.07402 -0.951749,0.326991 -0.444428,0.351986 -0.623972,0.671974 -0.689756,1.229281 -0.109702,0.929368 -0.0053,1.087723 3.256091,4.953327 0.229131,0.271562 0.712215,0.851318 1.073513,1.288348 0.361297,0.437025 0.772226,0.913784 0.913155,1.059461 0.140927,0.145676 0.656095,0.761489 1.144802,1.368474 0.488716,0.606983 0.977306,1.202932 1.085739,1.324328 0.599334,0.670933 1.298222,2.095875 1.598281,3.258728 0.272291,1.055208 0.229942,1.68344 -0.192132,2.850482 -0.198511,0.548914 -0.379778,1.077483 -0.40278,1.174604 -0.04233,0.178758 0.514985,1.008392 1.62177,2.414063 0.638452,0.810877 0.759889,0.877081 1.473414,0.803223 0.467239,-0.04835 0.767226,-0.16832 1.828619,-0.731235 0.698319,-0.370363 1.36379,-0.747263 1.478811,-0.837558 0.250697,-0.196802 0.206705,-0.312882 -0.341662,-0.901399 -0.201886,-0.21667 -0.432271,-0.493268 -0.51198,-0.614667 -0.208573,-0.317684 -0.663097,-0.910109 -0.77828,-1.014432 -0.254525,-0.230504 -1.048164,-1.366026 -1.203333,-1.7217 -0.265118,-0.607685 -0.303118,-1.385744 -0.09093,-1.86172 0.205351,-0.460623 0.73844,-1.120659 1.083853,-1.341951 0.358654,-0.229775 1.344976,-0.30493 1.621761,-0.123576 0.118941,0.07795 0.675416,0.749011 1.236604,1.49127 0.56119,0.742267 1.210382,1.556016 1.442633,1.808336 l 0.4223,0.458753 0.75045,0.08696 c 0.571674,0.06624 0.919111,0.05764 1.45838,-0.03612 2.091238,-0.363471 3.040047,-1.225823 3.054557,-2.776229 0.008,-0.891776 -0.294482,-1.440913 -1.643553,-2.980319 -0.855131,-0.97577 -1.283791,-1.487389 -2.228062,-2.659243 -0.79114,-0.981807 -1.642587,-1.973018 -2.015678,-2.346534 -0.29746,-0.297797 -1.539164,-1.795771 -1.539164,-1.856823 0,-0.133337 0.283429,0.134249 0.884865,0.835411 0.35405,0.412751 0.772352,0.88951 0.929569,1.059464 0.747644,0.808232 0.978651,1.073551 1.611112,1.850406 0.37393,0.459301 0.739468,0.899532 0.812301,0.978294 0.07283,0.07876 0.311223,0.357859 0.529732,0.620216 0.218517,0.262357 0.675415,0.790276 1.015325,1.173153 0.862755,0.971815 1.286065,1.540612 1.582352,2.126202 0.222615,0.440015 0.253793,0.594999 0.245662,1.221361 -0.008,0.62121 -0.04709,0.791764 -0.290873,1.272106 -0.246375,0.485407 -0.266291,0.574233 -0.159365,0.711006 0.06723,0.08596 0.400516,0.490357 0.740678,0.89865 0.340172,0.408294 0.737402,0.88505 0.882735,1.059465 0.14534,0.174407 0.681687,0.797831 1.191898,1.385373 0.510203,0.587551 1.330726,1.560932 1.823378,2.163077 0.492641,0.602143 1.036323,1.243859 1.208169,1.426026 0.171854,0.182175 0.464045,0.516303 0.649326,0.742503 0.438922,0.535858 0.89896,0.752272 1.508662,0.709695 0.365231,-0.02549 0.522015,-0.08668 0.728116,-0.284145 z M 43.546683,49.821998 c -0.02997,-0.04857 -0.146721,-0.08829 -0.259369,-0.08829 -0.144791,0 -0.237289,-0.07844 -0.31568,-0.267695 -0.143356,-0.346083 -0.08447,-0.392708 0.314118,-0.248592 0.395778,0.143116 0.722009,0.509628 0.550496,0.618466 -0.150773,0.09567 -0.224022,0.09216 -0.289565,-0.01389 z m 0.08771,-0.177234 c -0.08826,-0.09747 -0.270884,-0.232352 -0.405939,-0.299723 -0.232387,-0.115939 -0.239942,-0.113532 -0.141064,0.04481 0.05739,0.092 0.169525,0.167292 0.24901,0.167292 0.07951,0 0.193989,0.05959 0.254442,0.132431 0.06047,0.07283 0.131066,0.132435 0.156921,0.132435 0.02589,0 -0.02518,-0.07975 -0.113373,-0.177236 z m -6.508082,20.925057 c 0.132068,-0.319856 0.714039,-0.850543 1.123073,-1.02413 0.194234,-0.08243 0.585048,-0.173763 0.868475,-0.202963 l 0.515329,-0.05306 -0.31558,-0.412645 c -0.173578,-0.226952 -0.407717,-0.585915 -0.520328,-0.797695 -0.112607,-0.211781 -0.681859,-0.979612 -1.265022,-1.706286 -0.583161,-0.726675 -1.155251,-1.460284 -1.27131,-1.630239 -0.116072,-0.169956 -0.359484,-0.487795 -0.54093,-0.70631 -0.793017,-0.955016 -2.277883,-2.777963 -2.723797,-3.343966 -0.503083,-0.638558 -0.845403,-0.888672 -1.467947,-1.072561 -0.759348,-0.224292 -1.679739,0.343872 -1.935906,1.195037 -0.321193,1.067242 -0.144999,1.414284 2.039016,4.016088 0.509517,0.606984 1.140642,1.381718 1.402511,1.721628 0.261862,0.339911 0.588957,0.739426 0.726881,0.88781 0.137914,0.148383 0.427352,0.505953 0.64319,0.794596 0.215847,0.288644 0.658433,0.828014 0.983551,1.198598 0.32511,0.370585 0.803079,0.943509 1.062142,1.273169 l 0.47103,0.599374 0.05721,-0.257849 c 0.03148,-0.141816 0.09825,-0.357167 0.148373,-0.478565 z m 3.362983,13.750947 c -0.3022,-0.352043 -0.738025,-0.838741 -0.9685,-1.081532 -0.230475,-0.242797 -0.491631,-0.525206 -0.580365,-0.627578 -0.341687,-0.394265 -1.325447,-1.506153 -1.669534,-1.886988 -0.198268,-0.219427 -0.670282,-0.776391 -1.048932,-1.237699 -0.776692,-0.946245 -2.208676,-2.582063 -2.740158,-3.130215 -0.194242,-0.200327 -0.513641,-0.541435 -0.709806,-0.758011 -0.356216,-0.393309 -0.641295,-0.703904 -2.468589,-2.689552 -0.534144,-0.580434 -1.219484,-1.313102 -1.522983,-1.62815 -0.303478,-0.315048 -0.551794,-0.597094 -0.551794,-0.626773 0,-0.141171 -3.817939,-3.610349 -4.701378,-4.271906 -0.369021,-0.276349 -0.414728,-0.440859 -0.160303,-0.577022 0.466815,-0.249832 1.70999,0.0704 2.341458,0.603158 0.209113,0.176423 0.51595,0.425294 0.681877,0.553051 0.683012,0.525922 5.233138,5.501088 5.235836,5.724934 9.02e-4,0.07384 0.04792,0.134345 0.104633,0.134465 0.112255,2.7e-4 0.249272,0.112547 0.251626,0.206238 6.69e-4,0.03235 0.06777,0.138321 0.1487,0.235434 0.324587,0.389314 1.115113,1.38914 1.615596,2.04335 0.291352,0.380841 0.710097,0.891352 0.930545,1.134467 0.220449,0.243105 0.518424,0.598909 0.662159,0.790661 0.262285,0.349891 0.943277,1.231425 2.331314,3.017862 0.41009,0.527802 1.184824,1.503484 1.721621,2.168187 0.938973,1.162705 1.539236,1.930896 1.810527,2.317058 0.121263,0.172605 0.119172,0.175327 -0.03862,0.0501 -0.151396,-0.120193 -0.161468,-0.118151 -0.108924,0.02205 0.097,0.258832 0.0063,0.180643 -0.566027,-0.485593 z m 0.541181,0.344772 c 0,-0.01675 -0.08942,-0.10614 -0.198656,-0.198651 l -0.198638,-0.168187 0.168182,0.198645 c 0.158058,0.186681 0.229112,0.238843 0.229112,0.168193 z m -0.353148,-0.441448 c 0,-0.01675 -0.08942,-0.10614 -0.198656,-0.198645 l -0.198656,-0.168188 0.1682,0.198646 c 0.158048,0.186681 0.229112,0.238843 0.229112,0.168187 z m -0.794604,-0.967537 c 0,-0.01473 -0.148988,-0.163742 -0.331085,-0.331082 l -0.331074,-0.30426 0.304245,0.331082 c 0.283203,0.308167 0.357914,0.371681 0.357914,0.30426 z m -1.345841,-1.584444 c -0.405759,-0.497725 -1.291986,-1.614599 -1.969387,-2.481935 -0.6774,-0.867335 -1.350821,-1.728983 -1.496498,-1.91477 C 34.925322,77.08962 34.488297,76.55316 34.099818,76.083285 33.711351,75.613407 33.269659,75.064641 33.11828,74.86381 32.843632,74.499447 31.316589,72.65345 30.19125,71.325415 29.149847,70.09644 26.712012,67.570858 25.992775,66.975818 25.17367,66.298158 24.424564,65.957379 23.839859,65.996425 l -0.397339,0.02653 0.605209,0.48394 c 0.332869,0.266165 0.838371,0.68333 1.123324,0.927029 0.882093,0.754356 4.277273,4.16507 5.665699,5.691602 0.726401,0.798651 1.817338,1.993932 2.424334,2.656175 0.606985,0.662248 1.164492,1.280162 1.238914,1.373139 0.07445,0.09299 0.43376,0.506759 0.79853,0.919512 0.364773,0.412746 0.840241,0.970234 1.056584,1.238849 0.506575,0.628952 2.833458,3.263867 2.882316,3.263867 0.02048,0 -0.294773,-0.407231 -0.700548,-0.904957 z M 73.338457,71.360469 c -0.367297,-0.03328 -0.74473,-0.10073 -0.838742,-0.149853 -0.09401,-0.04909 -0.548366,-0.216367 -1.009667,-0.371662 -0.908003,-0.305678 -2.384295,-1.056243 -3.208272,-1.631123 -0.283519,-0.197799 -0.601365,-0.418582 -0.706315,-0.490631 -1.049914,-0.720691 -4.242143,-3.798506 -5.816229,-5.607765 -0.422471,-0.485589 -1.276347,-1.464923 -1.897509,-2.176298 -0.621155,-0.711379 -1.347889,-1.560831 -1.614966,-1.887673 -0.267077,-0.326842 -0.743836,-0.900418 -1.059471,-1.274607 -0.315625,-0.37419 -0.85198,-1.011493 -1.191889,-1.41623 -0.339911,-0.404734 -0.915998,-1.077161 -1.280182,-1.494275 -1.370504,-1.56966 -2.45073,-2.886891 -2.59285,-3.161726 -0.389587,-0.753375 -0.251149,-1.687254 0.334343,-2.255454 0.442313,-0.429255 0.665551,-0.518934 1.295612,-0.520496 0.606607,-0.0017 1.108723,0.235012 1.484747,0.699362 0.14805,0.182816 0.678728,0.829014 1.179293,1.435999 0.500573,0.606984 1.093022,1.361854 1.316558,1.677486 0.223535,0.31563 0.513667,0.673198 0.644732,0.794597 0.131068,0.121397 0.381791,0.419371 0.557147,0.662163 0.175357,0.242796 0.539251,0.703415 0.808639,1.023601 0.503615,0.598564 0.83754,1.012765 1.986341,2.463799 1.007096,1.272054 1.375485,1.725935 1.858444,2.289705 0.772749,0.902073 1.403721,1.680839 1.70738,2.107305 0.162127,0.227685 0.323784,0.434008 0.359258,0.458492 0.09048,0.06245 1.130437,1.280639 1.545688,1.810601 0.19011,0.242622 0.390571,0.480861 0.445481,0.529421 0.05486,0.04855 0.375241,0.425992 0.711856,0.838739 0.336616,0.41275 0.817491,0.96897 1.068603,1.236042 0.251122,0.267072 0.589705,0.645112 0.752418,0.840087 0.515202,0.617384 1.996504,1.957772 2.614219,2.365527 0.558119,0.368412 0.985094,0.510612 2.191675,0.729919 0.300673,0.05467 0.217318,0.295141 -0.132429,0.382072 -0.554934,0.137936 -0.830475,0.154836 -1.513913,0.09288 z m 1.099393,-0.244962 c 0.02464,-0.03981 -0.225654,-0.137224 -0.556117,-0.216536 -0.72447,-0.17387 -1.43452,-0.620787 -2.473659,-1.556956 -0.802204,-0.722708 -2.395421,-2.457129 -3.4908,-3.800168 -0.374227,-0.458848 -0.755061,-0.915743 -0.846296,-1.015321 -0.14451,-0.157731 -0.904355,-1.063686 -2.336293,-2.785568 -0.222102,-0.267071 -0.511323,-0.622981 -0.642713,-0.790908 -0.131391,-0.167925 -0.437541,-0.53293 -0.680333,-0.81112 -0.242794,-0.278192 -0.918201,-1.107014 -1.500911,-1.841828 -0.582703,-0.734817 -1.456765,-1.820145 -1.94235,-2.411843 -0.485585,-0.591696 -1.028256,-1.274269 -1.205941,-1.516828 -0.177675,-0.242555 -0.430294,-0.540339 -0.56136,-0.661735 -0.131065,-0.121396 -0.421198,-0.478965 -0.644734,-0.794598 -0.223534,-0.315629 -0.815983,-1.070499 -1.316556,-1.677483 -0.500575,-0.606985 -1.030964,-1.252841 -1.178653,-1.435237 -0.367297,-0.45362 -0.731301,-0.62383 -1.335264,-0.624373 -0.413031,-3.34e-4 -0.570583,0.04587 -0.874865,0.256724 -0.616452,0.4272 -0.848388,1.223265 -0.577235,1.981237 0.102457,0.286408 1.11894,1.555111 2.657021,3.316287 0.761686,0.872162 1.751327,2.039969 2.569812,3.03245 0.337545,0.409301 0.782565,0.923739 0.988939,1.143198 0.20638,0.219456 0.375238,0.429628 0.375238,0.467043 0,0.03742 0.518144,0.655283 1.151453,1.373033 0.6333,0.717744 1.496353,1.702291 1.917894,2.18788 1.591178,1.832932 4.880712,5.000791 5.936087,5.716525 0.169951,0.115258 0.547392,0.371479 0.838743,0.569378 1.023635,0.695289 2.494198,1.352379 4.105418,1.834429 0.442125,0.132273 1.553874,0.174946 1.623475,0.06234 z m 0.471545,-0.06929 c -0.02932,-0.02932 -0.105484,-0.0325 -0.16923,-0.0071 -0.07039,0.02819 -0.04954,0.04909 0.05333,0.05333 0.09307,0.0041 0.145216,-0.01702 0.115877,-0.04634 z"
     id="path758" /></svg>
