<?xml version="1.0" encoding="UTF-8" standalone="no"?>
<svg
   width="774mm"
   height="515mm"
   viewBox="0 0 774 515"
   version="1.1"
   preserveAspectRatio="xMidYMid meet"
   id="svg2599"
   sodipodi:docname="Prototype.svg"
   inkscape:version="1.2.2 (1:1.2.2+202212051552+b0a8486541)"
   xmlns:inkscape="http://www.inkscape.org/namespaces/inkscape"
   xmlns:sodipodi="http://sodipodi.sourceforge.net/DTD/sodipodi-0.dtd"
   xmlns="http://www.w3.org/2000/svg"
   xmlns:svg="http://www.w3.org/2000/svg">
  <sodipodi:namedview
     id="namedview252"
     pagecolor="#ffffff"
     bordercolor="#000000"
     borderopacity="0.25"
     inkscape:showpageshadow="2"
     inkscape:pageopacity="0.0"
     inkscape:pagecheckerboard="0"
     inkscape:deskcolor="#d1d1d1"
     inkscape:document-units="mm"
     showgrid="false"
     inkscape:zoom="0.81173139"
     inkscape:cx="466.28725"
     inkscape:cy="372.04425"
     inkscape:window-width="1920"
     inkscape:window-height="999"
     inkscape:window-x="0"
     inkscape:window-y="0"
     inkscape:window-maximized="1"
     inkscape:current-layer="svg2599" />
  <defs
     id="defs2603" />
  <g
     id="svgGroup"
     stroke-linecap="round"
     fill-rule="evenodd"
     font-size="12px"
     stroke="#000"
     stroke-width="0.25mm"
     fill="none"
     style="fill:none;stroke:#000000;stroke-width:0.01411111;stroke-dasharray:none"
     transform="translate(-316.61652,-33.488751)" />
  <path
     d="m 1.5835947,310.58219 v 6.69309 h 2.70168 v 7.15777 h -2.70168 v 6.69212 H 14.720045 v -2.93472 h 6.58939 v 2.93472 h 6.58938 v -2.93472 h 6.589387 v 2.93472 h 6.58939 v -2.93472 h 6.589392 v 2.93472 h 6.58938 v -2.93472 h 6.58939 v 2.93472 h 6.58939 v -2.93472 h 6.58938 v 2.93472 h 6.58939 v -2.93472 h 6.58939 v 2.93472 h 6.58938 v -2.93472 h 6.589386 v 2.93472 h 6.58939 v -2.93472 h 6.58939 v 2.93472 h 6.58938 v -2.93472 h 6.58939 v 2.93472 h 6.58939 v -2.93472 h 6.58938 v 2.93472 h 6.58939 v -2.93472 h 6.58938 v 2.93472 h 6.58939 v -2.93472 h 6.58938 v 2.93472 h 6.5894 v -2.93472 h 6.58938 v 2.93472 h 6.5894 v -2.93472 h 6.58937 v 2.93472 h 6.58939 v -2.93472 h 6.58939 v 2.93472 h 6.58939 v -2.93472 h 6.58939 v 2.93472 h 6.58939 6.54615 v -6.69212 h -2.70167 v -7.15777 h 2.70167 v -6.69309 h -13.13554 v 2.93471 h -6.58939 v -2.93471 h -6.59029 v 2.93471 h -6.58939 v -2.93471 h -6.58939 v 2.93471 h -6.58937 v -2.93471 h -6.5894 v 2.93471 h -6.58938 v -2.93471 h -6.5894 v 2.93471 h -6.58938 v -2.93471 h -6.58939 v 2.93471 h -6.58938 v -2.93471 h -6.58939 v 2.93471 h -6.58938 v -2.93471 h -6.58939 v 2.93471 h -6.58939 v -2.93471 h -6.58938 v 2.93471 h -6.58939 v -2.93471 h -6.58939 v 2.93471 h -6.589386 v -2.93471 h -6.58938 v 2.93471 h -6.58939 v -2.93471 h -6.58939 v 2.93471 h -6.58938 v -2.93471 h -6.58939 v 2.93471 h -6.58939 v -2.93471 h -6.58939 v 2.93471 h -6.589382 v -2.93471 h -6.58939 v 2.93471 h -6.589387 v -2.93471 h -6.58938 v 2.93471 h -6.58939 v -2.93471 H 8.1297548 Z"
     id="front_outsideCutPath"
     stroke="#FF0000"
     stroke-width="0.1"
     style="fill:none;stroke:#000000;stroke-width:0.0141111;stroke-dasharray:none;stroke-opacity:1"
     vector-effect="non-scaling-stroke" />
  <path
     d="M 52.015943,6.0183384 V 19.844638 h -2.70087 v 8.73108 h 2.70087 v 8.73109 h -2.70087 v 8.73108 h 2.70087 v 8.73108 h -2.70087 v 8.73108 h 2.70087 v 8.73108 h -2.70087 v 8.731067 h 2.70087 v 8.73109 h -2.70087 v 8.73109 h 2.70087 v 8.731075 h -2.70087 v 8.7311 h 2.70087 v 8.73107 h -2.70087 v 8.73108 h 2.70087 v 8.73109 h -2.70087 v 8.73107 h 2.70087 v 8.73108 h -2.70087 v 8.73108 h 2.70087 v 8.73109 h -2.70087 v 8.73108 h 2.70087 v 8.73107 h -2.70087 v 8.73109 h 2.70087 v 8.73108 h -2.70087 v 8.73107 h 2.70087 v 8.7311 h -2.70087 v 8.73107 h 2.70087 v 8.73109 h -2.70087 v 8.73108 h 2.70087 v 8.73108 h -2.70087 v 8.73107 h 2.70087 v 8.7311 h -2.70087 v 8.73106 h 2.70087 v 8.7311 5.09403 h 10.43166 v 3.57976 h 6.58744 v -3.57976 h 6.58743 v 3.57976 h 6.587437 v -3.57976 h 6.58741 v 3.57976 h 6.587432 v -3.57976 h 6.587438 v 3.57976 h 6.58742 v -3.57976 h 6.58744 v 3.57976 h 6.58741 v -3.57976 h 6.58743 v 3.57976 h 6.58744 v -3.57976 h 6.58742 v 3.57976 h 6.58743 v -3.57976 h 6.58744 v 3.57976 h 6.58741 v -3.57976 h 6.58744 v 3.57976 h 6.58741 v -3.57976 h 6.58745 v 3.57976 h 6.58742 v -3.57976 h 6.58742 v 3.57976 h 6.58743 v -3.57976 h 6.58742 v 3.57976 h 6.58744 v -3.57976 h 6.58743 v 3.57976 h 6.58742 v -3.57976 h 6.58744 v 3.57976 h 6.58743 v -3.57976 h 6.58742 v 3.57976 h 6.58742 v -3.57976 h 6.58745 v 3.57976 h 6.58743 v -3.57976 h 6.58741 3.84334 v -13.82513 h 2.70088 v -8.73106 h -2.70088 v -8.7323 h 2.70088 v -8.73107 h -2.70088 v -8.73108 h 2.70088 v -8.73108 h -2.70088 v -8.73109 h 2.70088 v -8.73106 h -2.70088 v -8.7311 h 2.70088 v -8.73107 h -2.70088 v -8.73108 h 2.70088 v -8.73109 h -2.70088 v -8.73108 h 2.70088 v -8.73107 h -2.70088 v -8.7311 h 2.70088 v -8.73106 h -2.70088 v -8.73109 h 2.70088 v -8.73107 h -2.70088 v -8.7311 h 2.70088 v -8.73107 h -2.70088 v -8.73108 h 2.70088 v -8.73109 h -2.70088 v -8.731075 h 2.70088 v -8.73108 h -2.70088 v -8.73109 h 2.70088 v -8.731077 h -2.70088 v -8.73108 h 2.70088 v -8.73109 h -2.70088 v -8.73108 h 2.70088 v -8.73108 h -2.70088 v -8.73108 h 2.70088 v -8.73108 h -2.70088 V 11.112368 6.0183384 H 266.6579 v -3.57977 h -6.58743 v 3.57977 h -6.58745 v -3.57977 h -6.58742 v 3.57977 h -6.58742 v -3.57977 h -6.58743 v 3.57977 h -6.58744 v -3.57977 h -6.58742 v 3.57977 h -6.58833 v -3.57977 h -6.58742 v 3.57977 h -6.58744 v -3.57977 h -6.58742 v 3.57977 h -6.58743 v -3.57977 h -6.58743 v 3.57977 h -6.58654 v -3.57977 h -6.58741 v 3.57977 h -6.58744 v -3.57977 h -6.58741 v 3.57977 h -6.58744 v -3.57977 h -6.58743 v 3.57977 h -6.58742 v -3.57977 h -6.58744 v 3.57977 h -6.58743 v -3.57977 h -6.58741 v 3.57977 h -6.58834 v -3.57977 h -6.58743 v 3.57977 h -6.587438 v -3.57977 H 88.79641 v 3.57977 h -6.5874 v -3.57977 h -6.587437 v 3.57977 h -6.58743 v -3.57977 h -6.58744 v 3.57977 h -6.58742 z"
     id="bottom_outsideCutPath"
     stroke="#FF0000"
     stroke-width="0.1"
     style="fill:none;stroke:#000000;stroke-width:0.014;stroke-dasharray:none;stroke-opacity:1"
     vector-effect="non-scaling-stroke" />
  <path
     id="rect4365"
     style="fill:none;stroke:#000000;stroke-width:0.0141111;stroke-dasharray:none;stroke-opacity:1"
     d="m 264.00393,12.366108 0.0563,0.14986 c 2e-5,-3.4e-4 -10e-6,-9.3e-4 0,-0.001 l -0.0558,-0.14883 z m 0,0 -91.50811,34.20928 0.002,0.004 v 5.2e-4 37.746537 h 10.09965 V 53.582088 l 81.44205,-30.44569 c -2e-5,-1.7e-4 2e-5,-3.5e-4 0,-5.2e-4 l -0.0527,0.0196 z m 0.0667,10.75748 -10e-4,5.2e-4 c -4e-5,3.4e-4 3e-5,7.3e-4 0,0.001 h 5.1e-4 c 1.6e-4,-4.9e-4 3.4e-4,-7.3e-4 5.2e-4,-0.002 z" />
  <path
     id="path10551"
     style="fill:none;stroke:#000000;stroke-width:0.0141111;stroke-dasharray:none;stroke-opacity:1"
     d="m 66.014772,12.365918 -0.0563,0.14986 c -2e-5,-3.3e-4 1e-5,-9.3e-4 0,-10e-4 l 0.0558,-0.14882 z m 0,0 91.508108,34.20929 -0.002,0.004 v 5.2e-4 37.746537 H 147.42123 V 53.581878 L 65.979182,23.136208 c 2e-5,-1.7e-4 -2e-5,-3.5e-4 0,-5.2e-4 l 0.0527,0.0196 z m -0.0667,10.75748 0.001,5.3e-4 c 4e-5,3.3e-4 -3e-5,7.2e-4 0,9.9e-4 h -5.1e-4 c -1.6e-4,-4.9e-4 -3.4e-4,-7.2e-4 -5.2e-4,-0.002 z" />
  <path
     id="rect10641"
     style="fill:none;stroke:#000000;stroke-width:0.01411111;stroke-dasharray:none;stroke-opacity:1"
     d="m 178.54474,109.02502 v 14.42062 h -27.98489 v -14.42062 z" />
  <path
     id="path10638"
     style="fill:none;stroke:#000000;stroke-width:0.0142157;stroke-dasharray:none;stroke-opacity:1"
     d="m 167.50224,104.39821 a 2.4929034,2.4928992 0 0 1 -2.49286,2.49289 2.4929034,2.4928992 0 0 1 -2.49291,-2.49289 2.4929034,2.4928992 0 0 1 2.49291,-2.49289 2.4929034,2.4928992 0 0 1 2.49286,2.49289 z" />
  <path
     id="path10551-6-2"
     style="fill:none;stroke:#000000;stroke-width:0.0141111;stroke-dasharray:none;stroke-opacity:1"
     d="m 61.952056,125.89569 v 27.47894 h 3.99149 l 81.428094,30.44052 v 30.74438 h 10.09964 v -37.74654 -5.1e-4 l 0.002,-0.004 -88.153784,-32.95509 v -17.95756 z m 3.99304,27.47894 h 0.0372 v 0.0139 z" />
  <path
     id="rect10641-2"
     style="fill:none;stroke:#000000;stroke-width:0.01411111;stroke-dasharray:none;stroke-opacity:1"
     d="M 178.54474,239.25818 V 253.6788 H 150.55985 V 239.25818 Z" />
  <path
     id="path10638-6"
     style="fill:none;stroke:#000000;stroke-width:0.0142157;stroke-dasharray:none;stroke-opacity:1"
     d="m 167.47794,234.63137 a 2.4929034,2.4928992 0 0 1 -2.49286,2.49289 2.4929034,2.4928992 0 0 1 -2.49291,-2.49289 2.4929034,2.4928992 0 0 1 2.49291,-2.49289 2.4929034,2.4928992 0 0 1 2.49286,2.49289 z" />
  <path
     id="path10551-6-6"
     style="fill:none;stroke:#000000;stroke-width:0.0141111;stroke-dasharray:none;stroke-opacity:1"
     d="m 268.01806,125.89565 v 27.47894 h -3.99149 l -81.42811,30.44052 v 30.74438 h -10.09964 v -37.74654 -5.1e-4 l -0.002,-0.004 88.15379,-32.95509 v -17.95756 z m -3.99305,27.47894 h -0.0372 v 0.0139 z" />
  <g
     id="svgGroup-3"
     stroke-linecap="round"
     fill-rule="evenodd"
     font-size="12px"
     stroke="#000"
     stroke-width="0.25mm"
     fill="none"
     style="fill:none;stroke:#000000;stroke-width:0.945;stroke-dasharray:none"
     transform="translate(-384.23096,-408.12684)" />
  <g
     id="layer4"
     transform="matrix(1.0000001,0,0,0.99944638,-4.2001923,-2.9438776)">
    <path
       d="m 7.4647269,306.84176 h 6.6613501 v 3.57943 h 7.12382 v -3.57943 h 6.66038 v -13.82499 h -2.92079 v -8.73026 h 2.92079 v -8.73026 h -2.92079 v -8.73026 h 2.92079 v -8.73025 h -2.92079 v -8.73024 h 2.92079 v -8.73026 h -2.92079 v -8.73026 h 2.92079 v -8.73025 h -2.92079 v -8.73025 h 2.92079 v -8.73025 h -2.92079 v -8.73026 h 2.92079 v -8.73026 h -2.92079 v -8.73025 h 2.92079 v -8.73026 h -2.92079 v -8.73026 h 2.92079 v -8.73024 h -2.92079 v -8.73025 h 2.92079 v -8.73025 h -2.92079 v -8.73026 h 2.92079 v -8.73026 h -2.92079 v -8.73026 h 2.92079 v -8.73024 h -2.92079 v -8.730257 h 2.92079 v -8.73025 h -2.92079 v -8.730256 h 2.92079 v -8.730246 h -2.92079 v -8.730247 h 2.92079 v -8.730248 h -2.92079 v -8.73026 h 2.92079 v -8.73026 h -2.92079 v -8.73025 h 2.92079 v -8.73026 -5.0935397 h -6.66038 v -3.57943 h -7.12382 v 3.57943 H 7.4647269 V 22.378906 h 2.9208001 v 8.73025 H 7.4647269 v 8.73026 h 2.9208001 v 8.73026 H 7.4647269 v 8.731438 h 2.9208001 v 8.730247 H 7.4647269 v 8.730246 h 2.9208001 v 8.730266 H 7.4647269 v 8.73024 h 2.9208001 v 8.730257 H 7.4647269 v 8.73024 h 2.9208001 v 8.72907 H 7.4647269 v 8.73145 h 2.9208001 v 8.73026 H 7.4647269 v 8.73025 h 2.9208001 v 8.73027 H 7.4647269 v 8.73023 h 2.9208001 v 8.73025 H 7.4647269 v 8.72907 h 2.9208001 v 8.73025 H 7.4647269 v 8.73146 h 2.9208001 v 8.73025 H 7.4647269 v 8.73025 h 2.9208001 v 8.73025 H 7.4647269 v 8.73026 h 2.9208001 v 8.73025 H 7.4647269 v 8.73026 h 2.9208001 v 8.73024 H 7.4647269 v 8.73026 h 2.9208001 v 8.73026 H 7.4647269 v 8.73025 h 2.9208001 v 8.73026 H 7.4647269 v 8.73025 z"
       id="right_outsideCutPath"
       stroke="#FF0000"
       stroke-width="0.1"
       style="fill:none;stroke:#000000;stroke-width:0.0141111;stroke-dasharray:none;stroke-opacity:1"
       vector-effect="non-scaling-stroke" />
    <path
       id="rect1345"
       style="fill:none;stroke:#000000;stroke-width:0.01411502;stroke-dasharray:none;stroke-opacity:1"
       d="m 12.523707,106.55575 h 9.983707 v 19.9953 h -9.983707 z" />
    <path
       id="rect1345-3"
       style="fill:none;stroke:#000000;stroke-width:0.01411502;stroke-dasharray:none;stroke-opacity:1"
       d="m 12.536187,237.15506 h 9.983707 v 19.9953 h -9.983707 z" />
    <path
       d="m 29.982028,307.04035 h 6.66135 v 3.57943 h 7.12382 v -3.57943 h 6.66038 v -13.82499 h -2.92079 v -8.73026 h 2.92079 v -8.73026 h -2.92079 v -8.73026 h 2.92079 v -8.73025 h -2.92079 v -8.73024 h 2.92079 v -8.73026 h -2.92079 v -8.73026 h 2.92079 v -8.73025 h -2.92079 v -8.73025 h 2.92079 v -8.73025 h -2.92079 v -8.73026 h 2.92079 v -8.73026 h -2.92079 v -8.73025 h 2.92079 v -8.73026 h -2.92079 v -8.73026 h 2.92079 v -8.73024 h -2.92079 v -8.73025 h 2.92079 v -8.73025 h -2.92079 v -8.73026 h 2.92079 v -8.73026 h -2.92079 v -8.73026 h 2.92079 v -8.73024 h -2.92079 v -8.730254 h 2.92079 v -8.73025 h -2.92079 v -8.73026 h 2.92079 v -8.730248 h -2.92079 v -8.730247 h 2.92079 v -8.730248 h -2.92079 v -8.73026 h 2.92079 v -8.73026 h -2.92079 v -8.73025 h 2.92079 v -8.73026 -5.0935402 h -6.66038 v -3.57943 h -7.12382 v 3.57943 h -6.66135 V 22.577493 h 2.9208 v 8.73025 h -2.9208 v 8.73026 h 2.9208 v 8.73026 h -2.9208 v 8.731438 h 2.9208 v 8.730247 h -2.9208 v 8.730248 h 2.9208 v 8.73027 h -2.9208 v 8.73024 h 2.9208 v 8.730254 h -2.9208 v 8.73024 h 2.9208 v 8.72907 h -2.9208 v 8.73145 h 2.9208 v 8.73026 h -2.9208 v 8.73025 h 2.9208 v 8.73027 h -2.9208 v 8.73023 h 2.9208 v 8.73025 h -2.9208 v 8.72907 h 2.9208 v 8.73025 h -2.9208 v 8.73146 h 2.9208 v 8.73025 h -2.9208 v 8.73025 h 2.9208 v 8.73025 h -2.9208 v 8.73026 h 2.9208 v 8.73025 h -2.9208 v 8.73026 h 2.9208 v 8.73024 h -2.9208 v 8.73026 h 2.9208 v 8.73026 h -2.9208 v 8.73025 h 2.9208 v 8.73026 h -2.9208 v 8.73025 z"
       id="right_outsideCutPath-6"
       stroke="#FF0000"
       stroke-width="0.1"
       style="fill:none;stroke:#000000;stroke-width:0.0141111;stroke-dasharray:none;stroke-opacity:1"
       vector-effect="non-scaling-stroke" />
    <path
       id="rect1345-7"
       style="fill:none;stroke:#000000;stroke-width:0.01411502;stroke-dasharray:none;stroke-opacity:1"
       d="m 35.041008,106.55575 h 9.983707 v 19.9953 h -9.983707 z" />
    <path
       id="rect1345-3-5"
       style="fill:none;stroke:#000000;stroke-width:0.01411502;stroke-dasharray:none;stroke-opacity:1"
       d="m 35.053477,237.15483 h 9.983675 v 19.99575 h -9.983675 z" />
    <path
       id="rect8401"
       style="fill:none;stroke:#000000;stroke-width:0.0141111;stroke-dasharray:none"
       d="m 67.502556,256.71506 v 3.53311 h 19.9533 v 21.19044 L 262.62708,265.8375 v -8.20777 h 4.8581 v 13.79709 l 5.2e-4,0.003 h -5.2e-4 l -199.982624,17.8109 v 10e-4 h -4.5005 v -32.52669 z"
       transform="matrix(0.99999991,0,0,1.0005539,4.2001919,2.9455083)" />
  </g>
</svg>
