<?xml version="1.0" encoding="UTF-8" standalone="no"?>
<svg
   width="143.54907mm"
   height="222.96309mm"
   viewBox="0 0 143.54907 222.96309"
   version="1.1"
   preserveAspectRatio="xMidYMid"
   id="svg1456"
   xmlns="http://www.w3.org/2000/svg"
   xmlns:svg="http://www.w3.org/2000/svg">
  <defs
     id="defs1460" />
  <g
     id="svgGroup"
     stroke-linecap="round"
     fill-rule="evenodd"
     font-size="12px"
     stroke="#000"
     stroke-width="0.25mm"
     fill="none"
     style="fill:none;stroke:#000000;stroke-width:0.25mm"
     transform="translate(2.7942046,1.2792269)">
    <path
       d="M 27.365858,3.0770075e-4 V 14.375307 h 3 v 11.25 h -3 v 11.25 h 3 v 11.25 h -3 v 11.25 h 3 v 11.25 h -3 v 11.25 h 3 v 11.25 h -3 v 11.250003 h 3 v 11.25 h -3 v 11.25 h 3 v 11.25 h -3 v 11.25 h 3 v 11.25 h -3 v 11.25 h 3 v 11.25 h -3 v 11.25 h 3 v 11.25 h -3 v 14.375 h 6.375 v -3 h 11.25 v 3 h 6.375 v -14.375 h -3 v -11.25 h 3 v -11.25 h -3 v -11.25 h 3 v -11.25 h -3 v -11.25 h 3 v -11.25 h -3 v -11.25 h 3 v -11.25 h -3 v -11.25 h 3 V 93.125307 h -3 v -11.25 h 3 v -11.25 h -3 v -11.25 h 3 v -11.25 h -3 v -11.25 h 3 v -11.25 h -3 v -11.25 h 3 V 3.0770075e-4 Z"
       id="front_outsideCutPath"
       stroke="#FF0000"
       stroke-width="0.1"
       style="stroke:#000000;stroke-width:0.01411111;stroke-opacity:1;stroke-dasharray:none"
       vector-effect="non-scaling-stroke" />
    <path
       d="m 0,0 v 14.375 h 3 v 11.25 H 0 v 11.25 h 3 v 11.25 H 0 v 11.25 h 3 v 11.25 H 0 v 11.25 h 3 v 11.25 H 0 v 11.25 h 3 v 11.25 H 0 v 11.25 h 3 v 11.25 H 0 v 11.25 h 3 v 11.25 H 0 v 11.25 h 3 v 11.25 H 0 v 11.25 h 3 v 11.25 H 0 V 220 h 6.375 v -3 h 11.25 v 3 H 24 v -14.375 h -3 v -11.25 h 3 v -11.25 h -3 v -11.25 h 3 v -11.25 h -3 v -11.25 h 3 v -11.25 h -3 v -11.25 h 3 v -11.25 h -3 v -11.25 h 3 v -11.25 h -3 v -11.25 h 3 v -11.25 h -3 v -11.25 h 3 v -11.25 h -3 v -11.25 h 3 v -11.25 h -3 v -11.25 h 3 V 0 Z"
       id="back_outsideCutPath"
       stroke="#FF0000"
       stroke-width="0.1"
       style="stroke:#000000;stroke-width:0.01411111;stroke-opacity:1;stroke-dasharray:none"
       vector-effect="non-scaling-stroke" />
    <path
       id="right_outsideCutPath"
       style="stroke:#000000;stroke-width:0.01411111;stroke-opacity:1;stroke-dasharray:none"
       d="M 55.559856,2.8156354e-4 V 14.375115 h -2.999817 v 11.249959 h 2.999817 V 36.87555 h -2.999817 v 11.249959 h 2.999817 v 11.24996 h -2.999817 v 11.249959 h 2.999817 v 11.249959 h -2.999817 v 11.24996 h 2.999817 v 11.249963 h -2.999817 v 11.24996 h 2.999817 v 11.24995 h -2.999817 v 11.24996 h 2.999817 v 11.24996 h -2.999817 v 11.24996 h 2.999817 v 11.24996 h -2.999817 v 11.25048 h 2.999817 v 11.24996 h -2.999817 v 11.24996 h 2.999817 v 14.37483 H 65.68482 v -2.99103 -0.009 -19.19831 h 33.750394 v 19.2071 h -5.16e-4 v 2.99103 h 10.124962 v -14.37483 h 3.00033 V 194.3755 h -3.00033 v -11.24996 h 3.00033 v -11.25048 h -3.00033 V 160.6251 h 3.00033 v -11.24996 h -3.00033 v -11.24996 h 3.00033 v -11.24996 h -3.00033 v -11.24995 h 3.00033 v -11.24996 h -3.00033 V 93.125347 h 3.00033 v -11.24996 h -3.00033 V 70.625428 h 3.00033 V 59.375469 h -3.00033 v -11.24996 h 3.00033 V 36.87555 h -3.00033 V 25.625074 h 3.00033 V 14.375115 h -3.00033 V 2.8156354e-4 Z" />
    <path
       d="M 117.9303,3.0003077 V 13.125308 h -3 v 11.25 h 3 v 11.25 h -3 v 11.25 h 3 v 10.125 h 3.375 v 3 h 11.25 v -3 h 3.375 v -10.125 h 3 v -11.25 h -3 v -11.25 h 3 v -11.25 h -3 V 3.0003077 h -3.375 V 3.0770075e-4 h -11.25 V 3.0003077 Z"
       id="bottom_outsideCutPath"
       stroke="#FF0000"
       stroke-width="0.1"
       style="stroke:#000000;stroke-width:0.01411111;stroke-opacity:1;stroke-dasharray:none"
       vector-effect="non-scaling-stroke" />
    <path
       id="rect8456"
       style="stroke-width:0.01411111;stroke-dasharray:none;stroke:#000000;stroke-opacity:1"
       d="M 115.34042,63.302715 H 136.3267 V 139.12099 H 115.34042 Z" />
    <path
       id="rect8456-3"
       style="stroke-width:0.01411111;stroke-dasharray:none;stroke:#000000;stroke-opacity:1"
       d="m 115.3404,142.35634 h 20.98627 v 75.81827 H 115.3404 Z" />
  </g>
</svg>
