<?xml version="1.0" encoding="UTF-8" standalone="no"?>
<svg
   width="696mm"
   height="363mm"
   viewBox="0 0 696 363"
   version="1.1"
   preserveAspectRatio="xMidYMid meet"
   id="svg248"
   xmlns="http://www.w3.org/2000/svg"
   xmlns:svg="http://www.w3.org/2000/svg">
  <defs
     id="defs252" />
  <g
     id="svgGroup"
     stroke-linecap="round"
     fill-rule="evenodd"
     font-size="9pt"
     stroke="#000"
     stroke-width="0.25mm"
     fill="none"
     style="stroke:#000;stroke-width:0.25mm;fill:none">
    <path
       d="M 0 313 L 0 326.188 L 3 326.188 L 3 349.813 L 0 349.813 L 0 363 L 21.188 363 L 21.188 360 L 44.813 360 L 44.813 363 L 68.438 363 L 68.438 360 L 92.063 360 L 92.063 363 L 115.688 363 L 115.688 360 L 139.313 360 L 139.313 363 L 162.938 363 L 162.938 360 L 186.563 360 L 186.563 363 L 210.188 363 L 210.188 360 L 233.813 360 L 233.813 363 L 255 363 L 255 349.813 L 252 349.813 L 252 326.188 L 255 326.188 L 255 313 L 233.813 313 L 233.813 316 L 210.188 316 L 210.188 313 L 186.563 313 L 186.563 316 L 162.938 316 L 162.938 313 L 139.313 313 L 139.313 316 L 115.688 316 L 115.688 313 L 92.063 313 L 92.063 316 L 68.438 316 L 68.438 313 L 44.813 313 L 44.813 316 L 21.188 316 L 21.188 313 L 0 313 Z"
       id="front_outsideCutPath"
       stroke="#FF0000"
       stroke-width="0.1"
       style="stroke:#000000;stroke-width:0.01411111;stroke-opacity:1;stroke-dasharray:none"
       vector-effect="non-scaling-stroke" />
    <path
       d="M 261 313 L 261 326.188 L 258 326.188 L 258 349.813 L 261 349.813 L 261 363 L 288.938 363 L 288.938 360 L 312.563 360 L 312.563 363 L 336.188 363 L 336.188 360 L 359.813 360 L 359.813 363 L 383.438 363 L 383.438 360 L 407.063 360 L 407.063 363 L 430.688 363 L 435 363 L 435 349.813 L 438 349.813 L 438 326.188 L 435 326.188 L 435 313 L 407.063 313 L 407.063 316 L 383.438 316 L 383.438 313 L 359.813 313 L 359.813 316 L 336.188 316 L 336.188 313 L 312.563 313 L 312.563 316 L 288.938 316 L 288.938 313 L 265.313 313 L 261 313 Z"
       id="left_outsideCutPath"
       stroke="#FF0000"
       stroke-width="0.1"
       style="stroke:#000000;stroke-width:0.01411111;stroke-opacity:1;stroke-dasharray:none"
       vector-effect="non-scaling-stroke" />
    <path
       d="M 444 186 L 444 213.938 L 441 213.938 L 441 237.563 L 444 237.563 L 444 261.188 L 441 261.188 L 441 284.813 L 444 284.813 L 444 308.438 L 441 308.438 L 441 332.063 L 444 332.063 L 444 355.688 L 444 360 L 462.188 360 L 462.188 363 L 485.813 363 L 485.813 360 L 509.438 360 L 509.438 363 L 533.063 363 L 533.063 360 L 556.688 360 L 556.688 363 L 580.313 363 L 580.313 360 L 603.938 360 L 603.938 363 L 627.563 363 L 627.563 360 L 651.188 360 L 651.188 363 L 674.813 363 L 674.813 360 L 693 360 L 693 332.063 L 696 332.063 L 696 308.438 L 693 308.438 L 693 284.813 L 696 284.813 L 696 261.188 L 693 261.188 L 693 237.563 L 696 237.563 L 696 213.938 L 693 213.938 L 693 190.313 L 693 186 L 674.813 186 L 674.813 183 L 651.188 183 L 651.188 186 L 627.563 186 L 627.563 183 L 603.938 183 L 603.938 186 L 580.313 186 L 580.313 183 L 556.688 183 L 556.688 186 L 533.063 186 L 533.063 183 L 509.438 183 L 509.438 186 L 485.813 186 L 485.813 183 L 462.188 183 L 462.188 186 L 444 186 Z"
       id="top_outsideCutPath"
       stroke="#FF0000"
       stroke-width="0.1"
       style="stroke:#000000;stroke-width:0.01411111;stroke-opacity:1;stroke-dasharray:none"
       vector-effect="non-scaling-stroke" />
    <path
       d="M 0 260 L 0 273.188 L 3 273.188 L 3 296.813 L 0 296.813 L 0 310 L 21.188 310 L 21.188 307 L 44.813 307 L 44.813 310 L 68.438 310 L 68.438 307 L 92.063 307 L 92.063 310 L 115.688 310 L 115.688 307 L 139.313 307 L 139.313 310 L 162.938 310 L 162.938 307 L 186.563 307 L 186.563 310 L 210.188 310 L 210.188 307 L 233.813 307 L 233.813 310 L 255 310 L 255 296.813 L 252 296.813 L 252 273.188 L 255 273.188 L 255 260 L 233.813 260 L 233.813 263 L 210.188 263 L 210.188 260 L 186.563 260 L 186.563 263 L 162.938 263 L 162.938 260 L 139.313 260 L 139.313 263 L 115.688 263 L 115.688 260 L 92.063 260 L 92.063 263 L 68.438 263 L 68.438 260 L 44.813 260 L 44.813 263 L 21.188 263 L 21.188 260 L 0 260 Z"
       id="back_outsideCutPath"
       stroke="#FF0000"
       stroke-width="0.1"
       style="stroke:#000000;stroke-width:0.01411111;stroke-opacity:1;stroke-dasharray:none"
       vector-effect="non-scaling-stroke" />
    <path
       d="M 261 260 L 261 273.188 L 258 273.188 L 258 296.813 L 261 296.813 L 261 310 L 288.938 310 L 288.938 307 L 312.563 307 L 312.563 310 L 336.188 310 L 336.188 307 L 359.813 307 L 359.813 310 L 383.438 310 L 383.438 307 L 407.063 307 L 407.063 310 L 430.688 310 L 435 310 L 435 296.813 L 438 296.813 L 438 273.188 L 435 273.188 L 435 260 L 407.063 260 L 407.063 263 L 383.438 263 L 383.438 260 L 359.813 260 L 359.813 263 L 336.188 263 L 336.188 260 L 312.563 260 L 312.563 263 L 288.938 263 L 288.938 260 L 265.313 260 L 261 260 Z"
       id="right_outsideCutPath"
       stroke="#FF0000"
       stroke-width="0.1"
       style="stroke:#000000;stroke-width:0.01411111;stroke-opacity:1;stroke-dasharray:none"
       vector-effect="non-scaling-stroke" />
    <path
       d="M 444 3 L 444 30.938 L 441 30.938 L 441 54.563 L 444 54.563 L 444 78.188 L 441 78.188 L 441 101.813 L 444 101.813 L 444 125.438 L 441 125.438 L 441 149.063 L 444 149.063 L 444 172.688 L 444 177 L 462.188 177 L 462.188 180 L 485.813 180 L 485.813 177 L 509.438 177 L 509.438 180 L 533.063 180 L 533.063 177 L 556.688 177 L 556.688 180 L 580.313 180 L 580.313 177 L 603.938 177 L 603.938 180 L 627.563 180 L 627.563 177 L 651.188 177 L 651.188 180 L 674.813 180 L 674.813 177 L 693 177 L 693 149.063 L 696 149.063 L 696 125.438 L 693 125.438 L 693 101.813 L 696 101.813 L 696 78.188 L 693 78.188 L 693 54.563 L 696 54.563 L 696 30.938 L 693 30.938 L 693 7.313 L 693 3 L 674.813 3 L 674.813 0 L 651.188 0 L 651.188 3 L 627.563 3 L 627.563 0 L 603.938 0 L 603.938 3 L 580.313 3 L 580.313 0 L 556.688 0 L 556.688 3 L 533.063 3 L 533.063 0 L 509.438 0 L 509.438 3 L 485.813 3 L 485.813 0 L 462.188 0 L 462.188 3 L 444 3 Z"
       id="bottom_outsideCutPath"
       stroke="#FF0000"
       stroke-width="0.1"
       style="stroke:#000000;stroke-width:0.01411111;stroke-opacity:1;stroke-dasharray:none"
       vector-effect="non-scaling-stroke" />
    <path
       id="rect1064"
       style="stroke:#000000;stroke-width:0.01411111;stroke-opacity:1;stroke-dasharray:none"
       d="M 517.79106,34.981477 H 619.20893 V 52.61738 H 517.79106 Z" />
    <path
       id="rect1064-3"
       style="fill:none;stroke:#000000;stroke-width:0.01411111;stroke-opacity:1;stroke-dasharray:none"
       d="m 307.49707,278.44008 h 81.00586 v 13.11985 h -81.00586 z" />
    <path
       id="rect1064-3-7"
       style="fill:none;stroke:#000000;stroke-width:0.01411111;stroke-opacity:1;stroke-dasharray:none"
       d="M 65.948653,278.44094 H 189.05135 v 13.11813 H 65.948653 Z" />
    <path
       id="rect1064-3-6"
       style="fill:none;stroke:#000000;stroke-width:0.01411111;stroke-opacity:1;stroke-dasharray:none"
       d="m 307.49707,331.44008 h 81.00586 v 13.11985 h -81.00586 z" />
  </g>
</svg>
