solid Pin Base
facet normal 0.0 0.0 1.0
outer loop
vertex 16.0 0.0 8.0
vertex 12.0 4.0 8.0
vertex 12.0 0.0 8.0
endloop
endfacet
facet normal 0.0 0.0 1.0
outer loop
vertex 12.0 4.0 8.0
vertex 16.0 0.0 8.0
vertex 16.0 4.0 8.0
endloop
endfacet
facet normal 1.0 0.0 0.0
outer loop
vertex 16.0 4.0 0.0
vertex 16.0 0.0 8.0
vertex 16.0 0.0 0.0
endloop
endfacet
facet normal 1.0 0.0 0.0
outer loop
vertex 16.0 0.0 8.0
vertex 16.0 4.0 0.0
vertex 16.0 4.0 8.0
endloop
endfacet
facet normal -0.0 -1.0 -0.0
outer loop
vertex 16.0 0.0 8.0
vertex 12.0 0.0 0.0
vertex 16.0 0.0 0.0
endloop
endfacet
facet normal -0.0 -1.0 -0.0
outer loop
vertex 12.0 0.0 0.0
vertex 16.0 0.0 8.0
vertex 12.0 0.0 8.0
endloop
endfacet
facet normal -1.0 0.0 0.0
outer loop
vertex 12.0 4.0 8.0
vertex 12.0 0.0 0.0
vertex 12.0 0.0 8.0
endloop
endfacet
facet normal -1.0 0.0 0.0
outer loop
vertex 12.0 0.0 0.0
vertex 12.0 4.0 8.0
vertex 12.0 4.0 0.0
endloop
endfacet
facet normal 0.0 1.0 0.0
outer loop
vertex 12.0 4.0 8.0
vertex 16.0 4.0 0.0
vertex 12.0 4.0 0.0
endloop
endfacet
facet normal 0.0 1.0 0.0
outer loop
vertex 16.0 4.0 0.0
vertex 12.0 4.0 8.0
vertex 16.0 4.0 8.0
endloop
endfacet
facet normal 0.0 0.0 -1.0
outer loop
vertex 16.0 4.0 0.0
vertex 12.0 0.0 0.0
vertex 12.0 4.0 0.0
endloop
endfacet
facet normal 0.0 0.0 -1.0
outer loop
vertex 12.0 0.0 0.0
vertex 16.0 4.0 0.0
vertex 16.0 0.0 0.0
endloop
endfacet
facet normal 0.0 0.0 1.0
outer loop
vertex 10.0 0.0 8.0
vertex 6.0 4.0 8.0
vertex 6.0 0.0 8.0
endloop
endfacet
facet normal 0.0 0.0 1.0
outer loop
vertex 6.0 4.0 8.0
vertex 10.0 0.0 8.0
vertex 10.0 4.0 8.0
endloop
endfacet
facet normal 1.0 0.0 0.0
outer loop
vertex 10.0 4.0 0.0
vertex 10.0 0.0 8.0
vertex 10.0 0.0 0.0
endloop
endfacet
facet normal 1.0 0.0 0.0
outer loop
vertex 10.0 0.0 8.0
vertex 10.0 4.0 0.0
vertex 10.0 4.0 8.0
endloop
endfacet
facet normal -0.0 -1.0 -0.0
outer loop
vertex 10.0 0.0 8.0
vertex 6.0 0.0 0.0
vertex 10.0 0.0 0.0
endloop
endfacet
facet normal -0.0 -1.0 -0.0
outer loop
vertex 6.0 0.0 0.0
vertex 10.0 0.0 8.0
vertex 6.0 0.0 8.0
endloop
endfacet
facet normal -1.0 0.0 0.0
outer loop
vertex 6.0 4.0 8.0
vertex 6.0 0.0 0.0
vertex 6.0 0.0 8.0
endloop
endfacet
facet normal -1.0 0.0 0.0
outer loop
vertex 6.0 0.0 0.0
vertex 6.0 4.0 8.0
vertex 6.0 4.0 0.0
endloop
endfacet
facet normal 0.0 1.0 0.0
outer loop
vertex 6.0 4.0 8.0
vertex 10.0 4.0 0.0
vertex 6.0 4.0 0.0
endloop
endfacet
facet normal 0.0 1.0 0.0
outer loop
vertex 10.0 4.0 0.0
vertex 6.0 4.0 8.0
vertex 10.0 4.0 8.0
endloop
endfacet
facet normal 0.0 0.0 -1.0
outer loop
vertex 10.0 4.0 0.0
vertex 6.0 0.0 0.0
vertex 6.0 4.0 0.0
endloop
endfacet
facet normal 0.0 0.0 -1.0
outer loop
vertex 6.0 0.0 0.0
vertex 10.0 4.0 0.0
vertex 10.0 0.0 0.0
endloop
endfacet
facet normal 0.0 0.0 1.0
outer loop
vertex 22.0 0.0 8.0
vertex 18.0 4.0 8.0
vertex 18.0 0.0 8.0
endloop
endfacet
facet normal 0.0 0.0 1.0
outer loop
vertex 18.0 4.0 8.0
vertex 22.0 0.0 8.0
vertex 22.0 4.0 8.0
endloop
endfacet
facet normal 1.0 0.0 0.0
outer loop
vertex 22.0 4.0 0.0
vertex 22.0 0.0 8.0
vertex 22.0 0.0 0.0
endloop
endfacet
facet normal 1.0 0.0 0.0
outer loop
vertex 22.0 0.0 8.0
vertex 22.0 4.0 0.0
vertex 22.0 4.0 8.0
endloop
endfacet
facet normal -0.0 -1.0 -0.0
outer loop
vertex 22.0 0.0 8.0
vertex 18.0 0.0 0.0
vertex 22.0 0.0 0.0
endloop
endfacet
facet normal -0.0 -1.0 -0.0
outer loop
vertex 18.0 0.0 0.0
vertex 22.0 0.0 8.0
vertex 18.0 0.0 8.0
endloop
endfacet
facet normal -1.0 0.0 0.0
outer loop
vertex 18.0 4.0 8.0
vertex 18.0 0.0 0.0
vertex 18.0 0.0 8.0
endloop
endfacet
facet normal -1.0 0.0 0.0
outer loop
vertex 18.0 0.0 0.0
vertex 18.0 4.0 8.0
vertex 18.0 4.0 0.0
endloop
endfacet
facet normal 0.0 1.0 0.0
outer loop
vertex 18.0 4.0 8.0
vertex 22.0 4.0 0.0
vertex 18.0 4.0 0.0
endloop
endfacet
facet normal 0.0 1.0 0.0
outer loop
vertex 22.0 4.0 0.0
vertex 18.0 4.0 8.0
vertex 22.0 4.0 8.0
endloop
endfacet
facet normal 0.0 0.0 -1.0
outer loop
vertex 22.0 4.0 0.0
vertex 18.0 0.0 0.0
vertex 18.0 4.0 0.0
endloop
endfacet
facet normal 0.0 0.0 -1.0
outer loop
vertex 18.0 0.0 0.0
vertex 22.0 4.0 0.0
vertex 22.0 0.0 0.0
endloop
endfacet
facet normal 0.0 0.0 1.0
outer loop
vertex 4.0 0.0 8.0
vertex 0.0 4.0 8.0
vertex 0.0 0.0 8.0
endloop
endfacet
facet normal 0.0 0.0 1.0
outer loop
vertex 0.0 4.0 8.0
vertex 4.0 0.0 8.0
vertex 4.0 4.0 8.0
endloop
endfacet
facet normal 1.0 0.0 0.0
outer loop
vertex 4.0 4.0 0.0
vertex 4.0 0.0 8.0
vertex 4.0 0.0 0.0
endloop
endfacet
facet normal 1.0 0.0 0.0
outer loop
vertex 4.0 0.0 8.0
vertex 4.0 4.0 0.0
vertex 4.0 4.0 8.0
endloop
endfacet
facet normal -0.0 -1.0 -0.0
outer loop
vertex 4.0 0.0 8.0
vertex 0.0 0.0 0.0
vertex 4.0 0.0 0.0
endloop
endfacet
facet normal -0.0 -1.0 -0.0
outer loop
vertex 0.0 0.0 0.0
vertex 4.0 0.0 8.0
vertex 0.0 0.0 8.0
endloop
endfacet
facet normal -1.0 0.0 0.0
outer loop
vertex 0.0 4.0 8.0
vertex 0.0 0.0 0.0
vertex 0.0 0.0 8.0
endloop
endfacet
facet normal -1.0 0.0 0.0
outer loop
vertex 0.0 0.0 0.0
vertex 0.0 4.0 8.0
vertex 0.0 4.0 0.0
endloop
endfacet
facet normal 0.0 1.0 0.0
outer loop
vertex 0.0 4.0 8.0
vertex 4.0 4.0 0.0
vertex 0.0 4.0 0.0
endloop
endfacet
facet normal 0.0 1.0 0.0
outer loop
vertex 4.0 4.0 0.0
vertex 0.0 4.0 8.0
vertex 4.0 4.0 8.0
endloop
endfacet
facet normal 0.0 0.0 -1.0
outer loop
vertex 4.0 4.0 0.0
vertex 0.0 0.0 0.0
vertex 0.0 4.0 0.0
endloop
endfacet
facet normal 0.0 0.0 -1.0
outer loop
vertex 0.0 0.0 0.0
vertex 4.0 4.0 0.0
vertex 4.0 0.0 0.0
endloop
endfacet
endsolid Pin Base
