solid Piston
facet normal 0.0 0.0 1.0
outer loop
vertex 5.48298143493905 4.3 23.0
vertex -4.94974746830583 4.94974746830583 23.0
vertex -5.48298143493904 4.3 23.0
endloop
endfacet
facet normal 0.0 0.0 1.0
outer loop
vertex -4.94974746830583 4.94974746830583 23.0
vertex 5.48298143493905 4.3 23.0
vertex -3.88899163113721 5.82028728611781 23.0
endloop
endfacet
facet normal 0.0 0.0 1.0
outer loop
vertex -3.88899163113721 5.82028728611781 23.0
vertex 5.48298143493905 4.3 23.0
vertex -2.67878402655563 6.46715672757901 23.0
endloop
endfacet
facet normal 0.0 0.0 1.0
outer loop
vertex -2.67878402655563 6.46715672757901 23.0
vertex 5.48298143493905 4.3 23.0
vertex -1.36563225411289 6.86549696282262 23.0
endloop
endfacet
facet normal 0.0 0.0 1.0
outer loop
vertex -1.36563225411289 6.86549696282262 23.0
vertex 5.48298143493905 4.3 23.0
vertex 0.0 7.00000000000001 23.0
endloop
endfacet
facet normal 0.0 0.0 1.0
outer loop
vertex 0.0 7.00000000000001 23.0
vertex 5.48298143493905 4.3 23.0
vertex 1.36563225411289 6.86549696282262 23.0
endloop
endfacet
facet normal 0.0 0.0 1.0
outer loop
vertex 1.36563225411289 6.86549696282262 23.0
vertex 5.48298143493905 4.3 23.0
vertex 2.67878402655563 6.46715672757901 23.0
endloop
endfacet
facet normal 0.0 0.0 1.0
outer loop
vertex 2.67878402655563 6.46715672757901 23.0
vertex 5.48298143493905 4.3 23.0
vertex 3.88899163113721 5.82028728611781 23.0
endloop
endfacet
facet normal 0.0 0.0 1.0
outer loop
vertex 3.88899163113721 5.82028728611781 23.0
vertex 5.48298143493905 4.3 23.0
vertex 4.94974746830585 4.94974746830583 23.0
endloop
endfacet
facet normal 0.707106781186548 0.707106781186547 1.38882977628557e-17
outer loop
vertex 4.94974746830585 4.94974746830583 0.0
vertex 5.82028728611781 3.88899163113721 11.0
vertex 5.82028728611781 3.88899163113721 0.0
endloop
endfacet
facet normal 0.831469612302545 0.555570233019602 1.38882977628556e-17
outer loop
vertex 5.82028728611781 3.88899163113721 11.0
vertex 4.94974746830585 4.94974746830583 0.0
vertex 5.48298143493905 4.3 11.0
endloop
endfacet
facet normal 0.773010453362744 0.634393284163637 2.76428436261392e-17
outer loop
vertex 5.48298143493905 4.3 11.0
vertex 4.94974746830585 4.94974746830583 0.0
vertex 5.48298143493905 4.3 23.0
endloop
endfacet
facet normal 0.773010453362744 0.634393284163637 2.76428436261392e-17
outer loop
vertex 5.48298143493905 4.3 23.0
vertex 4.94974746830585 4.94974746830583 0.0
vertex 4.94974746830585 4.94974746830583 23.0
endloop
endfacet
facet normal 0.831469612302545 0.555570233019602 1.38882977628556e-17
outer loop
vertex 5.82028728611781 3.88899163113721 0.0
vertex 6.46715672757902 2.67878402655563 11.0
vertex 6.46715672757902 2.67878402655563 0.0
endloop
endfacet
facet normal 0.923879532511285 0.382683432365094 0.0
outer loop
vertex 6.46715672757902 2.67878402655563 11.0
vertex 5.82028728611781 3.88899163113721 0.0
vertex 5.82028728611781 3.88899163113721 11.0
endloop
endfacet
facet normal 2.75132298932478e-31 2.2314877701436e-31 -1.0
outer loop
vertex -6.86549696282261 1.36563225411291 0.0
vertex -6.86549696282261 -1.36563225411289 0.0
vertex -7.0 0.0 0.0
endloop
endfacet
facet normal 2.75132298932478e-31 2.2314877701436e-31 -1.0
outer loop
vertex -6.86549696282261 -1.36563225411289 0.0
vertex -6.86549696282261 1.36563225411291 0.0
vertex -6.46715672757901 2.67878402655563 0.0
endloop
endfacet
facet normal 2.75132298932478e-31 2.2314877701436e-31 -1.0
outer loop
vertex -6.86549696282261 -1.36563225411289 0.0
vertex -6.46715672757901 2.67878402655563 0.0
vertex -6.46715672757901 -2.67878402655563 0.0
endloop
endfacet
facet normal 2.75132298932478e-31 2.2314877701436e-31 -1.0
outer loop
vertex -6.46715672757901 -2.67878402655563 0.0
vertex -6.46715672757901 2.67878402655563 0.0
vertex -5.82028728611781 3.88899163113721 0.0
endloop
endfacet
facet normal 2.75132298932478e-31 2.2314877701436e-31 -1.0
outer loop
vertex -6.46715672757901 -2.67878402655563 0.0
vertex -5.82028728611781 3.88899163113721 0.0
vertex -5.82028728611781 -3.88899163113721 0.0
endloop
endfacet
facet normal 2.75132298932478e-31 2.2314877701436e-31 -1.0
outer loop
vertex -5.82028728611781 -3.88899163113721 0.0
vertex -5.82028728611781 3.88899163113721 0.0
vertex -4.94974746830583 4.94974746830583 0.0
endloop
endfacet
facet normal 2.75132298932478e-31 2.2314877701436e-31 -1.0
outer loop
vertex -5.82028728611781 -3.88899163113721 0.0
vertex -4.94974746830583 4.94974746830583 0.0
vertex -4.94974746830583 -4.94974746830583 0.0
endloop
endfacet
facet normal 2.75132298932478e-31 2.2314877701436e-31 -1.0
outer loop
vertex -4.94974746830583 -4.94974746830583 0.0
vertex -4.94974746830583 4.94974746830583 0.0
vertex -3.88899163113721 5.82028728611781 0.0
endloop
endfacet
facet normal 2.75132298932478e-31 2.2314877701436e-31 -1.0
outer loop
vertex -4.94974746830583 -4.94974746830583 0.0
vertex -3.88899163113721 5.82028728611781 0.0
vertex -3.88899163113721 -5.82028728611781 0.0
endloop
endfacet
facet normal 2.75132298932478e-31 2.2314877701436e-31 -1.0
outer loop
vertex -3.88899163113721 -5.82028728611781 0.0
vertex -3.88899163113721 5.82028728611781 0.0
vertex -2.67878402655563 6.46715672757901 0.0
endloop
endfacet
facet normal 2.75132298932478e-31 2.2314877701436e-31 -1.0
outer loop
vertex -3.88899163113721 -5.82028728611781 0.0
vertex -2.67878402655563 6.46715672757901 0.0
vertex -2.67878402655563 -6.46715672757901 0.0
endloop
endfacet
facet normal 2.75132298932478e-31 2.2314877701436e-31 -1.0
outer loop
vertex -2.67878402655563 -6.46715672757901 0.0
vertex -2.67878402655563 6.46715672757901 0.0
vertex -1.36563225411289 6.86549696282262 0.0
endloop
endfacet
facet normal 2.75132298932478e-31 2.2314877701436e-31 -1.0
outer loop
vertex -2.67878402655563 -6.46715672757901 0.0
vertex -1.36563225411289 6.86549696282262 0.0
vertex -1.36563225411289 -6.86549696282261 0.0
endloop
endfacet
facet normal 2.75132298932478e-31 2.2314877701436e-31 -1.0
outer loop
vertex -1.36563225411289 -6.86549696282261 0.0
vertex -1.36563225411289 6.86549696282262 0.0
vertex 0.0 7.00000000000001 0.0
endloop
endfacet
facet normal 2.75132298932478e-31 2.2314877701436e-31 -1.0
outer loop
vertex -1.36563225411289 -6.86549696282261 0.0
vertex 0.0 7.00000000000001 0.0
vertex 0.0 -7.0 0.0
endloop
endfacet
facet normal 2.75132298932478e-31 2.2314877701436e-31 -1.0
outer loop
vertex 0.0 -7.0 0.0
vertex 0.0 7.00000000000001 0.0
vertex 1.36563225411289 6.86549696282262 0.0
endloop
endfacet
facet normal 2.75132298932478e-31 2.2314877701436e-31 -1.0
outer loop
vertex 0.0 -7.0 0.0
vertex 1.36563225411289 6.86549696282262 0.0
vertex 1.36563225411289 -6.86549696282261 0.0
endloop
endfacet
facet normal 2.75132298932478e-31 2.2314877701436e-31 -1.0
outer loop
vertex 1.36563225411289 -6.86549696282261 0.0
vertex 1.36563225411289 6.86549696282262 0.0
vertex 2.67878402655563 6.46715672757901 0.0
endloop
endfacet
facet normal 2.75132298932478e-31 2.2314877701436e-31 -1.0
outer loop
vertex 1.36563225411289 -6.86549696282261 0.0
vertex 2.67878402655563 6.46715672757901 0.0
vertex 2.67878402655563 -6.46715672757901 0.0
endloop
endfacet
facet normal 2.75132298932478e-31 2.2314877701436e-31 -1.0
outer loop
vertex 2.67878402655563 -6.46715672757901 0.0
vertex 2.67878402655563 6.46715672757901 0.0
vertex 3.88899163113721 5.82028728611781 0.0
endloop
endfacet
facet normal 2.75132298932478e-31 2.2314877701436e-31 -1.0
outer loop
vertex 2.67878402655563 -6.46715672757901 0.0
vertex 3.88899163113721 5.82028728611781 0.0
vertex 3.88899163113721 -5.82028728611781 0.0
endloop
endfacet
facet normal 2.75132298932478e-31 2.2314877701436e-31 -1.0
outer loop
vertex 3.88899163113721 -5.82028728611781 0.0
vertex 3.88899163113721 5.82028728611781 0.0
vertex 4.94974746830585 4.94974746830583 0.0
endloop
endfacet
facet normal 2.75132298932478e-31 2.2314877701436e-31 -1.0
outer loop
vertex 3.88899163113721 -5.82028728611781 0.0
vertex 4.94974746830585 4.94974746830583 0.0
vertex 4.94974746830585 -4.94974746830583 0.0
endloop
endfacet
facet normal 2.75132298932478e-31 2.2314877701436e-31 -1.0
outer loop
vertex 4.94974746830585 -4.94974746830583 0.0
vertex 4.94974746830585 4.94974746830583 0.0
vertex 5.82028728611781 3.88899163113721 0.0
endloop
endfacet
facet normal 2.75132298932478e-31 2.2314877701436e-31 -1.0
outer loop
vertex 4.94974746830585 -4.94974746830583 0.0
vertex 5.82028728611781 3.88899163113721 0.0
vertex 5.82028728611781 -3.88899163113721 0.0
endloop
endfacet
facet normal 2.75132298932478e-31 2.2314877701436e-31 -1.0
outer loop
vertex 5.82028728611781 -3.88899163113721 0.0
vertex 5.82028728611781 3.88899163113721 0.0
vertex 6.46715672757902 2.67878402655563 0.0
endloop
endfacet
facet normal 2.75132298932478e-31 2.2314877701436e-31 -1.0
outer loop
vertex 5.82028728611781 -3.88899163113721 0.0
vertex 6.46715672757902 2.67878402655563 0.0
vertex 6.46715672757902 -2.67878402655562 0.0
endloop
endfacet
facet normal 2.75132298932478e-31 2.2314877701436e-31 -1.0
outer loop
vertex 6.46715672757902 -2.67878402655562 0.0
vertex 6.46715672757902 2.67878402655563 0.0
vertex 6.86549696282262 1.36563225411291 0.0
endloop
endfacet
facet normal 2.75132298932478e-31 2.2314877701436e-31 -1.0
outer loop
vertex 6.46715672757902 -2.67878402655562 0.0
vertex 6.86549696282262 1.36563225411291 0.0
vertex 6.86549696282262 -1.36563225411289 0.0
endloop
endfacet
facet normal 2.75132298932478e-31 2.2314877701436e-31 -1.0
outer loop
vertex 6.86549696282262 -1.36563225411289 0.0
vertex 6.86549696282262 1.36563225411291 0.0
vertex 7.00000000000001 0.0 0.0
endloop
endfacet
facet normal 0.195090322016131 0.98078528040323 0.0
outer loop
vertex 1.36563225411289 6.86549696282262 23.0
vertex 2.67878402655563 6.46715672757901 0.0
vertex 1.36563225411289 6.86549696282262 0.0
endloop
endfacet
facet normal 0.382683432365094 0.923879532511285 1.11973376777453e-33
outer loop
vertex 2.67878402655563 6.46715672757901 0.0
vertex 1.36563225411289 6.86549696282262 23.0
vertex 2.67878402655563 6.46715672757901 23.0
endloop
endfacet
facet normal 0.382683432365094 0.923879532511285 1.11973376777453e-33
outer loop
vertex 2.67878402655563 6.46715672757901 23.0
vertex 3.88899163113721 5.82028728611781 0.0
vertex 2.67878402655563 6.46715672757901 0.0
endloop
endfacet
facet normal 0.5555702330196 0.831469612302547 1.11973376777453e-33
outer loop
vertex 3.88899163113721 5.82028728611781 0.0
vertex 2.67878402655563 6.46715672757901 23.0
vertex 3.88899163113721 5.82028728611781 23.0
endloop
endfacet
facet normal 0.5555702330196 0.831469612302547 1.11973376777453e-33
outer loop
vertex 3.88899163113721 5.82028728611781 23.0
vertex 4.94974746830585 4.94974746830583 0.0
vertex 3.88899163113721 5.82028728611781 0.0
endloop
endfacet
facet normal 0.707106781186548 0.707106781186547 1.38882977628557e-17
outer loop
vertex 4.94974746830585 4.94974746830583 0.0
vertex 3.88899163113721 5.82028728611781 23.0
vertex 4.94974746830585 4.94974746830583 23.0
endloop
endfacet
facet normal 0.0 0.0 1.0
outer loop
vertex -6.86549696282261 -1.36563225411289 11.0
vertex -6.86549696282261 1.36563225411291 11.0
vertex -7.0 0.0 11.0
endloop
endfacet
facet normal 0.0 0.0 1.0
outer loop
vertex -6.86549696282261 1.36563225411291 11.0
vertex -6.86549696282261 -1.36563225411289 11.0
vertex -6.46715672757901 -2.67878402655563 11.0
endloop
endfacet
facet normal 0.0 0.0 1.0
outer loop
vertex -6.86549696282261 1.36563225411291 11.0
vertex -6.46715672757901 -2.67878402655563 11.0
vertex -6.46715672757901 2.67878402655563 11.0
endloop
endfacet
facet normal 0.0 0.0 1.0
outer loop
vertex -6.46715672757901 2.67878402655563 11.0
vertex -6.46715672757901 -2.67878402655563 11.0
vertex -5.82028728611781 -3.88899163113721 11.0
endloop
endfacet
facet normal 0.0 0.0 1.0
outer loop
vertex -6.46715672757901 2.67878402655563 11.0
vertex -5.82028728611781 -3.88899163113721 11.0
vertex -5.82028728611781 3.88899163113721 11.0
endloop
endfacet
facet normal 0.0 0.0 1.0
outer loop
vertex -5.82028728611781 3.88899163113721 11.0
vertex -5.82028728611781 -3.88899163113721 11.0
vertex -5.48298143493904 -4.29999999999999 11.0
endloop
endfacet
facet normal 0.0 0.0 1.0
outer loop
vertex -5.82028728611781 3.88899163113721 11.0
vertex -5.48298143493904 -4.29999999999999 11.0
vertex -5.48298143493904 4.3 11.0
endloop
endfacet
facet normal 0.0 0.0 1.0
outer loop
vertex -5.48298143493904 4.3 11.0
vertex -5.48298143493904 -4.29999999999999 11.0
vertex 5.48298143493905 -4.29999999999999 11.0
endloop
endfacet
facet normal 0.0 0.0 1.0
outer loop
vertex -5.48298143493904 4.3 11.0
vertex 5.48298143493905 -4.29999999999999 11.0
vertex 5.48298143493905 4.3 11.0
endloop
endfacet
facet normal 0.0 0.0 1.0
outer loop
vertex 5.48298143493905 4.3 11.0
vertex 5.48298143493905 -4.29999999999999 11.0
vertex 5.82028728611781 -3.88899163113721 11.0
endloop
endfacet
facet normal 0.0 0.0 1.0
outer loop
vertex 5.48298143493905 4.3 11.0
vertex 5.82028728611781 -3.88899163113721 11.0
vertex 5.82028728611781 3.88899163113721 11.0
endloop
endfacet
facet normal 0.0 0.0 1.0
outer loop
vertex 5.82028728611781 3.88899163113721 11.0
vertex 5.82028728611781 -3.88899163113721 11.0
vertex 6.46715672757902 -2.67878402655562 11.0
endloop
endfacet
facet normal 0.0 0.0 1.0
outer loop
vertex 5.82028728611781 3.88899163113721 11.0
vertex 6.46715672757902 -2.67878402655562 11.0
vertex 6.46715672757902 2.67878402655563 11.0
endloop
endfacet
facet normal 0.0 0.0 1.0
outer loop
vertex 6.46715672757902 2.67878402655563 11.0
vertex 6.46715672757902 -2.67878402655562 11.0
vertex 6.86549696282262 -1.36563225411289 11.0
endloop
endfacet
facet normal 0.0 0.0 1.0
outer loop
vertex 6.46715672757902 2.67878402655563 11.0
vertex 6.86549696282262 -1.36563225411289 11.0
vertex 6.86549696282262 1.36563225411291 11.0
endloop
endfacet
facet normal 0.0 0.0 1.0
outer loop
vertex 6.86549696282262 1.36563225411291 11.0
vertex 6.86549696282262 -1.36563225411289 11.0
vertex 7.00000000000001 0.0 11.0
endloop
endfacet
facet normal 0.923879532511285 0.382683432365094 0.0
outer loop
vertex 6.46715672757902 2.67878402655563 0.0
vertex 6.86549696282262 1.36563225411291 11.0
vertex 6.86549696282262 1.36563225411291 0.0
endloop
endfacet
facet normal 0.98078528040323 0.195090322016128 0.0
outer loop
vertex 6.86549696282262 1.36563225411291 11.0
vertex 6.46715672757902 2.67878402655563 0.0
vertex 6.46715672757902 2.67878402655563 11.0
endloop
endfacet
facet normal 0.98078528040323 0.195090322016128 0.0
outer loop
vertex 6.86549696282262 1.36563225411291 0.0
vertex 7.00000000000001 0.0 11.0
vertex 7.00000000000001 0.0 0.0
endloop
endfacet
facet normal 1.0 -3.99493003185824e-16 0.0
outer loop
vertex 7.00000000000001 0.0 11.0
vertex 6.86549696282262 1.36563225411291 0.0
vertex 6.86549696282262 1.36563225411291 11.0
endloop
endfacet
facet normal 1.0 -3.99493003185824e-16 0.0
outer loop
vertex 7.00000000000001 0.0 0.0
vertex 6.86549696282262 -1.36563225411289 11.0
vertex 6.86549696282262 -1.36563225411289 0.0
endloop
endfacet
facet normal 0.98078528040323 -0.195090322016128 0.0
outer loop
vertex 6.86549696282262 -1.36563225411289 11.0
vertex 7.00000000000001 0.0 0.0
vertex 7.00000000000001 0.0 11.0
endloop
endfacet
facet normal 0.98078528040323 -0.195090322016128 0.0
outer loop
vertex 6.86549696282262 -1.36563225411289 0.0
vertex 6.46715672757902 -2.67878402655562 11.0
vertex 6.46715672757902 -2.67878402655562 0.0
endloop
endfacet
facet normal 0.923879532511286 -0.382683432365093 0.0
outer loop
vertex 6.46715672757902 -2.67878402655562 11.0
vertex 6.86549696282262 -1.36563225411289 0.0
vertex 6.86549696282262 -1.36563225411289 11.0
endloop
endfacet
facet normal 0.923879532511286 -0.382683432365093 0.0
outer loop
vertex 6.46715672757902 -2.67878402655562 0.0
vertex 5.82028728611781 -3.88899163113721 11.0
vertex 5.82028728611781 -3.88899163113721 0.0
endloop
endfacet
facet normal 0.831469612302547 -0.5555702330196 8.27387951829694e-17
outer loop
vertex 5.82028728611781 -3.88899163113721 11.0
vertex 6.46715672757902 -2.67878402655562 0.0
vertex 6.46715672757902 -2.67878402655562 11.0
endloop
endfacet
facet normal 0.831469612302547 -0.5555702330196 8.27387951829694e-17
outer loop
vertex 5.82028728611781 -3.88899163113721 0.0
vertex 4.94974746830585 -4.94974746830583 23.0
vertex 4.94974746830585 -4.94974746830583 0.0
endloop
endfacet
facet normal 0.707106781186549 -0.707106781186547 8.27387951829695e-17
outer loop
vertex 4.94974746830585 -4.94974746830583 23.0
vertex 5.82028728611781 -3.88899163113721 0.0
vertex 5.48298143493905 -4.29999999999999 11.0
endloop
endfacet
facet normal 0.773010453362745 -0.634393284163636 1.64680770538701e-16
outer loop
vertex 5.48298143493905 -4.29999999999999 11.0
vertex 5.82028728611781 -3.88899163113721 0.0
vertex 5.82028728611781 -3.88899163113721 11.0
endloop
endfacet
facet normal 0.773010453362745 -0.634393284163636 1.64680770538701e-16
outer loop
vertex 5.48298143493905 -4.29999999999999 23.0
vertex 4.94974746830585 -4.94974746830583 23.0
vertex 5.48298143493905 -4.29999999999999 11.0
endloop
endfacet
facet normal 0.707106781186549 -0.707106781186547 8.27387951829695e-17
outer loop
vertex 4.94974746830585 -4.94974746830583 23.0
vertex 3.88899163113721 -5.82028728611781 0.0
vertex 4.94974746830585 -4.94974746830583 0.0
endloop
endfacet
facet normal 0.5555702330196 -0.831469612302547 1.11973376777453e-33
outer loop
vertex 3.88899163113721 -5.82028728611781 0.0
vertex 4.94974746830585 -4.94974746830583 23.0
vertex 3.88899163113721 -5.82028728611781 23.0
endloop
endfacet
facet normal 0.5555702330196 -0.831469612302547 1.11973376777453e-33
outer loop
vertex 3.88899163113721 -5.82028728611781 23.0
vertex 2.67878402655563 -6.46715672757901 0.0
vertex 3.88899163113721 -5.82028728611781 0.0
endloop
endfacet
facet normal 0.38268343236509 -0.923879532511287 1.11973376777453e-33
outer loop
vertex 2.67878402655563 -6.46715672757901 0.0
vertex 3.88899163113721 -5.82028728611781 23.0
vertex 2.67878402655563 -6.46715672757901 23.0
endloop
endfacet
facet normal 0.38268343236509 -0.923879532511287 1.11973376777453e-33
outer loop
vertex 2.67878402655563 -6.46715672757901 23.0
vertex 1.36563225411289 -6.86549696282261 0.0
vertex 2.67878402655563 -6.46715672757901 0.0
endloop
endfacet
facet normal 0.195090322016127 -0.980785280403231 0.0
outer loop
vertex 1.36563225411289 -6.86549696282261 0.0
vertex 2.67878402655563 -6.46715672757901 23.0
vertex 1.36563225411289 -6.86549696282261 23.0
endloop
endfacet
facet normal 0.195090322016127 -0.980785280403231 0.0
outer loop
vertex 1.36563225411289 -6.86549696282261 23.0
vertex 0.0 -7.0 0.0
vertex 1.36563225411289 -6.86549696282261 0.0
endloop
endfacet
facet normal -5.32657337581099e-17 -1.0 0.0
outer loop
vertex 0.0 -7.0 0.0
vertex 1.36563225411289 -6.86549696282261 23.0
vertex 0.0 -7.0 23.0
endloop
endfacet
facet normal -5.32657337581099e-17 -1.0 0.0
outer loop
vertex 0.0 -7.0 23.0
vertex -1.36563225411289 -6.86549696282261 0.0
vertex 0.0 -7.0 0.0
endloop
endfacet
facet normal -0.195090322016127 -0.980785280403231 -3.44764324821077e-34
outer loop
vertex -1.36563225411289 -6.86549696282261 0.0
vertex 0.0 -7.0 23.0
vertex -1.36563225411289 -6.86549696282261 23.0
endloop
endfacet
facet normal -0.195090322016127 -0.980785280403231 -3.44764324821077e-34
outer loop
vertex -1.36563225411289 -6.86549696282261 23.0
vertex -2.67878402655563 -6.46715672757901 0.0
vertex -1.36563225411289 -6.86549696282261 0.0
endloop
endfacet
facet normal -0.38268343236509 -0.923879532511287 -1.46449809259561e-33
outer loop
vertex -2.67878402655563 -6.46715672757901 0.0
vertex -1.36563225411289 -6.86549696282261 23.0
vertex -2.67878402655563 -6.46715672757901 23.0
endloop
endfacet
facet normal -0.38268343236509 -0.923879532511287 -1.46449809259561e-33
outer loop
vertex -2.67878402655563 -6.46715672757901 23.0
vertex -3.88899163113721 -5.82028728611781 0.0
vertex -2.67878402655563 -6.46715672757901 0.0
endloop
endfacet
facet normal -0.555570233019602 -0.831469612302545 -1.11973376777453e-33
outer loop
vertex -3.88899163113721 -5.82028728611781 0.0
vertex -2.67878402655563 -6.46715672757901 23.0
vertex -3.88899163113721 -5.82028728611781 23.0
endloop
endfacet
facet normal -0.555570233019602 -0.831469612302545 -1.11973376777453e-33
outer loop
vertex -3.88899163113721 -5.82028728611781 23.0
vertex -4.94974746830583 -4.94974746830583 0.0
vertex -3.88899163113721 -5.82028728611781 0.0
endloop
endfacet
facet normal -0.707106781186548 -0.707106781186547 4.87567900185353e-17
outer loop
vertex -4.94974746830583 -4.94974746830583 0.0
vertex -3.88899163113721 -5.82028728611781 23.0
vertex -4.94974746830583 -4.94974746830583 23.0
endloop
endfacet
facet normal -0.77301045336274 -0.634393284163642 9.70440254960194e-17
outer loop
vertex -5.48298143493904 -4.29999999999999 23.0
vertex -4.94974746830583 -4.94974746830583 0.0
vertex -4.94974746830583 -4.94974746830583 23.0
endloop
endfacet
facet normal -0.707106781186548 -0.707106781186547 4.87567900185353e-17
outer loop
vertex -4.94974746830583 -4.94974746830583 0.0
vertex -5.48298143493904 -4.29999999999999 23.0
vertex -5.48298143493904 -4.29999999999999 11.0
endloop
endfacet
facet normal -0.707106781186548 -0.707106781186547 4.87567900185353e-17
outer loop
vertex -4.94974746830583 -4.94974746830583 0.0
vertex -5.48298143493904 -4.29999999999999 11.0
vertex -5.82028728611781 -3.88899163113721 0.0
endloop
endfacet
facet normal -0.831469612302545 -0.555570233019603 4.87567900185352e-17
outer loop
vertex -5.82028728611781 -3.88899163113721 0.0
vertex -5.48298143493904 -4.29999999999999 11.0
vertex -5.82028728611781 -3.88899163113721 11.0
endloop
endfacet
facet normal -0.923879532511286 -0.382683432365091 0.0
outer loop
vertex -6.46715672757901 -2.67878402655563 11.0
vertex -5.82028728611781 -3.88899163113721 0.0
vertex -5.82028728611781 -3.88899163113721 11.0
endloop
endfacet
facet normal -0.831469612302545 -0.555570233019603 4.87567900185352e-17
outer loop
vertex -5.82028728611781 -3.88899163113721 0.0
vertex -6.46715672757901 -2.67878402655563 11.0
vertex -6.46715672757901 -2.67878402655563 0.0
endloop
endfacet
facet normal -0.980785280403231 -0.195090322016127 0.0
outer loop
vertex -6.86549696282261 -1.36563225411289 11.0
vertex -6.46715672757901 -2.67878402655563 0.0
vertex -6.46715672757901 -2.67878402655563 11.0
endloop
endfacet
facet normal -0.923879532511286 -0.382683432365091 0.0
outer loop
vertex -6.46715672757901 -2.67878402655563 0.0
vertex -6.86549696282261 -1.36563225411289 11.0
vertex -6.86549696282261 -1.36563225411289 0.0
endloop
endfacet
facet normal -1.0 -3.99493003185824e-16 0.0
outer loop
vertex -7.0 0.0 11.0
vertex -6.86549696282261 -1.36563225411289 0.0
vertex -6.86549696282261 -1.36563225411289 11.0
endloop
endfacet
facet normal -0.980785280403231 -0.195090322016127 0.0
outer loop
vertex -6.86549696282261 -1.36563225411289 0.0
vertex -7.0 0.0 11.0
vertex -7.0 0.0 0.0
endloop
endfacet
facet normal -0.98078528040323 0.195090322016128 0.0
outer loop
vertex -6.86549696282261 1.36563225411291 11.0
vertex -7.0 0.0 0.0
vertex -7.0 0.0 11.0
endloop
endfacet
facet normal -1.0 -3.99493003185824e-16 0.0
outer loop
vertex -7.0 0.0 0.0
vertex -6.86549696282261 1.36563225411291 11.0
vertex -6.86549696282261 1.36563225411291 0.0
endloop
endfacet
facet normal -0.923879532511286 0.382683432365092 0.0
outer loop
vertex -6.46715672757901 2.67878402655563 11.0
vertex -6.86549696282261 1.36563225411291 0.0
vertex -6.86549696282261 1.36563225411291 11.0
endloop
endfacet
facet normal -0.98078528040323 0.195090322016128 0.0
outer loop
vertex -6.86549696282261 1.36563225411291 0.0
vertex -6.46715672757901 2.67878402655563 11.0
vertex -6.46715672757901 2.67878402655563 0.0
endloop
endfacet
facet normal -0.831469612302545 0.555570233019603 -1.92072203103321e-17
outer loop
vertex -5.82028728611781 3.88899163113721 11.0
vertex -6.46715672757901 2.67878402655563 0.0
vertex -6.46715672757901 2.67878402655563 11.0
endloop
endfacet
facet normal -0.923879532511286 0.382683432365092 0.0
outer loop
vertex -6.46715672757901 2.67878402655563 0.0
vertex -5.82028728611781 3.88899163113721 11.0
vertex -5.82028728611781 3.88899163113721 0.0
endloop
endfacet
facet normal -0.707106781186547 0.707106781186548 -1.92072203103322e-17
outer loop
vertex -4.94974746830583 4.94974746830583 23.0
vertex -5.48298143493904 4.3 11.0
vertex -5.48298143493904 4.3 23.0
endloop
endfacet
facet normal -0.773010453362739 0.634393284163643 -3.82294645893412e-17
outer loop
vertex -5.48298143493904 4.3 11.0
vertex -5.82028728611781 3.88899163113721 0.0
vertex -5.82028728611781 3.88899163113721 11.0
endloop
endfacet
facet normal -0.831469612302545 0.555570233019603 -1.92072203103321e-17
outer loop
vertex -5.82028728611781 3.88899163113721 0.0
vertex -5.48298143493904 4.3 11.0
vertex -4.94974746830583 4.94974746830583 0.0
endloop
endfacet
facet normal -0.707106781186547 0.707106781186548 -1.92072203103322e-17
outer loop
vertex -4.94974746830583 4.94974746830583 0.0
vertex -5.48298143493904 4.3 11.0
vertex -4.94974746830583 4.94974746830583 23.0
endloop
endfacet
facet normal -0.707106781186547 0.707106781186548 -1.92072203103322e-17
outer loop
vertex -4.94974746830583 4.94974746830583 23.0
vertex -3.88899163113721 5.82028728611781 0.0
vertex -4.94974746830583 4.94974746830583 0.0
endloop
endfacet
facet normal -0.555570233019602 0.831469612302545 -1.11973376777453e-33
outer loop
vertex -3.88899163113721 5.82028728611781 0.0
vertex -4.94974746830583 4.94974746830583 23.0
vertex -3.88899163113721 5.82028728611781 23.0
endloop
endfacet
facet normal -0.555570233019602 0.831469612302545 -1.11973376777453e-33
outer loop
vertex -3.88899163113721 5.82028728611781 23.0
vertex -2.67878402655563 6.46715672757901 0.0
vertex -3.88899163113721 5.82028728611781 0.0
endloop
endfacet
facet normal -0.382683432365094 0.923879532511285 -7.74969442953447e-34
outer loop
vertex -2.67878402655563 6.46715672757901 0.0
vertex -3.88899163113721 5.82028728611781 23.0
vertex -2.67878402655563 6.46715672757901 23.0
endloop
endfacet
facet normal -0.382683432365094 0.923879532511285 -7.74969442953447e-34
outer loop
vertex -2.67878402655563 6.46715672757901 23.0
vertex -1.36563225411289 6.86549696282262 0.0
vertex -2.67878402655563 6.46715672757901 0.0
endloop
endfacet
facet normal -0.195090322016131 0.98078528040323 3.44764324821086e-34
outer loop
vertex -1.36563225411289 6.86549696282262 0.0
vertex -2.67878402655563 6.46715672757901 23.0
vertex -1.36563225411289 6.86549696282262 23.0
endloop
endfacet
facet normal -0.195090322016131 0.98078528040323 3.44764324821086e-34
outer loop
vertex -1.36563225411289 6.86549696282262 23.0
vertex 0.0 7.00000000000001 0.0
vertex -1.36563225411289 6.86549696282262 0.0
endloop
endfacet
facet normal -5.32657337581099e-17 1.0 0.0
outer loop
vertex 0.0 7.00000000000001 0.0
vertex -1.36563225411289 6.86549696282262 23.0
vertex 0.0 7.00000000000001 23.0
endloop
endfacet
facet normal -5.32657337581099e-17 1.0 0.0
outer loop
vertex 0.0 7.00000000000001 23.0
vertex 1.36563225411289 6.86549696282262 0.0
vertex 0.0 7.00000000000001 0.0
endloop
endfacet
facet normal 0.195090322016131 0.98078528040323 0.0
outer loop
vertex 1.36563225411289 6.86549696282262 0.0
vertex 0.0 7.00000000000001 23.0
vertex 1.36563225411289 6.86549696282262 23.0
endloop
endfacet
facet normal 0.0 -1.0 0.0
outer loop
vertex 5.48298143493905 4.3 23.0
vertex -5.48298143493904 4.3 11.0
vertex 5.48298143493905 4.3 11.0
endloop
endfacet
facet normal 0.0 -1.0 0.0
outer loop
vertex -5.48298143493904 4.3 11.0
vertex 5.48298143493905 4.3 23.0
vertex -5.48298143493904 4.3 23.0
endloop
endfacet
facet normal 0.0 1.0 0.0
outer loop
vertex -5.48298143493904 -4.29999999999999 23.0
vertex 5.48298143493905 -4.29999999999999 11.0
vertex -5.48298143493904 -4.29999999999999 11.0
endloop
endfacet
facet normal 0.0 1.0 0.0
outer loop
vertex 5.48298143493905 -4.29999999999999 11.0
vertex -5.48298143493904 -4.29999999999999 23.0
vertex 5.48298143493905 -4.29999999999999 23.0
endloop
endfacet
facet normal 0.0 0.0 1.0
outer loop
vertex -4.94974746830583 -4.94974746830583 23.0
vertex 5.48298143493905 -4.29999999999999 23.0
vertex -5.48298143493904 -4.29999999999999 23.0
endloop
endfacet
facet normal 0.0 0.0 1.0
outer loop
vertex 5.48298143493905 -4.29999999999999 23.0
vertex -4.94974746830583 -4.94974746830583 23.0
vertex -3.88899163113721 -5.82028728611781 23.0
endloop
endfacet
facet normal 0.0 0.0 1.0
outer loop
vertex 5.48298143493905 -4.29999999999999 23.0
vertex -3.88899163113721 -5.82028728611781 23.0
vertex -2.67878402655563 -6.46715672757901 23.0
endloop
endfacet
facet normal 0.0 0.0 1.0
outer loop
vertex 5.48298143493905 -4.29999999999999 23.0
vertex -2.67878402655563 -6.46715672757901 23.0
vertex -1.36563225411289 -6.86549696282261 23.0
endloop
endfacet
facet normal 0.0 0.0 1.0
outer loop
vertex 5.48298143493905 -4.29999999999999 23.0
vertex -1.36563225411289 -6.86549696282261 23.0
vertex 0.0 -7.0 23.0
endloop
endfacet
facet normal 0.0 0.0 1.0
outer loop
vertex 5.48298143493905 -4.29999999999999 23.0
vertex 0.0 -7.0 23.0
vertex 1.36563225411289 -6.86549696282261 23.0
endloop
endfacet
facet normal 0.0 0.0 1.0
outer loop
vertex 5.48298143493905 -4.29999999999999 23.0
vertex 1.36563225411289 -6.86549696282261 23.0
vertex 2.67878402655563 -6.46715672757901 23.0
endloop
endfacet
facet normal 0.0 0.0 1.0
outer loop
vertex 5.48298143493905 -4.29999999999999 23.0
vertex 2.67878402655563 -6.46715672757901 23.0
vertex 3.88899163113721 -5.82028728611781 23.0
endloop
endfacet
facet normal 0.0 0.0 1.0
outer loop
vertex 5.48298143493905 -4.29999999999999 23.0
vertex 3.88899163113721 -5.82028728611781 23.0
vertex 4.94974746830585 -4.94974746830583 23.0
endloop
endfacet
endsolid Piston
