solid Base No Motor
facet normal 1.0 0.0 0.0
outer loop
vertex -12.0 42.0 4.00000000000001
vertex -12.0 -37.0 9.00000000000001
vertex -12.0 -37.0 4.00000000000001
endloop
endfacet
facet normal 1.0 0.0 0.0
outer loop
vertex -12.0 -37.0 9.00000000000001
vertex -12.0 42.0 4.00000000000001
vertex -12.0 38.0 5.00000000000001
endloop
endfacet
facet normal 1.0 0.0 0.0
outer loop
vertex -12.0 38.0 5.00000000000001
vertex -12.0 42.0 4.00000000000001
vertex -12.0 41.0 5.00000000000001
endloop
endfacet
facet normal 1.0 0.0 0.0
outer loop
vertex -12.0 41.0 5.00000000000001
vertex -12.0 42.0 4.00000000000001
vertex -12.0 41.0 8.00000000000001
endloop
endfacet
facet normal 1.0 0.0 0.0
outer loop
vertex -12.0 -37.0 9.00000000000001
vertex -12.0 38.0 8.00000000000001
vertex -12.0 42.0 9.00000000000001
endloop
endfacet
facet normal 1.0 0.0 0.0
outer loop
vertex -12.0 38.0 8.00000000000001
vertex -12.0 -37.0 9.00000000000001
vertex -12.0 38.0 5.00000000000001
endloop
endfacet
facet normal 1.0 0.0 0.0
outer loop
vertex -12.0 42.0 9.00000000000001
vertex -12.0 38.0 8.00000000000001
vertex -12.0 41.0 8.00000000000001
endloop
endfacet
facet normal 1.0 0.0 0.0
outer loop
vertex -12.0 42.0 9.00000000000001
vertex -12.0 41.0 8.00000000000001
vertex -12.0 42.0 4.00000000000001
endloop
endfacet
facet normal -0.707106781186548 0.0 -0.707106781186548
outer loop
vertex 22.5 37.0 9.00000000000001
vertex 27.5 -37.0 4.0
vertex 22.5 -37.0 9.00000000000001
endloop
endfacet
facet normal -0.707106781186548 0.0 -0.707106781186548
outer loop
vertex 27.5 -37.0 4.0
vertex 22.5 37.0 9.00000000000001
vertex 27.5 37.0 4.0
endloop
endfacet
facet normal -1.0 0.0 0.0
outer loop
vertex -17.5 42.0 9.00000000000001
vertex -17.5 -37.0 4.00000000000001
vertex -17.5 -37.0 9.00000000000001
endloop
endfacet
facet normal -1.0 0.0 0.0
outer loop
vertex -17.5 -37.0 4.00000000000001
vertex -17.5 42.0 9.00000000000001
vertex -17.5 38.0 8.00000000000001
endloop
endfacet
facet normal -1.0 0.0 0.0
outer loop
vertex -17.5 38.0 8.00000000000001
vertex -17.5 42.0 9.00000000000001
vertex -17.5 41.0 8.00000000000001
endloop
endfacet
facet normal -1.0 0.0 0.0
outer loop
vertex -17.5 41.0 8.00000000000001
vertex -17.5 42.0 9.00000000000001
vertex -17.5 41.0 5.00000000000001
endloop
endfacet
facet normal -1.0 0.0 0.0
outer loop
vertex -17.5 -37.0 4.00000000000001
vertex -17.5 38.0 5.00000000000001
vertex -17.5 42.0 4.00000000000001
endloop
endfacet
facet normal -1.0 0.0 0.0
outer loop
vertex -17.5 38.0 5.00000000000001
vertex -17.5 -37.0 4.00000000000001
vertex -17.5 38.0 8.00000000000001
endloop
endfacet
facet normal -1.0 0.0 0.0
outer loop
vertex -17.5 42.0 4.00000000000001
vertex -17.5 38.0 5.00000000000001
vertex -17.5 41.0 5.00000000000001
endloop
endfacet
facet normal -1.0 0.0 0.0
outer loop
vertex -17.5 42.0 4.00000000000001
vertex -17.5 41.0 5.00000000000001
vertex -17.5 42.0 9.00000000000001
endloop
endfacet
facet normal -1.0 -1.2493522391035e-16 2.25597318603832e-15
outer loop
vertex 12.0 42.0 9.00000000000001
vertex 12.0 -37.0 4.00000000000001
vertex 12.0 -37.0 9.00000000000001
endloop
endfacet
facet normal -1.0 -1.2493522391035e-16 2.25597318603832e-15
outer loop
vertex 12.0 -37.0 4.00000000000001
vertex 12.0 42.0 9.00000000000001
vertex 12.0 38.0 8.0
endloop
endfacet
facet normal -1.0 -1.2493522391035e-16 2.25597318603832e-15
outer loop
vertex 12.0 38.0 8.0
vertex 12.0 42.0 9.00000000000001
vertex 12.0 41.0 8.0
endloop
endfacet
facet normal -1.0 -1.2493522391035e-16 2.25597318603832e-15
outer loop
vertex 12.0 41.0 8.0
vertex 12.0 42.0 9.00000000000001
vertex 12.0 41.0 5.0
endloop
endfacet
facet normal -1.0 -1.2493522391035e-16 2.25597318603832e-15
outer loop
vertex 12.0 -37.0 4.00000000000001
vertex 12.0 38.0 5.0
vertex 12.0 42.0 4.00000000000001
endloop
endfacet
facet normal -1.0 -1.2493522391035e-16 2.25597318603832e-15
outer loop
vertex 12.0 38.0 5.0
vertex 12.0 -37.0 4.00000000000001
vertex 12.0 38.0 8.0
endloop
endfacet
facet normal -1.0 -1.2493522391035e-16 2.25597318603832e-15
outer loop
vertex 12.0 42.0 4.00000000000001
vertex 12.0 38.0 5.0
vertex 12.0 41.0 5.0
endloop
endfacet
facet normal -1.0 -1.2493522391035e-16 2.25597318603832e-15
outer loop
vertex 12.0 42.0 4.00000000000001
vertex 12.0 41.0 5.0
vertex 12.0 42.0 9.00000000000001
endloop
endfacet
facet normal -2.78315259649086e-06 -1.63813149851215e-06 0.999999999994785
outer loop
vertex -32.5000321807248 -42.0002506786683 8.99920766196056
vertex -22.5 -37.0 8.99999999999982
vertex -32.4999999574942 42.0 8.99999999999975
endloop
endfacet
facet normal -2.78315259649086e-06 -1.63813149851215e-06 0.999999999994785
outer loop
vertex -22.5 -37.0 8.99999999999982
vertex -32.5000321807248 -42.0002506786683 8.99920766196056
vertex 32.4999677767696 -42.0002506803161 8.99987202630542
endloop
endfacet
facet normal -2.78315259649086e-06 -1.63813149851215e-06 0.999999999994785
outer loop
vertex -22.5 -37.0 8.99999999999982
vertex 32.4999677767696 -42.0002506803161 8.99987202630542
vertex -17.5 -37.0 9.00000000000001
endloop
endfacet
facet normal -2.78315259649086e-06 -1.63813149851215e-06 0.999999999994785
outer loop
vertex -17.5 -37.0 9.00000000000001
vertex 32.4999677767696 -42.0002506803161 8.99987202630542
vertex -12.0 -37.0 9.00000000000001
endloop
endfacet
facet normal -2.78315259649086e-06 -1.63813149851215e-06 0.999999999994785
outer loop
vertex -17.5 -37.0 9.00000000000001
vertex -12.0 -37.0 9.00000000000001
vertex -17.5 42.0 9.00000000000001
endloop
endfacet
facet normal -2.78315259649086e-06 -1.63813149851215e-06 0.999999999994785
outer loop
vertex -12.0 -37.0 9.00000000000001
vertex 32.4999677767696 -42.0002506803161 8.99987202630542
vertex 12.0 -37.0 9.00000000000001
endloop
endfacet
facet normal -2.78315259649086e-06 -1.63813149851215e-06 0.999999999994785
outer loop
vertex 12.0 -37.0 9.00000000000001
vertex 32.4999677767696 -42.0002506803161 8.99987202630542
vertex 17.5 -37.0 9.00000000000001
endloop
endfacet
facet normal -2.78315259649086e-06 -1.63813149851215e-06 0.999999999994785
outer loop
vertex 12.0 -37.0 9.00000000000001
vertex 17.5 -37.0 9.00000000000001
vertex 17.5 42.0 9.0
endloop
endfacet
facet normal -2.78315259649086e-06 -1.63813149851215e-06 0.999999999994785
outer loop
vertex 17.5 -37.0 9.00000000000001
vertex 32.4999677767696 -42.0002506803161 8.99987202630542
vertex 22.5 -37.0 9.00000000000001
endloop
endfacet
facet normal -2.78315259649086e-06 -1.63813149851215e-06 0.999999999994785
outer loop
vertex 22.5 -37.0 9.00000000000001
vertex 32.4999677767696 -42.0002506803161 8.99987202630542
vertex 22.5 37.0 9.00000000000001
endloop
endfacet
facet normal -2.78315259649086e-06 -1.63813149851215e-06 0.999999999994785
outer loop
vertex 22.5 37.0 9.00000000000001
vertex 32.4999677767696 -42.0002506803161 8.99987202630542
vertex 32.5 37.0 9.00000000000001
endloop
endfacet
facet normal -2.78315259649086e-06 -1.63813149851215e-06 0.999999999994785
outer loop
vertex 17.5 42.0 9.0
vertex 12.0 42.0 9.00000000000001
vertex 12.0 -37.0 9.00000000000001
endloop
endfacet
facet normal -2.78315259649086e-06 -1.63813149851215e-06 0.999999999994785
outer loop
vertex -12.0 42.0 9.00000000000001
vertex -17.5 42.0 9.00000000000001
vertex -12.0 -37.0 9.00000000000001
endloop
endfacet
facet normal -2.78315259649086e-06 -1.63813149851215e-06 0.999999999994785
outer loop
vertex -22.5 42.0 8.99999999999982
vertex -32.4999999574942 42.0 8.99999999999975
vertex -22.5 -37.0 8.99999999999982
endloop
endfacet
facet normal 1.0 1.070873347803e-16 -1.69110309080065e-32
outer loop
vertex 17.5 42.0 4.0
vertex 17.5 -37.0 9.00000000000001
vertex 17.5 -37.0 4.00000000000001
endloop
endfacet
facet normal 1.0 1.070873347803e-16 -1.69110309080065e-32
outer loop
vertex 17.5 -37.0 9.00000000000001
vertex 17.5 42.0 4.0
vertex 17.5 38.0 5.0
endloop
endfacet
facet normal 1.0 1.070873347803e-16 -1.69110309080065e-32
outer loop
vertex 17.5 38.0 5.0
vertex 17.5 42.0 4.0
vertex 17.5 41.0 5.0
endloop
endfacet
facet normal 1.0 1.070873347803e-16 -1.69110309080065e-32
outer loop
vertex 17.5 41.0 5.0
vertex 17.5 42.0 4.0
vertex 17.5 41.0 8.0
endloop
endfacet
facet normal 1.0 1.070873347803e-16 -1.69110309080065e-32
outer loop
vertex 17.5 -37.0 9.00000000000001
vertex 17.5 38.0 8.0
vertex 17.5 42.0 9.0
endloop
endfacet
facet normal 1.0 1.070873347803e-16 -1.69110309080065e-32
outer loop
vertex 17.5 38.0 8.0
vertex 17.5 -37.0 9.00000000000001
vertex 17.5 38.0 5.0
endloop
endfacet
facet normal 1.0 1.070873347803e-16 -1.69110309080065e-32
outer loop
vertex 17.5 42.0 9.0
vertex 17.5 38.0 8.0
vertex 17.5 41.0 8.0
endloop
endfacet
facet normal 1.0 1.070873347803e-16 -1.69110309080065e-32
outer loop
vertex 17.5 42.0 9.0
vertex 17.5 41.0 8.0
vertex 17.5 42.0 4.0
endloop
endfacet
facet normal 0.707106781186534 -1.77215080014659e-31 -0.707106781186561
outer loop
vertex -22.5 42.0 8.99999999999982
vertex -27.5 -37.0 4.00000000000001
vertex -27.5 42.0 4.00000000000001
endloop
endfacet
facet normal 0.707106781186534 -1.77215080014659e-31 -0.707106781186561
outer loop
vertex -27.5 -37.0 4.00000000000001
vertex -22.5 42.0 8.99999999999982
vertex -22.5 -37.0 8.99999999999982
endloop
endfacet
facet normal -5.73666625435567e-07 -0.999999999597927 -2.83516599125315e-05
outer loop
vertex 32.5 -42.0 1.80892031207106e-14
vertex -32.5000321807248 -42.0002506786683 8.99920766196056
vertex -32.4999999574943 -41.9999992666681 -2.62924857323058e-06
endloop
endfacet
facet normal -5.73666625435567e-07 -0.999999999597927 -2.83516599125315e-05
outer loop
vertex -32.5000321807248 -42.0002506786683 8.99920766196056
vertex 32.5 -42.0 1.80892031207106e-14
vertex 32.4999677767696 -42.0002506803161 8.99987202630542
endloop
endfacet
facet normal 3.36316854956194e-16 2.71649028034943e-17 1.0
outer loop
vertex 17.5 42.0 4.0
vertex 27.5 37.0 4.0
vertex 32.5 42.0 4.0
endloop
endfacet
facet normal 3.36316854956194e-16 2.71649028034943e-17 1.0
outer loop
vertex 27.5 37.0 4.0
vertex 17.5 42.0 4.0
vertex 17.5 -37.0 4.00000000000001
endloop
endfacet
facet normal 3.36316854956194e-16 2.71649028034943e-17 1.0
outer loop
vertex 27.5 37.0 4.0
vertex 17.5 -37.0 4.00000000000001
vertex 27.5 -37.0 4.0
endloop
endfacet
facet normal 3.36316854956194e-16 2.71649028034943e-17 1.0
outer loop
vertex 32.5 42.0 4.0
vertex 27.5 37.0 4.0
vertex 32.5 37.0 4.0
endloop
endfacet
facet normal -1.25341361989346e-05 0.999999999781807 1.67116911515163e-05
outer loop
vertex -27.5 -37.0 4.00000000000001
vertex -17.5 -37.0 9.00000000000001
vertex -17.5 -37.0 4.00000000000001
endloop
endfacet
facet normal -1.25341361989346e-05 0.999999999781807 1.67116911515163e-05
outer loop
vertex -17.5 -37.0 9.00000000000001
vertex -27.5 -37.0 4.00000000000001
vertex -22.5 -37.0 8.99999999999982
endloop
endfacet
facet normal -0.999999999998283 1.27876045140649e-07 -1.8488979477848e-06
outer loop
vertex -32.4999999574942 42.0 8.99999999999975
vertex -32.4999999574943 -41.9999992666681 -2.62924857323058e-06
vertex -32.5000321807248 -42.0002506786683 8.99920766196056
endloop
endfacet
facet normal -0.999999999998283 1.27876045140649e-07 -1.8488979477848e-06
outer loop
vertex -32.4999999574943 -41.9999992666681 -2.62924857323058e-06
vertex -32.4999999574942 42.0 8.99999999999975
vertex -32.4999999574942 42.000000732508 -2.62924859119924e-06
endloop
endfacet
facet normal 1.25341092704539e-05 0.999999999781807 1.67117450003414e-05
outer loop
vertex 17.5 -37.0 4.00000000000001
vertex 22.5 -37.0 9.00000000000001
vertex 27.5 -37.0 4.0
endloop
endfacet
facet normal 1.25341092704539e-05 0.999999999781807 1.67117450003414e-05
outer loop
vertex 22.5 -37.0 9.00000000000001
vertex 17.5 -37.0 4.00000000000001
vertex 17.5 -37.0 9.00000000000001
endloop
endfacet
facet normal 0.0 1.0 0.0
outer loop
vertex -12.0 -37.0 4.00000000000001
vertex 12.0 -37.0 9.00000000000001
vertex 12.0 -37.0 4.00000000000001
endloop
endfacet
facet normal 0.0 1.0 0.0
outer loop
vertex 12.0 -37.0 9.00000000000001
vertex -12.0 -37.0 4.00000000000001
vertex -12.0 -37.0 9.00000000000001
endloop
endfacet
facet normal -9.02389274415327e-16 1.0 6.76791955811494e-16
outer loop
vertex 27.5 37.0 4.0
vertex 32.5 37.0 9.00000000000001
vertex 32.5 37.0 4.0
endloop
endfacet
facet normal -9.02389274415327e-16 1.0 6.76791955811494e-16
outer loop
vertex 32.5 37.0 9.00000000000001
vertex 27.5 37.0 4.0
vertex 22.5 37.0 9.00000000000001
endloop
endfacet
facet normal 5.87493017197479e-17 -1.784788913005e-17 1.0
outer loop
vertex 12.0 -37.0 4.00000000000001
vertex -12.0 42.0 4.00000000000001
vertex -12.0 -37.0 4.00000000000001
endloop
endfacet
facet normal 5.87493017197479e-17 -1.784788913005e-17 1.0
outer loop
vertex -12.0 42.0 4.00000000000001
vertex 12.0 -37.0 4.00000000000001
vertex 12.0 42.0 4.00000000000001
endloop
endfacet
facet normal 1.05748743095546e-16 -1.33859168475375e-17 1.0
outer loop
vertex -17.5 -37.0 4.00000000000001
vertex -27.5 42.0 4.00000000000001
vertex -27.5 -37.0 4.00000000000001
endloop
endfacet
facet normal 1.05748743095546e-16 -1.33859168475375e-17 1.0
outer loop
vertex -27.5 42.0 4.00000000000001
vertex -17.5 -37.0 4.00000000000001
vertex -17.5 42.0 4.00000000000001
endloop
endfacet
facet normal 0.0 0.0 -1.0
outer loop
vertex 17.5 41.0 8.0
vertex 12.0 38.0 8.0
vertex 12.0 41.0 8.0
endloop
endfacet
facet normal 0.0 0.0 -1.0
outer loop
vertex 12.0 38.0 8.0
vertex 17.5 41.0 8.0
vertex 17.5 38.0 8.0
endloop
endfacet
facet normal 0.0 1.0 0.0
outer loop
vertex 12.0 38.0 8.0
vertex 17.5 38.0 5.0
vertex 12.0 38.0 5.0
endloop
endfacet
facet normal 0.0 1.0 0.0
outer loop
vertex 17.5 38.0 5.0
vertex 12.0 38.0 8.0
vertex 17.5 38.0 8.0
endloop
endfacet
facet normal 0.0 0.0 1.0
outer loop
vertex 17.5 38.0 5.0
vertex 12.0 41.0 5.0
vertex 12.0 38.0 5.0
endloop
endfacet
facet normal 0.0 0.0 1.0
outer loop
vertex 12.0 41.0 5.0
vertex 17.5 38.0 5.0
vertex 17.5 41.0 5.0
endloop
endfacet
facet normal 0.0 -1.0 0.0
outer loop
vertex 17.5 41.0 8.0
vertex 12.0 41.0 5.0
vertex 17.5 41.0 5.0
endloop
endfacet
facet normal 0.0 -1.0 0.0
outer loop
vertex 12.0 41.0 5.0
vertex 17.5 41.0 8.0
vertex 12.0 41.0 8.0
endloop
endfacet
facet normal 0.0 -1.0 0.0
outer loop
vertex -12.0 41.0 8.00000000000001
vertex -17.5 41.0 5.00000000000001
vertex -12.0 41.0 5.00000000000001
endloop
endfacet
facet normal 0.0 -1.0 0.0
outer loop
vertex -17.5 41.0 5.00000000000001
vertex -12.0 41.0 8.00000000000001
vertex -17.5 41.0 8.00000000000001
endloop
endfacet
facet normal 0.0 0.0 1.0
outer loop
vertex -12.0 38.0 5.00000000000001
vertex -17.5 41.0 5.00000000000001
vertex -17.5 38.0 5.00000000000001
endloop
endfacet
facet normal 0.0 0.0 1.0
outer loop
vertex -17.5 41.0 5.00000000000001
vertex -12.0 38.0 5.00000000000001
vertex -12.0 41.0 5.00000000000001
endloop
endfacet
facet normal 0.0 1.0 0.0
outer loop
vertex -17.5 38.0 8.00000000000001
vertex -12.0 38.0 5.00000000000001
vertex -17.5 38.0 5.00000000000001
endloop
endfacet
facet normal 0.0 1.0 0.0
outer loop
vertex -12.0 38.0 5.00000000000001
vertex -17.5 38.0 8.00000000000001
vertex -12.0 38.0 8.00000000000001
endloop
endfacet
facet normal 0.0 0.0 -1.0
outer loop
vertex -12.0 41.0 8.00000000000001
vertex -17.5 38.0 8.00000000000001
vertex -17.5 41.0 8.00000000000001
endloop
endfacet
facet normal 0.0 0.0 -1.0
outer loop
vertex -17.5 38.0 8.00000000000001
vertex -12.0 41.0 8.00000000000001
vertex -12.0 38.0 8.00000000000001
endloop
endfacet
facet normal 0.999999999999462 -1.28262228953185e-07 1.02954248268422e-06
outer loop
vertex 32.5 42.0 4.81663127899549e-16
vertex 32.5 37.0 4.0
vertex 32.5 -42.0 1.80892031207106e-14
endloop
endfacet
facet normal 0.999999999999462 -1.28262228953185e-07 1.02954248268422e-06
outer loop
vertex 32.5 37.0 4.0
vertex 32.5 42.0 4.81663127899549e-16
vertex 32.5 42.0 4.0
endloop
endfacet
facet normal 0.999999999999462 -1.28262228953185e-07 1.02954248268422e-06
outer loop
vertex 32.5 -42.0 1.80892031207106e-14
vertex 32.5 37.0 9.00000000000001
vertex 32.4999677767696 -42.0002506803161 8.99987202630542
endloop
endfacet
facet normal 0.999999999999462 -1.28262228953185e-07 1.02954248268422e-06
outer loop
vertex 32.5 37.0 9.00000000000001
vertex 32.5 -42.0 1.80892031207106e-14
vertex 32.5 37.0 4.0
endloop
endfacet
facet normal 3.09022677121492e-09 1.0 2.99207218729465e-08
outer loop
vertex -32.4999999574942 42.000000732508 -2.62924859119924e-06
vertex -27.5 42.0 4.00000000000001
vertex 32.5 42.0 4.81663127899549e-16
endloop
endfacet
facet normal 3.09022677121492e-09 1.0 2.99207218729465e-08
outer loop
vertex -27.5 42.0 4.00000000000001
vertex -32.4999999574942 42.000000732508 -2.62924859119924e-06
vertex -32.4999999574942 42.0 8.99999999999975
endloop
endfacet
facet normal 3.09022677121492e-09 1.0 2.99207218729465e-08
outer loop
vertex 32.5 42.0 4.81663127899549e-16
vertex -27.5 42.0 4.00000000000001
vertex 32.5 42.0 4.0
endloop
endfacet
facet normal 3.09022677121492e-09 1.0 2.99207218729465e-08
outer loop
vertex 32.5 42.0 4.0
vertex -27.5 42.0 4.00000000000001
vertex 17.5 42.0 4.0
endloop
endfacet
facet normal 3.09022677121492e-09 1.0 2.99207218729465e-08
outer loop
vertex 17.5 42.0 4.0
vertex -27.5 42.0 4.00000000000001
vertex -12.0 42.0 4.00000000000001
endloop
endfacet
facet normal 3.09022677121492e-09 1.0 2.99207218729465e-08
outer loop
vertex 17.5 42.0 4.0
vertex -12.0 42.0 4.00000000000001
vertex 12.0 42.0 4.00000000000001
endloop
endfacet
facet normal 3.09022677121492e-09 1.0 2.99207218729465e-08
outer loop
vertex -12.0 42.0 4.00000000000001
vertex -27.5 42.0 4.00000000000001
vertex -17.5 42.0 4.00000000000001
endloop
endfacet
facet normal 3.09022677121492e-09 1.0 2.99207218729465e-08
outer loop
vertex -27.5 42.0 4.00000000000001
vertex -32.4999999574942 42.0 8.99999999999975
vertex -22.5 42.0 8.99999999999982
endloop
endfacet
facet normal 3.09022677121492e-09 1.0 2.99207218729465e-08
outer loop
vertex -17.5 42.0 4.00000000000001
vertex -12.0 42.0 9.00000000000001
vertex -12.0 42.0 4.00000000000001
endloop
endfacet
facet normal 3.09022677121492e-09 1.0 2.99207218729465e-08
outer loop
vertex -12.0 42.0 9.00000000000001
vertex -17.5 42.0 4.00000000000001
vertex -17.5 42.0 9.00000000000001
endloop
endfacet
facet normal 3.09022677121492e-09 1.0 2.99207218729465e-08
outer loop
vertex 12.0 42.0 4.00000000000001
vertex 17.5 42.0 9.0
vertex 17.5 42.0 4.0
endloop
endfacet
facet normal 3.09022677121492e-09 1.0 2.99207218729465e-08
outer loop
vertex 17.5 42.0 9.0
vertex 12.0 42.0 4.00000000000001
vertex 12.0 42.0 9.00000000000001
endloop
endfacet
facet normal 4.04499783572262e-08 -2.1176312232021e-16 -0.999999999999999
outer loop
vertex -32.4999999574942 42.000000732508 -2.62924859119924e-06
vertex 32.5 -42.0 1.80892031207106e-14
vertex -32.4999999574943 -41.9999992666681 -2.62924857323058e-06
endloop
endfacet
facet normal 4.04499783572262e-08 -2.1176312232021e-16 -0.999999999999999
outer loop
vertex 32.5 -42.0 1.80892031207106e-14
vertex -32.4999999574942 42.000000732508 -2.62924859119924e-06
vertex 32.5 42.0 4.81663127899549e-16
endloop
endfacet
endsolid Base No Motor
