solid Crankshaft
facet normal -1.0 -0.0 0.0
outer loop
vertex -23.5892890981112 0.0 4.0
vertex -23.5892890981112 4.0 1.59594559789866e-15
vertex -23.5892890981112 2.8199664825479e-15 4.16333634234427e-17
endloop
endfacet
facet normal -1.0 -0.0 0.0
outer loop
vertex -23.5892890981112 4.0 1.59594559789866e-15
vertex -23.5892890981112 0.0 4.0
vertex -23.5892890981112 4.0 4.0
endloop
endfacet
facet normal -2.44925332916979e-17 -6.45801806675536e-16 1.0
outer loop
vertex -23.5892890981112 0.0 4.0
vertex -4.0 4.0 4.0
vertex -23.5892890981112 4.0 4.0
endloop
endfacet
facet normal -2.44925332916979e-17 -6.45801806675536e-16 1.0
outer loop
vertex -4.00000000000002 13.5 4.00000000000001
vertex 0.0 9.50000000000001 4.00000000000001
vertex 7.75000000000002 13.5 4.00000000000001
endloop
endfacet
facet normal -2.44925332916979e-17 -6.45801806675536e-16 1.0
outer loop
vertex 0.0 9.50000000000001 4.00000000000001
vertex -4.00000000000002 13.5 4.00000000000001
vertex -4.0 4.0 4.0
endloop
endfacet
facet normal -2.44925332916979e-17 -6.45801806675536e-16 1.0
outer loop
vertex 0.0 9.50000000000001 4.00000000000001
vertex -4.0 4.0 4.0
vertex 0.0 0.0 4.0
endloop
endfacet
facet normal -2.44925332916979e-17 -6.45801806675536e-16 1.0
outer loop
vertex 0.0 0.0 4.0
vertex -4.0 4.0 4.0
vertex -23.5892890981112 0.0 4.0
endloop
endfacet
facet normal -2.44925332916979e-17 -6.45801806675536e-16 1.0
outer loop
vertex 7.75000000000002 9.50000000000001 4.00000000000001
vertex 7.75000000000002 13.5 4.00000000000001
vertex 0.0 9.50000000000001 4.00000000000001
endloop
endfacet
facet normal 0.0 -1.0 -3.88578058618805e-16
outer loop
vertex 7.75000000000002 9.50000000000001 6.55309140284999e-15
vertex 0.0 9.50000000000001 4.00000000000001
vertex 0.0 9.50000000000001 5.14310816157604e-15
endloop
endfacet
facet normal 0.0 -1.0 -3.88578058618805e-16
outer loop
vertex 0.0 9.50000000000001 4.00000000000001
vertex 7.75000000000002 9.50000000000001 6.55309140284999e-15
vertex 7.75000000000002 9.50000000000001 4.00000000000001
endloop
endfacet
facet normal 1.0 0.0 0.0
outer loop
vertex 0.0 9.50000000000001 5.14310816157604e-15
vertex 0.0 0.0 4.0
vertex 0.0 2.8199664825479e-15 4.16333634234427e-17
endloop
endfacet
facet normal 1.0 0.0 0.0
outer loop
vertex 0.0 0.0 4.0
vertex 0.0 9.50000000000001 5.14310816157604e-15
vertex 0.0 9.50000000000001 4.00000000000001
endloop
endfacet
facet normal 2.71945189866463e-17 5.57160944973978e-16 -1.0
outer loop
vertex 7.75000000000002 9.50000000000001 6.55309140284999e-15
vertex -4.00000000000002 13.5 8.1074036373252e-15
vertex 7.75000000000002 13.5 8.1074036373252e-15
endloop
endfacet
facet normal 2.71945189866463e-17 5.57160944973978e-16 -1.0
outer loop
vertex -4.00000000000002 13.5 8.1074036373252e-15
vertex 7.75000000000002 9.50000000000001 6.55309140284999e-15
vertex 0.0 9.50000000000001 5.14310816157604e-15
endloop
endfacet
facet normal 2.71945189866463e-17 5.57160944973978e-16 -1.0
outer loop
vertex -4.00000000000002 13.5 8.1074036373252e-15
vertex 0.0 9.50000000000001 5.14310816157604e-15
vertex -4.0 4.0 1.59594559789866e-15
endloop
endfacet
facet normal 2.71945189866463e-17 5.57160944973978e-16 -1.0
outer loop
vertex -4.0 4.0 1.59594559789866e-15
vertex 0.0 9.50000000000001 5.14310816157604e-15
vertex 0.0 2.8199664825479e-15 4.16333634234427e-17
endloop
endfacet
facet normal 2.71945189866463e-17 5.57160944973978e-16 -1.0
outer loop
vertex -4.0 4.0 1.59594559789866e-15
vertex 0.0 2.8199664825479e-15 4.16333634234427e-17
vertex -23.5892890981112 4.0 1.59594559789866e-15
endloop
endfacet
facet normal 2.71945189866463e-17 5.57160944973978e-16 -1.0
outer loop
vertex -23.5892890981112 4.0 1.59594559789866e-15
vertex 0.0 2.8199664825479e-15 4.16333634234427e-17
vertex -23.5892890981112 2.8199664825479e-15 4.16333634234427e-17
endloop
endfacet
facet normal 0.0 -1.0 -3.88578058618805e-16
outer loop
vertex 0.0 2.8199664825479e-15 4.16333634234427e-17
vertex -23.5892890981112 0.0 4.0
vertex -23.5892890981112 2.8199664825479e-15 4.16333634234427e-17
endloop
endfacet
facet normal 0.0 -1.0 -3.88578058618805e-16
outer loop
vertex -23.5892890981112 0.0 4.0
vertex 0.0 2.8199664825479e-15 4.16333634234427e-17
vertex 0.0 0.0 4.0
endloop
endfacet
facet normal 0.0 1.0 3.88578058618805e-16
outer loop
vertex -4.0 4.0 4.0
vertex -23.5892890981112 4.0 1.59594559789866e-15
vertex -23.5892890981112 4.0 4.0
endloop
endfacet
facet normal 0.0 1.0 3.88578058618805e-16
outer loop
vertex -23.5892890981112 4.0 1.59594559789866e-15
vertex -4.0 4.0 4.0
vertex -4.0 4.0 1.59594559789866e-15
endloop
endfacet
facet normal -1.0 -1.46838491398944e-15 -1.10520626980376e-30
outer loop
vertex -4.0 4.0 4.0
vertex -4.00000000000002 13.5 8.1074036373252e-15
vertex -4.0 4.0 1.59594559789866e-15
endloop
endfacet
facet normal -1.0 -1.46838491398944e-15 -1.10520626980376e-30
outer loop
vertex -4.00000000000002 13.5 8.1074036373252e-15
vertex -4.0 4.0 4.0
vertex -4.00000000000002 13.5 4.00000000000001
endloop
endfacet
facet normal 1.0 0.0 0.0
outer loop
vertex 7.75000000000002 13.5 4.00000000000001
vertex 7.75000000000002 9.50000000000001 6.55309140284999e-15
vertex 7.75000000000002 13.5 8.1074036373252e-15
endloop
endfacet
facet normal 1.0 0.0 0.0
outer loop
vertex 7.75000000000002 9.50000000000001 6.55309140284999e-15
vertex 7.75000000000002 13.5 4.00000000000001
vertex 7.75000000000002 9.50000000000001 4.00000000000001
endloop
endfacet
facet normal 1.7494132606075e-16 1.0 3.88578058618804e-16
outer loop
vertex 7.75000000000002 13.5 4.00000000000001
vertex -4.00000000000002 13.5 8.1074036373252e-15
vertex -4.00000000000002 13.5 4.00000000000001
endloop
endfacet
facet normal 1.7494132606075e-16 1.0 3.88578058618804e-16
outer loop
vertex -4.00000000000002 13.5 8.1074036373252e-15
vertex 7.75000000000002 13.5 4.00000000000001
vertex 7.75000000000002 13.5 8.1074036373252e-15
endloop
endfacet
endsolid Crankshaft
