solid Journal Crankshaft
facet normal 0.99966061929712 0.0260508392666808 -4.75651752416291e-15
outer loop
vertex 3.99864247718849 0.104203357066725 -5.63993296509579e-15
vertex 3.96917420564831 0.495637090235093 23.0
vertex 3.99864247718855 0.104203357066712 23.0
endloop
endfacet
facet normal 0.992293551412059 0.123909272558774 -4.66205084213687e-15
outer loop
vertex 3.96917420564831 0.495637090235093 23.0
vertex 3.99864247718849 0.104203357066725 -5.63993296509579e-15
vertex 3.96917420564824 0.4956370902351 -7.04991620636974e-15
endloop
endfacet
facet normal -0.845660498402844 0.533721201978198 4.36106951281536e-15
outer loop
vertex -3.38264199361131 2.13488480791278 23.0
vertex -3.57560895164668 1.79304785906685 2.96096480667529e-14
vertex -3.5756089516466 1.79304785906684 23.0
endloop
endfacet
facet normal -0.893902237911667 0.448261964766712 4.53958056261759e-15
outer loop
vertex -3.57560895164668 1.79304785906685 2.96096480667529e-14
vertex -3.38264199361131 2.13488480791278 23.0
vertex -3.38264199361139 2.13488480791279 2.6789681584205e-14
endloop
endfacet
facet normal 0.78927458600935 -0.614040412252947 -4.13999422001082e-15
outer loop
vertex 3.1570983440374 -2.45616164901179 -1.40998324127395e-15
vertex 3.38264199361144 -2.1348848079128 23.0
vertex 3.15709834403748 -2.4561616490118 23.0
endloop
endfacet
facet normal 0.845660498402845 -0.533721201978198 -4.36162671513859e-15
outer loop
vertex 3.38264199361144 -2.1348848079128 23.0
vertex 3.1570983440374 -2.45616164901179 -1.40998324127395e-15
vertex 3.38264199361139 -2.13488480791279 -7.04991620636974e-15
endloop
endfacet
facet normal 1.0 2.40400497987451e-15 -2.31592522916128e-15
outer loop
vertex -2.14999999999998 -2.15 1.12798659301916e-14
vertex -2.14999999999993 2.14999999999999 23.0
vertex -2.14999999999993 -2.15000000000001 23.0
endloop
endfacet
facet normal 1.0 2.40400497987451e-15 -2.31592522916128e-15
outer loop
vertex -2.14999999999993 2.14999999999999 23.0
vertex -2.14999999999998 -2.15 1.12798659301916e-14
vertex -2.15000000000001 2.15 1.40998324127395e-14
endloop
endfacet
facet normal -0.78927458600935 0.614040412252947 4.14157376990217e-15
outer loop
vertex -3.15709834403732 2.45616164901178 23.0
vertex -3.38264199361139 2.13488480791279 2.6789681584205e-14
vertex -3.38264199361131 2.13488480791278 23.0
endloop
endfacet
facet normal -0.845660498402845 0.533721201978198 4.36106951281536e-15
outer loop
vertex -3.38264199361139 2.13488480791279 2.6789681584205e-14
vertex -3.15709834403732 2.45616164901178 23.0
vertex -3.15709834403738 2.45616164901178 3.10196313080269e-14
endloop
endfacet
facet normal -0.315115259110625 0.949053409179717 2.08071583943898e-15
outer loop
vertex -1.26046103644248 3.79621363671887 1.69197988952874e-14
vertex -0.882297567281632 3.90148061673626 23.0
vertex -0.882297567281711 3.90148061673627 1.55098156540134e-14
endloop
endfacet
facet normal -0.220574391820429 0.975370154184066 1.64569391407519e-15
outer loop
vertex -0.882297567281632 3.90148061673626 23.0
vertex -1.26046103644248 3.79621363671887 1.69197988952874e-14
vertex -1.2604610364424 3.79621363671886 23.0
endloop
endfacet
facet normal 0.169473832430605 0.98553468742672 -2.09877726420403e-16
outer loop
vertex 0.677895329722438 3.94213874970688 1.12798659301916e-14
vertex 1.06102824545086 3.85671091246875 23.0
vertex 1.06102824545078 3.85671091246876 8.45989944764369e-15
endloop
endfacet
facet normal 0.265257061362696 0.964177728117191 -6.80272384982816e-16
outer loop
vertex 1.06102824545086 3.85671091246875 23.0
vertex 0.677895329722438 3.94213874970688 1.12798659301916e-14
vertex 0.677895329722494 3.94213874970687 23.0
endloop
endfacet
facet normal -0.816714356719353 -0.577042164428644 3.54817967410962e-15
outer loop
vertex -3.26685742687732 -2.30816865771459 23.0
vertex -3.02488652421654 -2.61726221758792 2.11497486191092e-14
vertex -3.02488652421646 -2.61726221758794 23.0
endloop
endfacet
facet normal -0.756221631054133 -0.65431555439698 3.2121409924828e-15
outer loop
vertex -3.02488652421654 -2.61726221758792 2.11497486191092e-14
vertex -3.26685742687732 -2.30816865771459 23.0
vertex -3.26685742687742 -2.30816865771458 2.53796983429311e-14
endloop
endfacet
facet normal 0.358485719789606 0.933535210212731 -1.14398226473523e-15
outer loop
vertex 1.43394287915842 3.73414084085093 2.8199664825479e-15
vertex 1.79304785906693 3.57560895164666 23.0
vertex 1.79304785906685 3.57560895164667 -2.8199664825479e-15
endloop
endfacet
facet normal 0.448261964766711 0.893902237911668 -1.59650583386407e-15
outer loop
vertex 1.79304785906693 3.57560895164666 23.0
vertex 1.43394287915842 3.73414084085093 2.8199664825479e-15
vertex 1.43394287915853 3.73414084085092 23.0
endloop
endfacet
facet normal 0.869341676667884 0.494211542973525 -3.85056678820937e-15
outer loop
vertex 3.47736670667153 1.9768461718941 -4.22994972382185e-15
vertex 3.2668574268775 2.30816865771457 23.0
vertex 3.47736670667162 1.97684617189409 23.0
endloop
endfacet
facet normal 0.816714356719353 0.577042164428644 -3.54853141142835e-15
outer loop
vertex 3.2668574268775 2.30816865771457 23.0
vertex 3.47736670667153 1.9768461718941 -4.22994972382185e-15
vertex 3.26685742687742 2.30816865771457 1.40998324127395e-15
endloop
endfacet
facet normal 0.0260508392666806 -0.99966061929712 -7.318208203548e-16
outer loop
vertex 0.104203357066809 -3.99864247718849 23.0
vertex -0.288233911393556 -3.98960163579307 8.45989944764369e-15
vertex 0.104203357066702 -3.99864247718848 7.04991620636974e-15
endloop
endfacet
facet normal -0.0720584778483891 -0.997400408948269 -2.62039737458352e-16
outer loop
vertex -0.288233911393556 -3.98960163579307 8.45989944764369e-15
vertex 0.104203357066809 -3.99864247718849 23.0
vertex -0.288233911393471 -3.98960163579308 23.0
endloop
endfacet
facet normal -0.654315554396981 0.756221631054132 3.58325652028695e-15
outer loop
vertex -2.61726221758791 3.02488652421653 2.39697151016571e-14
vertex -2.3081686577145 3.2668574268774 23.0
vertex -2.30816865771458 3.26685742687741 1.26898491714655e-14
endloop
endfacet
facet normal -0.577042164428645 0.816714356719352 3.25073273424404e-15
outer loop
vertex -2.3081686577145 3.2668574268774 23.0
vertex -2.61726221758791 3.02488652421653 2.39697151016571e-14
vertex -2.61726221758785 3.02488652421652 23.0
endloop
endfacet
facet normal -0.99966061929712 -0.0260508392666798 4.75650798344665e-15
outer loop
vertex -3.99864247718839 -0.104203357066736 23.0
vertex -3.96917420564825 -0.495637090235097 3.38395977905748e-14
vertex -3.96917420564816 -0.495637090235116 23.0
endloop
endfacet
facet normal -0.992293551412059 -0.123909272558774 4.66179511717201e-15
outer loop
vertex -3.96917420564825 -0.495637090235097 3.38395977905748e-14
vertex -3.99864247718839 -0.104203357066736 23.0
vertex -3.99864247718847 -0.104203357066722 3.38395977905748e-14
endloop
endfacet
facet normal 0.265257061362696 0.96417772811719 -6.80272384982818e-16
outer loop
vertex 1.06102824545078 3.85671091246876 8.45989944764369e-15
vertex 1.43394287915853 3.73414084085092 23.0
vertex 1.43394287915842 3.73414084085093 2.8199664825479e-15
endloop
endfacet
facet normal 0.358485719789605 0.933535210212732 -1.14398226473523e-15
outer loop
vertex 1.43394287915853 3.73414084085092 23.0
vertex 1.06102824545078 3.85671091246876 8.45989944764369e-15
vertex 1.06102824545086 3.85671091246875 23.0
endloop
endfacet
facet normal -0.169473832430606 -0.98553468742672 2.10668363706617e-16
outer loop
vertex -0.677895329722335 -3.94213874970689 23.0
vertex -1.0610282454508 -3.85671091246876 1.40998324127395e-14
vertex -0.67789532972242 -3.94213874970688 1.12798659301916e-14
endloop
endfacet
facet normal -0.265257061362697 -0.96417772811719 6.80691144983123e-16
outer loop
vertex -1.0610282454508 -3.85671091246876 1.40998324127395e-14
vertex -0.677895329722335 -3.94213874970689 23.0
vertex -1.06102824545072 -3.85671091246877 23.0
endloop
endfacet
facet normal -0.123909272558774 0.992293551412058 1.19450746143127e-15
outer loop
vertex -0.495637090235104 3.96917420564824 1.69197988952874e-14
vertex -0.10420335706665 3.99864247718847 23.0
vertex -0.104203357066729 3.99864247718848 1.12798659301916e-14
endloop
endfacet
facet normal -0.0260508392666794 0.99966061929712 7.31877868231809e-16
outer loop
vertex -0.10420335706665 3.99864247718847 23.0
vertex -0.495637090235104 3.96917420564824 1.69197988952874e-14
vertex -0.495637090235002 3.96917420564822 23.0
endloop
endfacet
facet normal -0.756221631054133 -0.65431555439698 3.2121409924828e-15
outer loop
vertex -3.02488652421646 -2.61726221758794 23.0
vertex -2.75378431075628 -2.90115011156483 2.25597318603832e-14
vertex -2.7537843107562 -2.90115011156484 23.0
endloop
endfacet
facet normal -0.688446077689067 -0.725287527891208 2.84600837227946e-15
outer loop
vertex -2.75378431075628 -2.90115011156483 2.25597318603832e-14
vertex -3.02488652421646 -2.61726221758794 23.0
vertex -3.02488652421654 -2.61726221758792 2.11497486191092e-14
endloop
endfacet
facet normal 0.123909272558775 -0.992293551412058 -1.19468705559845e-15
outer loop
vertex 0.495637090235183 -3.96917420564824 23.0
vertex 0.104203357066702 -3.99864247718848 7.04991620636974e-15
vertex 0.495637090235099 -3.96917420564824 5.63993296509579e-15
endloop
endfacet
facet normal 0.0260508392666802 -0.99966061929712 -7.31820820354798e-16
outer loop
vertex 0.104203357066702 -3.99864247718848 7.04991620636974e-15
vertex 0.495637090235183 -3.96917420564824 23.0
vertex 0.104203357066809 -3.99864247718849 23.0
endloop
endfacet
facet normal 0.315115259110623 -0.949053409179718 -2.08142518244354e-15
outer loop
vertex 1.26046103644259 -3.79621363671888 23.0
vertex 0.882297567281706 -3.90148061673626 9.86988268891764e-15
vertex 1.2604610364425 -3.79621363671888 7.04991620636974e-15
endloop
endfacet
facet normal 0.220574391820428 -0.975370154184066 -1.6463742349209e-15
outer loop
vertex 0.882297567281706 -3.90148061673626 9.86988268891764e-15
vertex 1.26046103644259 -3.79621363671888 23.0
vertex 0.882297567281813 -3.90148061673628 23.0
endloop
endfacet
facet normal -0.406621394196061 0.913596761039602 2.49625491247706e-15
outer loop
vertex -1.62648557678417 3.65438704415839 23.0
vertex -1.26046103644248 3.79621363671887 1.69197988952874e-14
vertex -1.62648557678425 3.65438704415841 7.04991620636974e-15
endloop
endfacet
facet normal -0.315115259110625 0.949053409179717 2.08071583943898e-15
outer loop
vertex -1.26046103644248 3.79621363671887 1.69197988952874e-14
vertex -1.62648557678417 3.65438704415839 23.0
vertex -1.2604610364424 3.79621363671886 23.0
endloop
endfacet
facet normal -0.992293551412059 -0.123909272558773 4.66179511717201e-15
outer loop
vertex -3.96917420564816 -0.495637090235116 23.0
vertex -3.90148061673626 -0.88229756728171 2.8199664825479e-14
vertex -3.90148061673619 -0.882297567281723 23.0
endloop
endfacet
facet normal -0.975370154184066 -0.220574391820429 4.52239149803168e-15
outer loop
vertex -3.90148061673626 -0.88229756728171 2.8199664825479e-14
vertex -3.96917420564816 -0.495637090235116 23.0
vertex -3.96917420564825 -0.495637090235097 3.38395977905748e-14
endloop
endfacet
facet normal -0.0260508392666794 0.99966061929712 7.31877868231809e-16
outer loop
vertex -0.10420335706665 3.99864247718847 23.0
vertex 0.288233911393528 3.98960163579307 1.12798659301916e-14
vertex -0.104203357066729 3.99864247718848 1.12798659301916e-14
endloop
endfacet
facet normal 0.0720584778483889 0.997400408948269 2.62098377488526e-16
outer loop
vertex 0.288233911393528 3.98960163579307 1.12798659301916e-14
vertex -0.10420335706665 3.99864247718847 23.0
vertex 0.288233911393653 3.98960163579306 23.0
endloop
endfacet
facet normal 0.845660498402845 -0.533721201978198 -4.36162671513859e-15
outer loop
vertex 3.38264199361139 -2.13488480791279 -7.04991620636974e-15
vertex 3.57560895164676 -1.79304785906685 23.0
vertex 3.38264199361144 -2.1348848079128 23.0
endloop
endfacet
facet normal 0.893902237911668 -0.448261964766711 -4.53955961219393e-15
outer loop
vertex 3.57560895164676 -1.79304785906685 23.0
vertex 3.38264199361139 -2.13488480791279 -7.04991620636974e-15
vertex 3.57560895164666 -1.79304785906684 -4.22994972382185e-15
endloop
endfacet
facet normal -0.96417772811719 0.265257061362697 4.7645445434167e-15
outer loop
vertex -3.85671091246868 1.06102824545078 23.0
vertex -3.94213874970689 0.677895329722427 3.38395977905748e-14
vertex -3.94213874970679 0.677895329722414 23.0
endloop
endfacet
facet normal -0.98553468742672 0.169473832430605 4.8079810339882e-15
outer loop
vertex -3.94213874970689 0.677895329722427 3.38395977905748e-14
vertex -3.85671091246868 1.06102824545078 23.0
vertex -3.85671091246875 1.06102824545079 2.8199664825479e-14
endloop
endfacet
facet normal -0.725287527891208 0.688446077689066 3.88153859966723e-15
outer loop
vertex -2.90115011156476 2.75378431075626 23.0
vertex -2.61726221758791 3.02488652421653 2.39697151016571e-14
vertex -2.90115011156483 2.75378431075626 2.25597318603832e-14
endloop
endfacet
facet normal -0.654315554396981 0.756221631054132 3.58325652028695e-15
outer loop
vertex -2.61726221758791 3.02488652421653 2.39697151016571e-14
vertex -2.90115011156476 2.75378431075626 23.0
vertex -2.61726221758785 3.02488652421652 23.0
endloop
endfacet
facet normal -0.933535210212731 0.358485719789605 4.67488707944094e-15
outer loop
vertex -3.73414084085085 1.43394287915841 23.0
vertex -3.85671091246875 1.06102824545079 2.8199664825479e-14
vertex -3.85671091246868 1.06102824545078 23.0
endloop
endfacet
facet normal -0.96417772811719 0.265257061362697 4.7645445434167e-15
outer loop
vertex -3.85671091246875 1.06102824545079 2.8199664825479e-14
vertex -3.73414084085085 1.43394287915841 23.0
vertex -3.73414084085093 1.43394287915843 2.96096480667529e-14
endloop
endfacet
facet normal -0.997400408948269 0.0720584778483874 4.80526403044218e-15
outer loop
vertex -3.989601635793 0.288233911393539 23.0
vertex -3.99864247718847 -0.104203357066722 3.38395977905748e-14
vertex -3.99864247718839 -0.104203357066736 23.0
endloop
endfacet
facet normal -0.99966061929712 -0.0260508392666797 4.75650798344665e-15
outer loop
vertex -3.99864247718847 -0.104203357066722 3.38395977905748e-14
vertex -3.989601635793 0.288233911393539 23.0
vertex -3.98960163579308 0.288233911393558 2.8199664825479e-14
endloop
endfacet
facet normal -8.75025813785839e-16 -1.0 -1.23291557841629e-15
outer loop
vertex 2.15000000000009 2.14999999999999 23.0
vertex -2.15000000000001 2.15 1.40998324127395e-14
vertex 2.15 2.15 -8.45989944764369e-15
endloop
endfacet
facet normal -8.75025813785839e-16 -1.0 -1.23291557841629e-15
outer loop
vertex -2.15000000000001 2.15 1.40998324127395e-14
vertex 2.15000000000009 2.14999999999999 23.0
vertex -2.14999999999993 2.14999999999999 23.0
endloop
endfacet
facet normal -0.893902237911668 0.448261964766712 4.53958056261759e-15
outer loop
vertex -3.5756089516466 1.79304785906684 23.0
vertex -3.73414084085093 1.43394287915843 2.96096480667529e-14
vertex -3.73414084085085 1.43394287915841 23.0
endloop
endfacet
facet normal -0.933535210212732 0.358485719789605 4.67488707944094e-15
outer loop
vertex -3.73414084085093 1.43394287915843 2.96096480667529e-14
vertex -3.5756089516466 1.79304785906684 23.0
vertex -3.57560895164668 1.79304785906685 2.96096480667529e-14
endloop
endfacet
facet normal -0.220574391820429 0.975370154184066 1.64569391407519e-15
outer loop
vertex -0.882297567281632 3.90148061673626 23.0
vertex -0.495637090235104 3.96917420564824 1.69197988952874e-14
vertex -0.882297567281711 3.90148061673627 1.55098156540134e-14
endloop
endfacet
facet normal -0.123909272558774 0.992293551412058 1.19450746143127e-15
outer loop
vertex -0.495637090235104 3.96917420564824 1.69197988952874e-14
vertex -0.882297567281632 3.90148061673626 23.0
vertex -0.495637090235002 3.96917420564822 23.0
endloop
endfacet
facet normal 0.913596761039602 0.406621394196061 -4.11458080344013e-15
outer loop
vertex 3.65438704415842 1.62648557678425 -5.63993296509579e-15
vertex 3.47736670667162 1.97684617189409 23.0
vertex 3.65438704415847 1.62648557678423 23.0
endloop
endfacet
facet normal 0.869341676667884 0.494211542973525 -3.85056678820937e-15
outer loop
vertex 3.47736670667162 1.97684617189409 23.0
vertex 3.65438704415842 1.62648557678425 -5.63993296509579e-15
vertex 3.47736670667153 1.9768461718941 -4.22994972382185e-15
endloop
endfacet
facet normal -0.975370154184066 -0.220574391820429 4.52239149803168e-15
outer loop
vertex -3.90148061673619 -0.882297567281723 23.0
vertex -3.79621363671886 -1.26046103644249 2.8199664825479e-14
vertex -3.79621363671881 -1.26046103644251 23.0
endloop
endfacet
facet normal -0.949053409179718 -0.315115259110623 4.33926976888087e-15
outer loop
vertex -3.79621363671886 -1.26046103644249 2.8199664825479e-14
vertex -3.90148061673619 -0.882297567281723 23.0
vertex -3.90148061673626 -0.88229756728171 2.8199664825479e-14
endloop
endfacet
facet normal -0.0720584778483886 -0.997400408948269 -2.62039737458354e-16
outer loop
vertex -0.288233911393471 -3.98960163579308 23.0
vertex -0.67789532972242 -3.94213874970688 1.12798659301916e-14
vertex -0.288233911393556 -3.98960163579307 8.45989944764369e-15
endloop
endfacet
facet normal -0.169473832430605 -0.98553468742672 2.10668363706617e-16
outer loop
vertex -0.67789532972242 -3.94213874970688 1.12798659301916e-14
vertex -0.288233911393471 -3.98960163579308 23.0
vertex -0.677895329722335 -3.94213874970689 23.0
endloop
endfacet
facet normal -4.36586503678307e-16 1.0 1.04928985397135e-16
outer loop
vertex -2.14999999999998 -2.15 1.12798659301916e-14
vertex 2.15000000000006 -2.15000000000001 23.0
vertex 2.14999999999998 -2.15 -1.26898491714655e-14
endloop
endfacet
facet normal -4.36586503678307e-16 1.0 1.04928985397135e-16
outer loop
vertex 2.15000000000006 -2.15000000000001 23.0
vertex -2.14999999999998 -2.15 1.12798659301916e-14
vertex -2.14999999999993 -2.15000000000001 23.0
endloop
endfacet
facet normal 0.975370154184066 0.220574391820429 -4.52268059992336e-15
outer loop
vertex 3.90148061673627 0.882297567281718 -8.45989944764369e-15
vertex 3.79621363671894 1.26046103644249 23.0
vertex 3.90148061673635 0.8822975672817 23.0
endloop
endfacet
facet normal 0.949053409179718 0.315115259110623 -4.3393493987314e-15
outer loop
vertex 3.79621363671894 1.26046103644249 23.0
vertex 3.90148061673627 0.882297567281718 -8.45989944764369e-15
vertex 3.79621363671887 1.2604610364425 -5.63993296509579e-15
endloop
endfacet
facet normal -0.577042164428645 0.816714356719352 3.25073273424404e-15
outer loop
vertex -2.3081686577145 3.2668574268774 23.0
vertex -1.9768461718941 3.47736670667154 1.26898491714655e-14
vertex -2.30816865771458 3.26685742687741 1.26898491714655e-14
endloop
endfacet
facet normal -0.494211542973525 0.869341676667884 2.88774463947276e-15
outer loop
vertex -1.9768461718941 3.47736670667154 1.26898491714655e-14
vertex -2.3081686577145 3.2668574268774 23.0
vertex -1.97684617189402 3.47736670667153 23.0
endloop
endfacet
facet normal 0.533721201978198 0.845660498402845 -2.03423921800164e-15
outer loop
vertex 2.13488480791289 3.38264199361137 23.0
vertex 2.45616164901179 3.1570983440374 -2.8199664825479e-15
vertex 2.13488480791279 3.38264199361138 -8.45989944764369e-15
endloop
endfacet
facet normal 0.614040412252946 0.789274586009351 -2.45148192011067e-15
outer loop
vertex 2.45616164901179 3.1570983440374 -2.8199664825479e-15
vertex 2.13488480791289 3.38264199361137 23.0
vertex 2.45616164901187 3.15709834403739 23.0
endloop
endfacet
facet normal 0.614040412252946 0.789274586009351 -2.45148192011067e-15
outer loop
vertex 2.45616164901187 3.15709834403739 23.0
vertex 2.75378431075626 2.90115011156483 0.0
vertex 2.45616164901179 3.1570983440374 -2.8199664825479e-15
endloop
endfacet
facet normal 0.688446077689066 0.725287527891209 -2.84496859684009e-15
outer loop
vertex 2.75378431075626 2.90115011156483 0.0
vertex 2.45616164901187 3.15709834403739 23.0
vertex 2.75378431075634 2.90115011156482 23.0
endloop
endfacet
facet normal -0.913596761039603 -0.40662139419606 4.11412713860836e-15
outer loop
vertex -3.65438704415834 -1.62648557678426 23.0
vertex -3.47736670667156 -1.9768461718941 3.10196313080269e-14
vertex -3.47736670667146 -1.97684617189411 23.0
endloop
endfacet
facet normal -0.869341676667884 -0.494211542973525 3.84980763805087e-15
outer loop
vertex -3.47736670667156 -1.9768461718941 3.10196313080269e-14
vertex -3.65438704415834 -1.62648557678426 23.0
vertex -3.65438704415842 -1.62648557678424 2.6789681584205e-14
endloop
endfacet
facet normal 0.997400408948269 -0.0720584778483883 -4.80527357105492e-15
outer loop
vertex 3.98960163579307 -0.28823391139355 -1.12798659301916e-14
vertex 3.99864247718855 0.104203357066712 23.0
vertex 3.98960163579314 -0.288233911393562 23.0
endloop
endfacet
facet normal 0.99966061929712 0.0260508392666809 -4.75651752416291e-15
outer loop
vertex 3.99864247718855 0.104203357066712 23.0
vertex 3.98960163579307 -0.28823391139355 -1.12798659301916e-14
vertex 3.99864247718849 0.104203357066725 -5.63993296509579e-15
endloop
endfacet
facet normal 0.725287527891208 -0.688446077689066 -3.87955279628205e-15
outer loop
vertex 2.90115011156491 -2.75378431075628 23.0
vertex 2.61726221758793 -3.02488652421653 -2.8199664825479e-15
vertex 2.90115011156484 -2.75378431075627 -4.22994972382185e-15
endloop
endfacet
facet normal 0.65431555439698 -0.756221631054133 -3.58268083530402e-15
outer loop
vertex 2.61726221758793 -3.02488652421653 -2.8199664825479e-15
vertex 2.90115011156491 -2.75378431075628 23.0
vertex 2.61726221758801 -3.02488652421654 23.0
endloop
endfacet
facet normal -0.494211542973525 0.869341676667884 2.88774463947276e-15
outer loop
vertex -1.9768461718941 3.47736670667154 1.26898491714655e-14
vertex -1.62648557678417 3.65438704415839 23.0
vertex -1.62648557678425 3.65438704415841 7.04991620636974e-15
endloop
endfacet
facet normal -0.406621394196061 0.913596761039602 2.49625491247706e-15
outer loop
vertex -1.62648557678417 3.65438704415839 23.0
vertex -1.9768461718941 3.47736670667154 1.26898491714655e-14
vertex -1.97684617189402 3.47736670667153 23.0
endloop
endfacet
facet normal 0.65431555439698 -0.756221631054133 -3.58268083530402e-15
outer loop
vertex 2.61726221758793 -3.02488652421653 -2.8199664825479e-15
vertex 2.30816865771466 -3.26685742687742 23.0
vertex 2.30816865771456 -3.26685742687741 -1.40998324127395e-14
endloop
endfacet
facet normal 0.577042164428644 -0.816714356719352 -3.25055160649789e-15
outer loop
vertex 2.30816865771466 -3.26685742687742 23.0
vertex 2.61726221758793 -3.02488652421653 -2.8199664825479e-15
vertex 2.61726221758801 -3.02488652421654 23.0
endloop
endfacet
facet normal -0.448261964766712 -0.893902237911667 1.59690852727867e-15
outer loop
vertex -1.79304785906675 -3.57560895164668 23.0
vertex -2.13488480791279 -3.38264199361138 7.04991620636974e-15
vertex -1.79304785906686 -3.57560895164667 5.63993296509579e-15
endloop
endfacet
facet normal -0.533721201978198 -0.845660498402845 2.03406375830702e-15
outer loop
vertex -2.13488480791279 -3.38264199361138 7.04991620636974e-15
vertex -1.79304785906675 -3.57560895164668 23.0
vertex -2.13488480791271 -3.38264199361139 23.0
endloop
endfacet
facet normal -0.614040412252947 -0.78927458600935 2.45213533349877e-15
outer loop
vertex -2.45616164901169 -3.15709834403741 23.0
vertex -2.75378431075628 -2.90115011156483 2.25597318603832e-14
vertex -2.45616164901179 -3.1570983440374 2.25597318603832e-14
endloop
endfacet
facet normal -0.688446077689067 -0.725287527891208 2.84600837227946e-15
outer loop
vertex -2.75378431075628 -2.90115011156483 2.25597318603832e-14
vertex -2.45616164901169 -3.15709834403741 23.0
vertex -2.7537843107562 -2.90115011156484 23.0
endloop
endfacet
facet normal 0.756221631054133 0.65431555439698 -3.21193008945325e-15
outer loop
vertex 3.02488652421653 2.61726221758792 -1.40998324127395e-15
vertex 2.75378431075634 2.90115011156482 23.0
vertex 3.0248865242166 2.61726221758791 23.0
endloop
endfacet
facet normal 0.688446077689066 0.725287527891208 -2.84496859684009e-15
outer loop
vertex 2.75378431075634 2.90115011156482 23.0
vertex 3.02488652421653 2.61726221758792 -1.40998324127395e-15
vertex 2.75378431075626 2.90115011156483 0.0
endloop
endfacet
facet normal 0.494211542973526 -0.869341676667884 -2.88735898566913e-15
outer loop
vertex 1.9768461718941 -3.47736670667154 -9.86988268891764e-15
vertex 1.62648557678433 -3.65438704415842 23.0
vertex 1.62648557678426 -3.65438704415841 -1.26898491714655e-14
endloop
endfacet
facet normal 0.40662139419606 -0.913596761039603 -2.49599024096202e-15
outer loop
vertex 1.62648557678433 -3.65438704415842 23.0
vertex 1.9768461718941 -3.47736670667154 -9.86988268891764e-15
vertex 1.97684617189418 -3.47736670667155 23.0
endloop
endfacet
facet normal 0.816714356719353 0.577042164428643 -3.54853141142835e-15
outer loop
vertex 3.26685742687742 2.30816865771457 1.40998324127395e-15
vertex 3.0248865242166 2.61726221758791 23.0
vertex 3.2668574268775 2.30816865771457 23.0
endloop
endfacet
facet normal 0.756221631054133 0.65431555439698 -3.21193008945325e-15
outer loop
vertex 3.0248865242166 2.61726221758791 23.0
vertex 3.26685742687742 2.30816865771457 1.40998324127395e-15
vertex 3.02488652421653 2.61726221758792 -1.40998324127395e-15
endloop
endfacet
facet normal 0.448261964766712 0.893902237911667 -1.59650583386407e-15
outer loop
vertex 1.79304785906685 3.57560895164667 -2.8199664825479e-15
vertex 2.13488480791289 3.38264199361137 23.0
vertex 2.13488480791279 3.38264199361138 -8.45989944764369e-15
endloop
endfacet
facet normal 0.533721201978198 0.845660498402845 -2.03423921800164e-15
outer loop
vertex 2.13488480791289 3.38264199361137 23.0
vertex 1.79304785906685 3.57560895164667 -2.8199664825479e-15
vertex 1.79304785906693 3.57560895164666 23.0
endloop
endfacet
facet normal -0.949053409179718 -0.315115259110624 4.33926976888087e-15
outer loop
vertex -3.79621363671881 -1.26046103644251 23.0
vertex -3.65438704415842 -1.62648557678424 2.6789681584205e-14
vertex -3.65438704415834 -1.62648557678426 23.0
endloop
endfacet
facet normal -0.913596761039603 -0.40662139419606 4.11412713860836e-15
outer loop
vertex -3.65438704415842 -1.62648557678424 2.6789681584205e-14
vertex -3.79621363671881 -1.26046103644251 23.0
vertex -3.79621363671886 -1.26046103644249 2.8199664825479e-14
endloop
endfacet
facet normal -0.869341676667884 -0.494211542973525 3.84980763805087e-15
outer loop
vertex -3.47736670667146 -1.97684617189411 23.0
vertex -3.26685742687742 -2.30816865771458 2.53796983429311e-14
vertex -3.26685742687732 -2.30816865771459 23.0
endloop
endfacet
facet normal -0.816714356719353 -0.577042164428644 3.54817967410962e-15
outer loop
vertex -3.26685742687742 -2.30816865771458 2.53796983429311e-14
vertex -3.47736670667146 -1.97684617189411 23.0
vertex -3.47736670667156 -1.9768461718941 3.10196313080269e-14
endloop
endfacet
facet normal 0.98553468742672 -0.169473832430606 -4.8076829772128e-15
outer loop
vertex 3.94213874970687 -0.677895329722425 -1.12798659301916e-14
vertex 3.98960163579314 -0.288233911393562 23.0
vertex 3.94213874970695 -0.677895329722438 23.0
endloop
endfacet
facet normal 0.997400408948269 -0.0720584778483881 -4.80527357105492e-15
outer loop
vertex 3.98960163579314 -0.288233911393562 23.0
vertex 3.94213874970687 -0.677895329722425 -1.12798659301916e-14
vertex 3.98960163579307 -0.28823391139355 -1.12798659301916e-14
endloop
endfacet
facet normal -0.725287527891208 0.688446077689066 3.88153859966723e-15
outer loop
vertex -2.90115011156476 2.75378431075626 23.0
vertex -3.15709834403738 2.45616164901178 3.10196313080269e-14
vertex -3.15709834403732 2.45616164901178 23.0
endloop
endfacet
facet normal -0.78927458600935 0.614040412252947 4.14157376990217e-15
outer loop
vertex -3.15709834403738 2.45616164901178 3.10196313080269e-14
vertex -2.90115011156476 2.75378431075626 23.0
vertex -2.90115011156483 2.75378431075626 2.25597318603832e-14
endloop
endfacet
facet normal -1.0 5.46566892491032e-15 4.5718984151996e-15
outer loop
vertex 2.15000000000009 2.14999999999999 23.0
vertex 2.14999999999998 -2.15 -1.26898491714655e-14
vertex 2.15000000000006 -2.15000000000001 23.0
endloop
endfacet
facet normal -1.0 5.46566892491032e-15 4.5718984151996e-15
outer loop
vertex 2.14999999999998 -2.15 -1.26898491714655e-14
vertex 2.15000000000009 2.14999999999999 23.0
vertex 2.15 2.15 -8.45989944764369e-15
endloop
endfacet
facet normal 0.577042164428644 -0.816714356719352 -3.25055160649789e-15
outer loop
vertex 2.30816865771466 -3.26685742687742 23.0
vertex 1.9768461718941 -3.47736670667154 -9.86988268891764e-15
vertex 2.30816865771456 -3.26685742687741 -1.40998324127395e-14
endloop
endfacet
facet normal 0.494211542973526 -0.869341676667884 -2.88735898566913e-15
outer loop
vertex 1.9768461718941 -3.47736670667154 -9.86988268891764e-15
vertex 2.30816865771466 -3.26685742687742 23.0
vertex 1.97684617189418 -3.47736670667155 23.0
endloop
endfacet
facet normal 0.992293551412058 0.123909272558774 -4.66205084213687e-15
outer loop
vertex 3.96917420564824 0.4956370902351 -7.04991620636974e-15
vertex 3.90148061673635 0.8822975672817 23.0
vertex 3.96917420564831 0.495637090235093 23.0
endloop
endfacet
facet normal 0.975370154184066 0.220574391820429 -4.52268059992336e-15
outer loop
vertex 3.90148061673635 0.8822975672817 23.0
vertex 3.96917420564824 0.4956370902351 -7.04991620636974e-15
vertex 3.90148061673627 0.882297567281718 -8.45989944764369e-15
endloop
endfacet
facet normal 0.893902237911668 -0.448261964766711 -4.53955961219393e-15
outer loop
vertex 3.57560895164666 -1.79304785906684 -4.22994972382185e-15
vertex 3.73414084085099 -1.43394287915844 23.0
vertex 3.57560895164676 -1.79304785906685 23.0
endloop
endfacet
facet normal 0.933535210212731 -0.358485719789606 -4.67438498523318e-15
outer loop
vertex 3.73414084085099 -1.43394287915844 23.0
vertex 3.57560895164666 -1.79304785906684 -4.22994972382185e-15
vertex 3.73414084085093 -1.43394287915842 -5.63993296509579e-15
endloop
endfacet
facet normal 5.49381112697149e-15 -5.40860564087378e-16 1.0
outer loop
vertex -3.96917420564816 -0.495637090235116 23.0
vertex -3.989601635793 0.288233911393539 23.0
vertex -3.99864247718839 -0.104203357066736 23.0
endloop
endfacet
facet normal 5.49381112697149e-15 -5.40860564087378e-16 1.0
outer loop
vertex -3.989601635793 0.288233911393539 23.0
vertex -3.96917420564816 -0.495637090235116 23.0
vertex -3.94213874970679 0.677895329722414 23.0
endloop
endfacet
facet normal 5.49381112697149e-15 -5.40860564087378e-16 1.0
outer loop
vertex -3.94213874970679 0.677895329722414 23.0
vertex -3.96917420564816 -0.495637090235116 23.0
vertex -3.90148061673619 -0.882297567281723 23.0
endloop
endfacet
facet normal 5.49381112697149e-15 -5.40860564087378e-16 1.0
outer loop
vertex -3.94213874970679 0.677895329722414 23.0
vertex -3.90148061673619 -0.882297567281723 23.0
vertex -3.85671091246868 1.06102824545078 23.0
endloop
endfacet
facet normal 5.49381112697149e-15 -5.40860564087378e-16 1.0
outer loop
vertex -3.85671091246868 1.06102824545078 23.0
vertex -3.90148061673619 -0.882297567281723 23.0
vertex -3.79621363671881 -1.26046103644251 23.0
endloop
endfacet
facet normal 5.49381112697149e-15 -5.40860564087378e-16 1.0
outer loop
vertex -3.85671091246868 1.06102824545078 23.0
vertex -3.79621363671881 -1.26046103644251 23.0
vertex -3.73414084085085 1.43394287915841 23.0
endloop
endfacet
facet normal 5.49381112697149e-15 -5.40860564087378e-16 1.0
outer loop
vertex -3.73414084085085 1.43394287915841 23.0
vertex -3.79621363671881 -1.26046103644251 23.0
vertex -3.65438704415834 -1.62648557678426 23.0
endloop
endfacet
facet normal 5.49381112697149e-15 -5.40860564087378e-16 1.0
outer loop
vertex -3.73414084085085 1.43394287915841 23.0
vertex -3.65438704415834 -1.62648557678426 23.0
vertex -3.5756089516466 1.79304785906684 23.0
endloop
endfacet
facet normal 5.49381112697149e-15 -5.40860564087378e-16 1.0
outer loop
vertex -3.5756089516466 1.79304785906684 23.0
vertex -3.65438704415834 -1.62648557678426 23.0
vertex -3.47736670667146 -1.97684617189411 23.0
endloop
endfacet
facet normal 5.49381112697149e-15 -5.40860564087378e-16 1.0
outer loop
vertex -3.5756089516466 1.79304785906684 23.0
vertex -3.47736670667146 -1.97684617189411 23.0
vertex -3.38264199361131 2.13488480791278 23.0
endloop
endfacet
facet normal 5.49381112697149e-15 -5.40860564087378e-16 1.0
outer loop
vertex -3.38264199361131 2.13488480791278 23.0
vertex -3.47736670667146 -1.97684617189411 23.0
vertex -3.26685742687732 -2.30816865771459 23.0
endloop
endfacet
facet normal 5.49381112697149e-15 -5.40860564087378e-16 1.0
outer loop
vertex -3.38264199361131 2.13488480791278 23.0
vertex -3.26685742687732 -2.30816865771459 23.0
vertex -3.15709834403732 2.45616164901178 23.0
endloop
endfacet
facet normal 5.49381112697149e-15 -5.40860564087378e-16 1.0
outer loop
vertex -3.15709834403732 2.45616164901178 23.0
vertex -3.26685742687732 -2.30816865771459 23.0
vertex -3.02488652421646 -2.61726221758794 23.0
endloop
endfacet
facet normal 5.49381112697149e-15 -5.40860564087378e-16 1.0
outer loop
vertex -3.15709834403732 2.45616164901178 23.0
vertex -3.02488652421646 -2.61726221758794 23.0
vertex -2.90115011156476 2.75378431075626 23.0
endloop
endfacet
facet normal 5.49381112697149e-15 -5.40860564087378e-16 1.0
outer loop
vertex -2.90115011156476 2.75378431075626 23.0
vertex -3.02488652421646 -2.61726221758794 23.0
vertex -2.7537843107562 -2.90115011156484 23.0
endloop
endfacet
facet normal 5.49381112697149e-15 -5.40860564087378e-16 1.0
outer loop
vertex -2.90115011156476 2.75378431075626 23.0
vertex -2.7537843107562 -2.90115011156484 23.0
vertex -2.61726221758785 3.02488652421652 23.0
endloop
endfacet
facet normal 5.49381112697149e-15 -5.40860564087378e-16 1.0
outer loop
vertex -2.61726221758785 3.02488652421652 23.0
vertex -2.7537843107562 -2.90115011156484 23.0
vertex -2.45616164901169 -3.15709834403741 23.0
endloop
endfacet
facet normal 5.49381112697149e-15 -5.40860564087378e-16 1.0
outer loop
vertex -2.61726221758785 3.02488652421652 23.0
vertex -2.45616164901169 -3.15709834403741 23.0
vertex -2.3081686577145 3.2668574268774 23.0
endloop
endfacet
facet normal 5.49381112697149e-15 -5.40860564087378e-16 1.0
outer loop
vertex -2.3081686577145 3.2668574268774 23.0
vertex -2.45616164901169 -3.15709834403741 23.0
vertex -2.13488480791271 -3.38264199361139 23.0
endloop
endfacet
facet normal 5.49381112697149e-15 -5.40860564087378e-16 1.0
outer loop
vertex -2.3081686577145 3.2668574268774 23.0
vertex -2.13488480791271 -3.38264199361139 23.0
vertex -2.14999999999993 -2.15000000000001 23.0
endloop
endfacet
facet normal 5.49381112697149e-15 -5.40860564087378e-16 1.0
outer loop
vertex -2.14999999999993 -2.15000000000001 23.0
vertex -2.13488480791271 -3.38264199361139 23.0
vertex 2.15000000000006 -2.15000000000001 23.0
endloop
endfacet
facet normal 5.49381112697149e-15 -5.40860564087378e-16 1.0
outer loop
vertex 2.15000000000006 -2.15000000000001 23.0
vertex -2.13488480791271 -3.38264199361139 23.0
vertex -1.79304785906675 -3.57560895164668 23.0
endloop
endfacet
facet normal 5.49381112697149e-15 -5.40860564087378e-16 1.0
outer loop
vertex 2.15000000000006 -2.15000000000001 23.0
vertex -1.79304785906675 -3.57560895164668 23.0
vertex -1.43394287915834 -3.73414084085093 23.0
endloop
endfacet
facet normal 5.49381112697149e-15 -5.40860564087378e-16 1.0
outer loop
vertex 2.15000000000006 -2.15000000000001 23.0
vertex -1.43394287915834 -3.73414084085093 23.0
vertex -1.06102824545072 -3.85671091246877 23.0
endloop
endfacet
facet normal 5.49381112697149e-15 -5.40860564087378e-16 1.0
outer loop
vertex 2.15000000000006 -2.15000000000001 23.0
vertex -1.06102824545072 -3.85671091246877 23.0
vertex -0.677895329722335 -3.94213874970689 23.0
endloop
endfacet
facet normal 5.49381112697149e-15 -5.40860564087378e-16 1.0
outer loop
vertex 2.15000000000006 -2.15000000000001 23.0
vertex -0.677895329722335 -3.94213874970689 23.0
vertex -0.288233911393471 -3.98960163579308 23.0
endloop
endfacet
facet normal 5.49381112697149e-15 -5.40860564087378e-16 1.0
outer loop
vertex 2.15000000000006 -2.15000000000001 23.0
vertex -0.288233911393471 -3.98960163579308 23.0
vertex 0.104203357066809 -3.99864247718849 23.0
endloop
endfacet
facet normal 5.49381112697149e-15 -5.40860564087378e-16 1.0
outer loop
vertex 2.15000000000006 -2.15000000000001 23.0
vertex 0.104203357066809 -3.99864247718849 23.0
vertex 0.495637090235183 -3.96917420564824 23.0
endloop
endfacet
facet normal 5.49381112697149e-15 -5.40860564087378e-16 1.0
outer loop
vertex 2.15000000000006 -2.15000000000001 23.0
vertex 0.495637090235183 -3.96917420564824 23.0
vertex 0.882297567281813 -3.90148061673628 23.0
endloop
endfacet
facet normal 5.49381112697149e-15 -5.40860564087378e-16 1.0
outer loop
vertex 2.15000000000006 -2.15000000000001 23.0
vertex 0.882297567281813 -3.90148061673628 23.0
vertex 1.26046103644259 -3.79621363671888 23.0
endloop
endfacet
facet normal 5.49381112697149e-15 -5.40860564087378e-16 1.0
outer loop
vertex 2.15000000000006 -2.15000000000001 23.0
vertex 1.26046103644259 -3.79621363671888 23.0
vertex 1.62648557678433 -3.65438704415842 23.0
endloop
endfacet
facet normal 5.49381112697149e-15 -5.40860564087378e-16 1.0
outer loop
vertex 2.15000000000006 -2.15000000000001 23.0
vertex 1.62648557678433 -3.65438704415842 23.0
vertex 1.97684617189418 -3.47736670667155 23.0
endloop
endfacet
facet normal 5.49381112697149e-15 -5.40860564087378e-16 1.0
outer loop
vertex 2.15000000000006 -2.15000000000001 23.0
vertex 1.97684617189418 -3.47736670667155 23.0
vertex 2.30816865771466 -3.26685742687742 23.0
endloop
endfacet
facet normal 5.49381112697149e-15 -5.40860564087378e-16 1.0
outer loop
vertex 2.15000000000006 -2.15000000000001 23.0
vertex 2.30816865771466 -3.26685742687742 23.0
vertex 2.15000000000009 2.14999999999999 23.0
endloop
endfacet
facet normal 5.49381112697149e-15 -5.40860564087378e-16 1.0
outer loop
vertex -2.3081686577145 3.2668574268774 23.0
vertex -2.14999999999993 2.14999999999999 23.0
vertex -1.97684617189402 3.47736670667153 23.0
endloop
endfacet
facet normal 5.49381112697149e-15 -5.40860564087378e-16 1.0
outer loop
vertex -2.14999999999993 2.14999999999999 23.0
vertex -2.3081686577145 3.2668574268774 23.0
vertex -2.14999999999993 -2.15000000000001 23.0
endloop
endfacet
facet normal 5.49381112697149e-15 -5.40860564087378e-16 1.0
outer loop
vertex -1.97684617189402 3.47736670667153 23.0
vertex -2.14999999999993 2.14999999999999 23.0
vertex 2.15000000000009 2.14999999999999 23.0
endloop
endfacet
facet normal 5.49381112697149e-15 -5.40860564087378e-16 1.0
outer loop
vertex -1.97684617189402 3.47736670667153 23.0
vertex 2.15000000000009 2.14999999999999 23.0
vertex -1.62648557678417 3.65438704415839 23.0
endloop
endfacet
facet normal 5.49381112697149e-15 -5.40860564087378e-16 1.0
outer loop
vertex -1.62648557678417 3.65438704415839 23.0
vertex 2.15000000000009 2.14999999999999 23.0
vertex -1.2604610364424 3.79621363671886 23.0
endloop
endfacet
facet normal 5.49381112697149e-15 -5.40860564087378e-16 1.0
outer loop
vertex -1.2604610364424 3.79621363671886 23.0
vertex 2.15000000000009 2.14999999999999 23.0
vertex -0.882297567281632 3.90148061673626 23.0
endloop
endfacet
facet normal 5.49381112697149e-15 -5.40860564087378e-16 1.0
outer loop
vertex -0.882297567281632 3.90148061673626 23.0
vertex 2.15000000000009 2.14999999999999 23.0
vertex -0.495637090235002 3.96917420564822 23.0
endloop
endfacet
facet normal 5.49381112697149e-15 -5.40860564087378e-16 1.0
outer loop
vertex -0.495637090235002 3.96917420564822 23.0
vertex 2.15000000000009 2.14999999999999 23.0
vertex -0.10420335706665 3.99864247718847 23.0
endloop
endfacet
facet normal 5.49381112697149e-15 -5.40860564087378e-16 1.0
outer loop
vertex -0.10420335706665 3.99864247718847 23.0
vertex 2.15000000000009 2.14999999999999 23.0
vertex 0.288233911393653 3.98960163579306 23.0
endloop
endfacet
facet normal 5.49381112697149e-15 -5.40860564087378e-16 1.0
outer loop
vertex 0.288233911393653 3.98960163579306 23.0
vertex 2.15000000000009 2.14999999999999 23.0
vertex 0.677895329722494 3.94213874970687 23.0
endloop
endfacet
facet normal 5.49381112697149e-15 -5.40860564087378e-16 1.0
outer loop
vertex 0.677895329722494 3.94213874970687 23.0
vertex 2.15000000000009 2.14999999999999 23.0
vertex 1.06102824545086 3.85671091246875 23.0
endloop
endfacet
facet normal 5.49381112697149e-15 -5.40860564087378e-16 1.0
outer loop
vertex 1.06102824545086 3.85671091246875 23.0
vertex 2.15000000000009 2.14999999999999 23.0
vertex 1.43394287915853 3.73414084085092 23.0
endloop
endfacet
facet normal 5.49381112697149e-15 -5.40860564087378e-16 1.0
outer loop
vertex 1.43394287915853 3.73414084085092 23.0
vertex 2.15000000000009 2.14999999999999 23.0
vertex 1.79304785906693 3.57560895164666 23.0
endloop
endfacet
facet normal 5.49381112697149e-15 -5.40860564087378e-16 1.0
outer loop
vertex 1.79304785906693 3.57560895164666 23.0
vertex 2.15000000000009 2.14999999999999 23.0
vertex 2.13488480791289 3.38264199361137 23.0
endloop
endfacet
facet normal 5.49381112697149e-15 -5.40860564087378e-16 1.0
outer loop
vertex 2.13488480791289 3.38264199361137 23.0
vertex 2.15000000000009 2.14999999999999 23.0
vertex 2.45616164901187 3.15709834403739 23.0
endloop
endfacet
facet normal 5.49381112697149e-15 -5.40860564087378e-16 1.0
outer loop
vertex 2.45616164901187 3.15709834403739 23.0
vertex 2.15000000000009 2.14999999999999 23.0
vertex 2.30816865771466 -3.26685742687742 23.0
endloop
endfacet
facet normal 5.49381112697149e-15 -5.40860564087378e-16 1.0
outer loop
vertex 2.45616164901187 3.15709834403739 23.0
vertex 2.30816865771466 -3.26685742687742 23.0
vertex 2.61726221758801 -3.02488652421654 23.0
endloop
endfacet
facet normal 5.49381112697149e-15 -5.40860564087378e-16 1.0
outer loop
vertex 2.45616164901187 3.15709834403739 23.0
vertex 2.61726221758801 -3.02488652421654 23.0
vertex 2.75378431075634 2.90115011156482 23.0
endloop
endfacet
facet normal 5.49381112697149e-15 -5.40860564087378e-16 1.0
outer loop
vertex 2.75378431075634 2.90115011156482 23.0
vertex 2.61726221758801 -3.02488652421654 23.0
vertex 2.90115011156491 -2.75378431075628 23.0
endloop
endfacet
facet normal 5.49381112697149e-15 -5.40860564087378e-16 1.0
outer loop
vertex 2.75378431075634 2.90115011156482 23.0
vertex 2.90115011156491 -2.75378431075628 23.0
vertex 3.0248865242166 2.61726221758791 23.0
endloop
endfacet
facet normal 5.49381112697149e-15 -5.40860564087378e-16 1.0
outer loop
vertex 3.0248865242166 2.61726221758791 23.0
vertex 2.90115011156491 -2.75378431075628 23.0
vertex 3.15709834403748 -2.4561616490118 23.0
endloop
endfacet
facet normal 5.49381112697149e-15 -5.40860564087378e-16 1.0
outer loop
vertex 3.0248865242166 2.61726221758791 23.0
vertex 3.15709834403748 -2.4561616490118 23.0
vertex 3.2668574268775 2.30816865771457 23.0
endloop
endfacet
facet normal 5.49381112697149e-15 -5.40860564087378e-16 1.0
outer loop
vertex 3.2668574268775 2.30816865771457 23.0
vertex 3.15709834403748 -2.4561616490118 23.0
vertex 3.38264199361144 -2.1348848079128 23.0
endloop
endfacet
facet normal 5.49381112697149e-15 -5.40860564087378e-16 1.0
outer loop
vertex 3.2668574268775 2.30816865771457 23.0
vertex 3.38264199361144 -2.1348848079128 23.0
vertex 3.47736670667162 1.97684617189409 23.0
endloop
endfacet
facet normal 5.49381112697149e-15 -5.40860564087378e-16 1.0
outer loop
vertex 3.47736670667162 1.97684617189409 23.0
vertex 3.38264199361144 -2.1348848079128 23.0
vertex 3.57560895164676 -1.79304785906685 23.0
endloop
endfacet
facet normal 5.49381112697149e-15 -5.40860564087378e-16 1.0
outer loop
vertex 3.47736670667162 1.97684617189409 23.0
vertex 3.57560895164676 -1.79304785906685 23.0
vertex 3.65438704415847 1.62648557678423 23.0
endloop
endfacet
facet normal 5.49381112697149e-15 -5.40860564087378e-16 1.0
outer loop
vertex 3.65438704415847 1.62648557678423 23.0
vertex 3.57560895164676 -1.79304785906685 23.0
vertex 3.73414084085099 -1.43394287915844 23.0
endloop
endfacet
facet normal 5.49381112697149e-15 -5.40860564087378e-16 1.0
outer loop
vertex 3.65438704415847 1.62648557678423 23.0
vertex 3.73414084085099 -1.43394287915844 23.0
vertex 3.79621363671894 1.26046103644249 23.0
endloop
endfacet
facet normal 5.49381112697149e-15 -5.40860564087378e-16 1.0
outer loop
vertex 3.79621363671894 1.26046103644249 23.0
vertex 3.73414084085099 -1.43394287915844 23.0
vertex 3.85671091246885 -1.0610282454508 23.0
endloop
endfacet
facet normal 5.49381112697149e-15 -5.40860564087378e-16 1.0
outer loop
vertex 3.79621363671894 1.26046103644249 23.0
vertex 3.85671091246885 -1.0610282454508 23.0
vertex 3.90148061673635 0.8822975672817 23.0
endloop
endfacet
facet normal 5.49381112697149e-15 -5.40860564087378e-16 1.0
outer loop
vertex 3.90148061673635 0.8822975672817 23.0
vertex 3.85671091246885 -1.0610282454508 23.0
vertex 3.94213874970695 -0.677895329722438 23.0
endloop
endfacet
facet normal 5.49381112697149e-15 -5.40860564087378e-16 1.0
outer loop
vertex 3.90148061673635 0.8822975672817 23.0
vertex 3.94213874970695 -0.677895329722438 23.0
vertex 3.96917420564831 0.495637090235093 23.0
endloop
endfacet
facet normal 5.49381112697149e-15 -5.40860564087378e-16 1.0
outer loop
vertex 3.96917420564831 0.495637090235093 23.0
vertex 3.94213874970695 -0.677895329722438 23.0
vertex 3.98960163579314 -0.288233911393562 23.0
endloop
endfacet
facet normal 5.49381112697149e-15 -5.40860564087378e-16 1.0
outer loop
vertex 3.96917420564831 0.495637090235093 23.0
vertex 3.98960163579314 -0.288233911393562 23.0
vertex 3.99864247718855 0.104203357066712 23.0
endloop
endfacet
facet normal 0.725287527891208 -0.688446077689067 -3.87955279628205e-15
outer loop
vertex 2.90115011156484 -2.75378431075627 -4.22994972382185e-15
vertex 3.15709834403748 -2.4561616490118 23.0
vertex 2.90115011156491 -2.75378431075628 23.0
endloop
endfacet
facet normal 0.78927458600935 -0.614040412252947 -4.13999422001082e-15
outer loop
vertex 3.15709834403748 -2.4561616490118 23.0
vertex 2.90115011156484 -2.75378431075627 -4.22994972382185e-15
vertex 3.1570983440374 -2.45616164901179 -1.40998324127395e-15
endloop
endfacet
facet normal -0.358485719789605 -0.933535210212732 1.1440908021584e-15
outer loop
vertex -1.43394287915834 -3.73414084085093 23.0
vertex -1.79304785906686 -3.57560895164667 5.63993296509579e-15
vertex -1.43394287915842 -3.73414084085093 0.0
endloop
endfacet
facet normal -0.448261964766711 -0.893902237911668 1.59690852727867e-15
outer loop
vertex -1.79304785906686 -3.57560895164667 5.63993296509579e-15
vertex -1.43394287915834 -3.73414084085093 23.0
vertex -1.79304785906675 -3.57560895164668 23.0
endloop
endfacet
facet normal 0.933535210212731 -0.358485719789606 -4.67438498523318e-15
outer loop
vertex 3.73414084085093 -1.43394287915842 -5.63993296509579e-15
vertex 3.85671091246885 -1.0610282454508 23.0
vertex 3.73414084085099 -1.43394287915844 23.0
endloop
endfacet
facet normal 0.964177728117191 -0.265257061362696 -4.76414708558933e-15
outer loop
vertex 3.85671091246885 -1.0610282454508 23.0
vertex 3.73414084085093 -1.43394287915842 -5.63993296509579e-15
vertex 3.85671091246875 -1.06102824545079 -1.26898491714655e-14
endloop
endfacet
facet normal -4.77395900588817e-15 6.07689946205093e-16 -1.0
outer loop
vertex -1.9768461718941 3.47736670667154 1.26898491714655e-14
vertex -2.15000000000001 2.15 1.40998324127395e-14
vertex -2.30816865771458 3.26685742687741 1.26898491714655e-14
endloop
endfacet
facet normal -4.77395900588817e-15 6.07689946205093e-16 -1.0
outer loop
vertex -2.15000000000001 2.15 1.40998324127395e-14
vertex -1.9768461718941 3.47736670667154 1.26898491714655e-14
vertex 2.15 2.15 -8.45989944764369e-15
endloop
endfacet
facet normal -4.77395900588817e-15 6.07689946205093e-16 -1.0
outer loop
vertex 2.15 2.15 -8.45989944764369e-15
vertex -1.9768461718941 3.47736670667154 1.26898491714655e-14
vertex -1.62648557678425 3.65438704415841 7.04991620636974e-15
endloop
endfacet
facet normal -4.77395900588817e-15 6.07689946205093e-16 -1.0
outer loop
vertex 2.15 2.15 -8.45989944764369e-15
vertex -1.62648557678425 3.65438704415841 7.04991620636974e-15
vertex -1.26046103644248 3.79621363671887 1.69197988952874e-14
endloop
endfacet
facet normal -4.77395900588817e-15 6.07689946205093e-16 -1.0
outer loop
vertex 2.15 2.15 -8.45989944764369e-15
vertex -1.26046103644248 3.79621363671887 1.69197988952874e-14
vertex -0.882297567281711 3.90148061673627 1.55098156540134e-14
endloop
endfacet
facet normal -4.77395900588817e-15 6.07689946205093e-16 -1.0
outer loop
vertex 2.15 2.15 -8.45989944764369e-15
vertex -0.882297567281711 3.90148061673627 1.55098156540134e-14
vertex -0.495637090235104 3.96917420564824 1.69197988952874e-14
endloop
endfacet
facet normal -4.77395900588817e-15 6.07689946205093e-16 -1.0
outer loop
vertex 2.15 2.15 -8.45989944764369e-15
vertex -0.495637090235104 3.96917420564824 1.69197988952874e-14
vertex -0.104203357066729 3.99864247718848 1.12798659301916e-14
endloop
endfacet
facet normal -4.77395900588817e-15 6.07689946205093e-16 -1.0
outer loop
vertex 2.15 2.15 -8.45989944764369e-15
vertex -0.104203357066729 3.99864247718848 1.12798659301916e-14
vertex 0.288233911393528 3.98960163579307 1.12798659301916e-14
endloop
endfacet
facet normal -4.77395900588817e-15 6.07689946205093e-16 -1.0
outer loop
vertex 2.15 2.15 -8.45989944764369e-15
vertex 0.288233911393528 3.98960163579307 1.12798659301916e-14
vertex 0.677895329722438 3.94213874970688 1.12798659301916e-14
endloop
endfacet
facet normal -4.77395900588817e-15 6.07689946205093e-16 -1.0
outer loop
vertex 2.15 2.15 -8.45989944764369e-15
vertex 0.677895329722438 3.94213874970688 1.12798659301916e-14
vertex 1.06102824545078 3.85671091246876 8.45989944764369e-15
endloop
endfacet
facet normal -4.77395900588817e-15 6.07689946205093e-16 -1.0
outer loop
vertex 2.15 2.15 -8.45989944764369e-15
vertex 1.06102824545078 3.85671091246876 8.45989944764369e-15
vertex 1.43394287915842 3.73414084085093 2.8199664825479e-15
endloop
endfacet
facet normal -4.77395900588817e-15 6.07689946205093e-16 -1.0
outer loop
vertex 2.15 2.15 -8.45989944764369e-15
vertex 1.43394287915842 3.73414084085093 2.8199664825479e-15
vertex 1.79304785906685 3.57560895164667 -2.8199664825479e-15
endloop
endfacet
facet normal -4.77395900588817e-15 6.07689946205093e-16 -1.0
outer loop
vertex 2.15 2.15 -8.45989944764369e-15
vertex 1.79304785906685 3.57560895164667 -2.8199664825479e-15
vertex 2.13488480791279 3.38264199361138 -8.45989944764369e-15
endloop
endfacet
facet normal -4.77395900588817e-15 6.07689946205093e-16 -1.0
outer loop
vertex 2.15 2.15 -8.45989944764369e-15
vertex 2.13488480791279 3.38264199361138 -8.45989944764369e-15
vertex 2.45616164901179 3.1570983440374 -2.8199664825479e-15
endloop
endfacet
facet normal -4.77395900588817e-15 6.07689946205093e-16 -1.0
outer loop
vertex 2.15 2.15 -8.45989944764369e-15
vertex 2.45616164901179 3.1570983440374 -2.8199664825479e-15
vertex 2.30816865771456 -3.26685742687741 -1.40998324127395e-14
endloop
endfacet
facet normal -4.77395900588817e-15 6.07689946205093e-16 -1.0
outer loop
vertex 2.30816865771456 -3.26685742687741 -1.40998324127395e-14
vertex 2.45616164901179 3.1570983440374 -2.8199664825479e-15
vertex 2.61726221758793 -3.02488652421653 -2.8199664825479e-15
endloop
endfacet
facet normal -4.77395900588817e-15 6.07689946205093e-16 -1.0
outer loop
vertex 2.61726221758793 -3.02488652421653 -2.8199664825479e-15
vertex 2.45616164901179 3.1570983440374 -2.8199664825479e-15
vertex 2.75378431075626 2.90115011156483 0.0
endloop
endfacet
facet normal -4.77395900588817e-15 6.07689946205093e-16 -1.0
outer loop
vertex 2.61726221758793 -3.02488652421653 -2.8199664825479e-15
vertex 2.75378431075626 2.90115011156483 0.0
vertex 2.90115011156484 -2.75378431075627 -4.22994972382185e-15
endloop
endfacet
facet normal -4.77395900588817e-15 6.07689946205093e-16 -1.0
outer loop
vertex 2.90115011156484 -2.75378431075627 -4.22994972382185e-15
vertex 2.75378431075626 2.90115011156483 0.0
vertex 3.02488652421653 2.61726221758792 -1.40998324127395e-15
endloop
endfacet
facet normal -4.77395900588817e-15 6.07689946205093e-16 -1.0
outer loop
vertex 2.90115011156484 -2.75378431075627 -4.22994972382185e-15
vertex 3.02488652421653 2.61726221758792 -1.40998324127395e-15
vertex 3.1570983440374 -2.45616164901179 -1.40998324127395e-15
endloop
endfacet
facet normal -4.77395900588817e-15 6.07689946205093e-16 -1.0
outer loop
vertex 3.1570983440374 -2.45616164901179 -1.40998324127395e-15
vertex 3.02488652421653 2.61726221758792 -1.40998324127395e-15
vertex 3.26685742687742 2.30816865771457 1.40998324127395e-15
endloop
endfacet
facet normal -4.77395900588817e-15 6.07689946205093e-16 -1.0
outer loop
vertex 3.1570983440374 -2.45616164901179 -1.40998324127395e-15
vertex 3.26685742687742 2.30816865771457 1.40998324127395e-15
vertex 3.38264199361139 -2.13488480791279 -7.04991620636974e-15
endloop
endfacet
facet normal -4.77395900588817e-15 6.07689946205093e-16 -1.0
outer loop
vertex 3.38264199361139 -2.13488480791279 -7.04991620636974e-15
vertex 3.26685742687742 2.30816865771457 1.40998324127395e-15
vertex 3.47736670667153 1.9768461718941 -4.22994972382185e-15
endloop
endfacet
facet normal -4.77395900588817e-15 6.07689946205093e-16 -1.0
outer loop
vertex 3.38264199361139 -2.13488480791279 -7.04991620636974e-15
vertex 3.47736670667153 1.9768461718941 -4.22994972382185e-15
vertex 3.57560895164666 -1.79304785906684 -4.22994972382185e-15
endloop
endfacet
facet normal -4.77395900588817e-15 6.07689946205093e-16 -1.0
outer loop
vertex 3.57560895164666 -1.79304785906684 -4.22994972382185e-15
vertex 3.47736670667153 1.9768461718941 -4.22994972382185e-15
vertex 3.65438704415842 1.62648557678425 -5.63993296509579e-15
endloop
endfacet
facet normal -4.77395900588817e-15 6.07689946205093e-16 -1.0
outer loop
vertex 3.57560895164666 -1.79304785906684 -4.22994972382185e-15
vertex 3.65438704415842 1.62648557678425 -5.63993296509579e-15
vertex 3.73414084085093 -1.43394287915842 -5.63993296509579e-15
endloop
endfacet
facet normal -4.77395900588817e-15 6.07689946205093e-16 -1.0
outer loop
vertex 3.73414084085093 -1.43394287915842 -5.63993296509579e-15
vertex 3.65438704415842 1.62648557678425 -5.63993296509579e-15
vertex 3.79621363671887 1.2604610364425 -5.63993296509579e-15
endloop
endfacet
facet normal -4.77395900588817e-15 6.07689946205093e-16 -1.0
outer loop
vertex 3.73414084085093 -1.43394287915842 -5.63993296509579e-15
vertex 3.79621363671887 1.2604610364425 -5.63993296509579e-15
vertex 3.85671091246875 -1.06102824545079 -1.26898491714655e-14
endloop
endfacet
facet normal -4.77395900588817e-15 6.07689946205093e-16 -1.0
outer loop
vertex 3.85671091246875 -1.06102824545079 -1.26898491714655e-14
vertex 3.79621363671887 1.2604610364425 -5.63993296509579e-15
vertex 3.90148061673627 0.882297567281718 -8.45989944764369e-15
endloop
endfacet
facet normal -4.77395900588817e-15 6.07689946205093e-16 -1.0
outer loop
vertex 3.85671091246875 -1.06102824545079 -1.26898491714655e-14
vertex 3.90148061673627 0.882297567281718 -8.45989944764369e-15
vertex 3.94213874970687 -0.677895329722425 -1.12798659301916e-14
endloop
endfacet
facet normal -4.77395900588817e-15 6.07689946205093e-16 -1.0
outer loop
vertex 3.94213874970687 -0.677895329722425 -1.12798659301916e-14
vertex 3.90148061673627 0.882297567281718 -8.45989944764369e-15
vertex 3.96917420564824 0.4956370902351 -7.04991620636974e-15
endloop
endfacet
facet normal -4.77395900588817e-15 6.07689946205093e-16 -1.0
outer loop
vertex 3.94213874970687 -0.677895329722425 -1.12798659301916e-14
vertex 3.96917420564824 0.4956370902351 -7.04991620636974e-15
vertex 3.98960163579307 -0.28823391139355 -1.12798659301916e-14
endloop
endfacet
facet normal -4.77395900588817e-15 6.07689946205093e-16 -1.0
outer loop
vertex 3.98960163579307 -0.28823391139355 -1.12798659301916e-14
vertex 3.96917420564824 0.4956370902351 -7.04991620636974e-15
vertex 3.99864247718849 0.104203357066725 -5.63993296509579e-15
endloop
endfacet
facet normal -4.77395900588817e-15 6.07689946205093e-16 -1.0
outer loop
vertex -3.98960163579308 0.288233911393558 2.8199664825479e-14
vertex -3.96917420564825 -0.495637090235097 3.38395977905748e-14
vertex -3.99864247718847 -0.104203357066722 3.38395977905748e-14
endloop
endfacet
facet normal -4.77395900588817e-15 6.07689946205093e-16 -1.0
outer loop
vertex -3.96917420564825 -0.495637090235097 3.38395977905748e-14
vertex -3.98960163579308 0.288233911393558 2.8199664825479e-14
vertex -3.94213874970689 0.677895329722427 3.38395977905748e-14
endloop
endfacet
facet normal -4.77395900588817e-15 6.07689946205093e-16 -1.0
outer loop
vertex -3.96917420564825 -0.495637090235097 3.38395977905748e-14
vertex -3.94213874970689 0.677895329722427 3.38395977905748e-14
vertex -3.90148061673626 -0.88229756728171 2.8199664825479e-14
endloop
endfacet
facet normal -4.77395900588817e-15 6.07689946205093e-16 -1.0
outer loop
vertex -3.90148061673626 -0.88229756728171 2.8199664825479e-14
vertex -3.94213874970689 0.677895329722427 3.38395977905748e-14
vertex -3.85671091246875 1.06102824545079 2.8199664825479e-14
endloop
endfacet
facet normal -4.77395900588817e-15 6.07689946205093e-16 -1.0
outer loop
vertex -3.90148061673626 -0.88229756728171 2.8199664825479e-14
vertex -3.85671091246875 1.06102824545079 2.8199664825479e-14
vertex -3.79621363671886 -1.26046103644249 2.8199664825479e-14
endloop
endfacet
facet normal -4.77395900588817e-15 6.07689946205093e-16 -1.0
outer loop
vertex -3.79621363671886 -1.26046103644249 2.8199664825479e-14
vertex -3.85671091246875 1.06102824545079 2.8199664825479e-14
vertex -3.73414084085093 1.43394287915843 2.96096480667529e-14
endloop
endfacet
facet normal -4.77395900588817e-15 6.07689946205093e-16 -1.0
outer loop
vertex -3.79621363671886 -1.26046103644249 2.8199664825479e-14
vertex -3.73414084085093 1.43394287915843 2.96096480667529e-14
vertex -3.65438704415842 -1.62648557678424 2.6789681584205e-14
endloop
endfacet
facet normal -4.77395900588817e-15 6.07689946205093e-16 -1.0
outer loop
vertex -3.65438704415842 -1.62648557678424 2.6789681584205e-14
vertex -3.73414084085093 1.43394287915843 2.96096480667529e-14
vertex -3.57560895164668 1.79304785906685 2.96096480667529e-14
endloop
endfacet
facet normal -4.77395900588817e-15 6.07689946205093e-16 -1.0
outer loop
vertex -3.65438704415842 -1.62648557678424 2.6789681584205e-14
vertex -3.57560895164668 1.79304785906685 2.96096480667529e-14
vertex -3.47736670667156 -1.9768461718941 3.10196313080269e-14
endloop
endfacet
facet normal -4.77395900588817e-15 6.07689946205093e-16 -1.0
outer loop
vertex -3.47736670667156 -1.9768461718941 3.10196313080269e-14
vertex -3.57560895164668 1.79304785906685 2.96096480667529e-14
vertex -3.38264199361139 2.13488480791279 2.6789681584205e-14
endloop
endfacet
facet normal -4.77395900588817e-15 6.07689946205093e-16 -1.0
outer loop
vertex -3.47736670667156 -1.9768461718941 3.10196313080269e-14
vertex -3.38264199361139 2.13488480791279 2.6789681584205e-14
vertex -3.26685742687742 -2.30816865771458 2.53796983429311e-14
endloop
endfacet
facet normal -4.77395900588817e-15 6.07689946205093e-16 -1.0
outer loop
vertex -3.26685742687742 -2.30816865771458 2.53796983429311e-14
vertex -3.38264199361139 2.13488480791279 2.6789681584205e-14
vertex -3.15709834403738 2.45616164901178 3.10196313080269e-14
endloop
endfacet
facet normal -4.77395900588817e-15 6.07689946205093e-16 -1.0
outer loop
vertex -3.26685742687742 -2.30816865771458 2.53796983429311e-14
vertex -3.15709834403738 2.45616164901178 3.10196313080269e-14
vertex -3.02488652421654 -2.61726221758792 2.11497486191092e-14
endloop
endfacet
facet normal -4.77395900588817e-15 6.07689946205093e-16 -1.0
outer loop
vertex -3.02488652421654 -2.61726221758792 2.11497486191092e-14
vertex -3.15709834403738 2.45616164901178 3.10196313080269e-14
vertex -2.90115011156483 2.75378431075626 2.25597318603832e-14
endloop
endfacet
facet normal -4.77395900588817e-15 6.07689946205093e-16 -1.0
outer loop
vertex -3.02488652421654 -2.61726221758792 2.11497486191092e-14
vertex -2.90115011156483 2.75378431075626 2.25597318603832e-14
vertex -2.75378431075628 -2.90115011156483 2.25597318603832e-14
endloop
endfacet
facet normal -4.77395900588817e-15 6.07689946205093e-16 -1.0
outer loop
vertex -2.75378431075628 -2.90115011156483 2.25597318603832e-14
vertex -2.90115011156483 2.75378431075626 2.25597318603832e-14
vertex -2.61726221758791 3.02488652421653 2.39697151016571e-14
endloop
endfacet
facet normal -4.77395900588817e-15 6.07689946205093e-16 -1.0
outer loop
vertex -2.75378431075628 -2.90115011156483 2.25597318603832e-14
vertex -2.61726221758791 3.02488652421653 2.39697151016571e-14
vertex -2.45616164901179 -3.1570983440374 2.25597318603832e-14
endloop
endfacet
facet normal -4.77395900588817e-15 6.07689946205093e-16 -1.0
outer loop
vertex -2.45616164901179 -3.1570983440374 2.25597318603832e-14
vertex -2.61726221758791 3.02488652421653 2.39697151016571e-14
vertex -2.30816865771458 3.26685742687741 1.26898491714655e-14
endloop
endfacet
facet normal -4.77395900588817e-15 6.07689946205093e-16 -1.0
outer loop
vertex -2.45616164901179 -3.1570983440374 2.25597318603832e-14
vertex -2.30816865771458 3.26685742687741 1.26898491714655e-14
vertex -2.13488480791279 -3.38264199361138 7.04991620636974e-15
endloop
endfacet
facet normal -4.77395900588817e-15 6.07689946205093e-16 -1.0
outer loop
vertex -2.13488480791279 -3.38264199361138 7.04991620636974e-15
vertex -2.30816865771458 3.26685742687741 1.26898491714655e-14
vertex -2.14999999999998 -2.15 1.12798659301916e-14
endloop
endfacet
facet normal -4.77395900588817e-15 6.07689946205093e-16 -1.0
outer loop
vertex -2.14999999999998 -2.15 1.12798659301916e-14
vertex -2.30816865771458 3.26685742687741 1.26898491714655e-14
vertex -2.15000000000001 2.15 1.40998324127395e-14
endloop
endfacet
facet normal -4.77395900588817e-15 6.07689946205093e-16 -1.0
outer loop
vertex -2.13488480791279 -3.38264199361138 7.04991620636974e-15
vertex -2.14999999999998 -2.15 1.12798659301916e-14
vertex 2.14999999999998 -2.15 -1.26898491714655e-14
endloop
endfacet
facet normal -4.77395900588817e-15 6.07689946205093e-16 -1.0
outer loop
vertex -2.13488480791279 -3.38264199361138 7.04991620636974e-15
vertex 2.14999999999998 -2.15 -1.26898491714655e-14
vertex -1.79304785906686 -3.57560895164667 5.63993296509579e-15
endloop
endfacet
facet normal -4.77395900588817e-15 6.07689946205093e-16 -1.0
outer loop
vertex -1.79304785906686 -3.57560895164667 5.63993296509579e-15
vertex 2.14999999999998 -2.15 -1.26898491714655e-14
vertex -1.43394287915842 -3.73414084085093 0.0
endloop
endfacet
facet normal -4.77395900588817e-15 6.07689946205093e-16 -1.0
outer loop
vertex -1.43394287915842 -3.73414084085093 0.0
vertex 2.14999999999998 -2.15 -1.26898491714655e-14
vertex -1.0610282454508 -3.85671091246876 1.40998324127395e-14
endloop
endfacet
facet normal -4.77395900588817e-15 6.07689946205093e-16 -1.0
outer loop
vertex -1.0610282454508 -3.85671091246876 1.40998324127395e-14
vertex 2.14999999999998 -2.15 -1.26898491714655e-14
vertex -0.67789532972242 -3.94213874970688 1.12798659301916e-14
endloop
endfacet
facet normal -4.77395900588817e-15 6.07689946205093e-16 -1.0
outer loop
vertex -0.67789532972242 -3.94213874970688 1.12798659301916e-14
vertex 2.14999999999998 -2.15 -1.26898491714655e-14
vertex -0.288233911393556 -3.98960163579307 8.45989944764369e-15
endloop
endfacet
facet normal -4.77395900588817e-15 6.07689946205093e-16 -1.0
outer loop
vertex -0.288233911393556 -3.98960163579307 8.45989944764369e-15
vertex 2.14999999999998 -2.15 -1.26898491714655e-14
vertex 0.104203357066702 -3.99864247718848 7.04991620636974e-15
endloop
endfacet
facet normal -4.77395900588817e-15 6.07689946205093e-16 -1.0
outer loop
vertex 0.104203357066702 -3.99864247718848 7.04991620636974e-15
vertex 2.14999999999998 -2.15 -1.26898491714655e-14
vertex 0.495637090235099 -3.96917420564824 5.63993296509579e-15
endloop
endfacet
facet normal -4.77395900588817e-15 6.07689946205093e-16 -1.0
outer loop
vertex 0.495637090235099 -3.96917420564824 5.63993296509579e-15
vertex 2.14999999999998 -2.15 -1.26898491714655e-14
vertex 0.882297567281706 -3.90148061673626 9.86988268891764e-15
endloop
endfacet
facet normal -4.77395900588817e-15 6.07689946205093e-16 -1.0
outer loop
vertex 0.882297567281706 -3.90148061673626 9.86988268891764e-15
vertex 2.14999999999998 -2.15 -1.26898491714655e-14
vertex 1.2604610364425 -3.79621363671888 7.04991620636974e-15
endloop
endfacet
facet normal -4.77395900588817e-15 6.07689946205093e-16 -1.0
outer loop
vertex 1.2604610364425 -3.79621363671888 7.04991620636974e-15
vertex 2.14999999999998 -2.15 -1.26898491714655e-14
vertex 1.62648557678426 -3.65438704415841 -1.26898491714655e-14
endloop
endfacet
facet normal -4.77395900588817e-15 6.07689946205093e-16 -1.0
outer loop
vertex 1.62648557678426 -3.65438704415841 -1.26898491714655e-14
vertex 2.14999999999998 -2.15 -1.26898491714655e-14
vertex 1.9768461718941 -3.47736670667154 -9.86988268891764e-15
endloop
endfacet
facet normal -4.77395900588817e-15 6.07689946205093e-16 -1.0
outer loop
vertex 1.9768461718941 -3.47736670667154 -9.86988268891764e-15
vertex 2.14999999999998 -2.15 -1.26898491714655e-14
vertex 2.30816865771456 -3.26685742687741 -1.40998324127395e-14
endloop
endfacet
facet normal -4.77395900588817e-15 6.07689946205093e-16 -1.0
outer loop
vertex 2.30816865771456 -3.26685742687741 -1.40998324127395e-14
vertex 2.14999999999998 -2.15 -1.26898491714655e-14
vertex 2.15 2.15 -8.45989944764369e-15
endloop
endfacet
facet normal 0.220574391820428 -0.975370154184066 -1.6463742349209e-15
outer loop
vertex 0.882297567281706 -3.90148061673626 9.86988268891764e-15
vertex 0.495637090235183 -3.96917420564824 23.0
vertex 0.495637090235099 -3.96917420564824 5.63993296509579e-15
endloop
endfacet
facet normal 0.123909272558775 -0.992293551412058 -1.19468705559845e-15
outer loop
vertex 0.495637090235183 -3.96917420564824 23.0
vertex 0.882297567281706 -3.90148061673626 9.86988268891764e-15
vertex 0.882297567281813 -3.90148061673628 23.0
endloop
endfacet
facet normal -0.265257061362697 -0.96417772811719 6.80691144983123e-16
outer loop
vertex -1.0610282454508 -3.85671091246876 1.40998324127395e-14
vertex -1.43394287915834 -3.73414084085093 23.0
vertex -1.43394287915842 -3.73414084085093 0.0
endloop
endfacet
facet normal -0.358485719789605 -0.933535210212732 1.1440908021584e-15
outer loop
vertex -1.43394287915834 -3.73414084085093 23.0
vertex -1.0610282454508 -3.85671091246876 1.40998324127395e-14
vertex -1.06102824545072 -3.85671091246877 23.0
endloop
endfacet
facet normal -0.533721201978199 -0.845660498402844 2.03406375830703e-15
outer loop
vertex -2.13488480791271 -3.38264199361139 23.0
vertex -2.45616164901179 -3.1570983440374 2.25597318603832e-14
vertex -2.13488480791279 -3.38264199361138 7.04991620636974e-15
endloop
endfacet
facet normal -0.614040412252946 -0.789274586009351 2.45213533349877e-15
outer loop
vertex -2.45616164901179 -3.1570983440374 2.25597318603832e-14
vertex -2.13488480791271 -3.38264199361139 23.0
vertex -2.45616164901169 -3.15709834403741 23.0
endloop
endfacet
facet normal 0.949053409179718 0.315115259110624 -4.3393493987314e-15
outer loop
vertex 3.79621363671887 1.2604610364425 -5.63993296509579e-15
vertex 3.65438704415847 1.62648557678423 23.0
vertex 3.79621363671894 1.26046103644249 23.0
endloop
endfacet
facet normal 0.913596761039602 0.406621394196061 -4.11458080344013e-15
outer loop
vertex 3.65438704415847 1.62648557678423 23.0
vertex 3.79621363671887 1.2604610364425 -5.63993296509579e-15
vertex 3.65438704415842 1.62648557678425 -5.63993296509579e-15
endloop
endfacet
facet normal 0.0720584778483893 0.997400408948269 2.62098377488524e-16
outer loop
vertex 0.288233911393653 3.98960163579306 23.0
vertex 0.677895329722438 3.94213874970688 1.12798659301916e-14
vertex 0.288233911393528 3.98960163579307 1.12798659301916e-14
endloop
endfacet
facet normal 0.169473832430605 0.98553468742672 -2.09877726420403e-16
outer loop
vertex 0.677895329722438 3.94213874970688 1.12798659301916e-14
vertex 0.288233911393653 3.98960163579306 23.0
vertex 0.677895329722494 3.94213874970687 23.0
endloop
endfacet
facet normal 0.40662139419606 -0.913596761039603 -2.49599024096202e-15
outer loop
vertex 1.62648557678433 -3.65438704415842 23.0
vertex 1.2604610364425 -3.79621363671888 7.04991620636974e-15
vertex 1.62648557678426 -3.65438704415841 -1.26898491714655e-14
endloop
endfacet
facet normal 0.315115259110624 -0.949053409179718 -2.08142518244354e-15
outer loop
vertex 1.2604610364425 -3.79621363671888 7.04991620636974e-15
vertex 1.62648557678433 -3.65438704415842 23.0
vertex 1.26046103644259 -3.79621363671888 23.0
endloop
endfacet
facet normal -0.98553468742672 0.169473832430605 4.8079810339882e-15
outer loop
vertex -3.94213874970679 0.677895329722414 23.0
vertex -3.98960163579308 0.288233911393558 2.8199664825479e-14
vertex -3.989601635793 0.288233911393539 23.0
endloop
endfacet
facet normal -0.997400408948269 0.0720584778483874 4.80526403044218e-15
outer loop
vertex -3.98960163579308 0.288233911393558 2.8199664825479e-14
vertex -3.94213874970679 0.677895329722414 23.0
vertex -3.94213874970689 0.677895329722427 3.38395977905748e-14
endloop
endfacet
facet normal 0.964177728117191 -0.265257061362696 -4.76414708558933e-15
outer loop
vertex 3.85671091246875 -1.06102824545079 -1.26898491714655e-14
vertex 3.94213874970695 -0.677895329722438 23.0
vertex 3.85671091246885 -1.0610282454508 23.0
endloop
endfacet
facet normal 0.98553468742672 -0.169473832430606 -4.8076829772128e-15
outer loop
vertex 3.94213874970695 -0.677895329722438 23.0
vertex 3.85671091246875 -1.06102824545079 -1.26898491714655e-14
vertex 3.94213874970687 -0.677895329722425 -1.12798659301916e-14
endloop
endfacet
endsolid Journal Crankshaft
